<?xml version="1.0" encoding="utf-8"?>
<!-- Generator: Adobe Illustrator 26.2.1, SVG Export Plug-In . SVG Version: 6.00 Build 0)  -->
<svg version="1.1" xmlns="http://www.w3.org/2000/svg" xmlns:xlink="http://www.w3.org/1999/xlink" x="0px" y="0px"
	 viewBox="0 0 650 500" style="enable-background:new 0 0 650 500;" xml:space="preserve">
<style type="text/css">
	.st0{fill:#BCD4D8;}
	.st1{fill:#FFFFFF;}
	.st2{fill:#25292B;}
	.st3{fill:#95BFCE;}
	.st4{fill:#366985;}
	.st5{fill:#F2E9DA;}
</style>
<g id="BACKGROUND">
</g>
<g id="OBJECTS">
	<g>
		<g>
			<path class="st0" d="M31.3,342.7c21.8,65.6,88.2,113.9,158.9,106.9c95.4-4.5,187.1-92.3,282.9-49.2
				c70.6,38.2,148.2,21.6,159.4-66.1c15.8-71.8-42.1-172.8-102.9-210.9c-70-41.9-154.5-58.2-235.6-59.1
				C146.8,57.8-19.3,186.4,31.3,342.7z"/>
		</g>
		<g>
			<g>
				<g>
					<path class="st1" d="M497.3,144.2c-4.3,4.3-10.4,6.7-16.4,6.7v4.8h-81.8v-4.8c-6.1,0-12.2-2.4-16.4-6.7
						c-5.3-5.3-7.6-13.4-6-20.7c0.8-3.7,2.6-7.3,5.4-9.9c2.8-2.6,6.7-4.1,10.5-3.7c0.4,0,0.8,0.1,1.2,0.2c2,0.4,3.9,1.3,5.4,2.6
						l4.7-18.1c49.2,5.7,67.6-11.8,67.6-11.8c6.6,8.4,9.5,29.9,9.5,29.9c1.8-1.6,4.1-2.6,6.5-2.8c0.4,0,0.8-0.1,1.3,0
						c3.4,0,6.7,1.5,9.2,3.8c2.8,2.6,4.6,6.1,5.4,9.9C504.9,130.8,502.5,138.8,497.3,144.2z"/>
				</g>
				<g>
					<path class="st2" d="M491.1,95c0,5-1.1,10-2.5,14.9c-0.4,0-0.8,0-1.3,0c-2.4,0.2-4.7,1.2-6.5,2.8c0,0-2.9-21.5-9.5-29.9
						c0,0-18.3,17.5-67.6,11.8l-4.7,18.1c-1.5-1.3-3.4-2.3-5.4-2.6c-1.1-7-1.2-14.1-0.3-21.1c-4-3.9-7.2-8.6-8.1-14
						c-1-6.2,1.9-13.3,7.7-15.6c4.3-1.7,9.1-0.6,13.6,0.2c8.8,1.5,17.8,1.9,26.7,1c7.7-0.7,15.4-2.4,23.1-1.5
						c7.5,0.9,15.2,4.8,18.1,11.8c5,0.9,9.5,4.2,12.3,8.4C489.9,83.8,491.2,89.4,491.1,95z"/>
				</g>
				<g>
					
						<rect x="398.3" y="140.9" transform="matrix(0.9994 -3.390127e-02 3.390127e-02 0.9994 -4.7973 13.6064)" class="st2" width="1" height="14.7"/>
				</g>
				<g>
					<path class="st2" d="M390.7,146.6c-3.3-1.7-5.2-5.6-4.6-9.2c0.6-3.5,3.5-6.3,7-7c-0.1-0.4-0.1-0.9-0.2-1.4
						c-0.4-2.4-1-6.8-1.7-7.8c-0.9-1.4-2.3-2.4-3.7-2.4c-1.3-0.1-2.6,0.6-3.5,1.7c-0.8,1-1.2,2.4-1.1,3.9l-1,0.1
						c-0.1-1.7,0.4-3.3,1.3-4.6c1.1-1.3,2.7-2.1,4.3-2.1c1.7,0.1,3.4,1.2,4.5,2.9c0.7,1.1,1.2,4.5,1.8,8.2c0.1,0.8,0.2,1.5,0.3,1.9
						l0.1,0.5l-0.5,0.1c-3.2,0.4-6.1,3.1-6.6,6.2c-0.6,3.2,1.2,6.7,4,8.2L390.7,146.6z"/>
				</g>
				<g>
					
						<rect x="473.8" y="147.8" transform="matrix(3.415974e-02 -0.9994 0.9994 3.415974e-02 316.5111 624.0543)" class="st2" width="14.7" height="1"/>
				</g>
				<g>
					<path class="st2" d="M489.2,146.6l-0.5-0.9c2.9-1.5,4.6-5,4-8.2c-0.6-3.2-3.4-5.9-6.6-6.2l-0.5-0.1l0.1-0.5
						c0.1-0.4,0.2-1.1,0.3-1.9c0.6-3.7,1.1-7.1,1.8-8.2c1.1-1.7,2.8-2.8,4.5-2.9c1.6-0.1,3.3,0.7,4.3,2.1c1,1.2,1.4,2.9,1.3,4.6
						l-1-0.1c0.1-1.4-0.3-2.9-1.1-3.9c-0.9-1.1-2.2-1.7-3.5-1.7c-1.4,0.1-2.8,1-3.7,2.4c-0.6,1-1.3,5.5-1.7,7.8
						c-0.1,0.5-0.2,1-0.2,1.4c3.5,0.6,6.4,3.5,7,7C494.5,141,492.5,144.9,489.2,146.6z"/>
				</g>
				<g>
					<path class="st2" d="M480.5,120.5c0,9.5-8.9,17.1-20,17.1c-5.1,0-9.8-1.6-13.3-4.4c-3.8-2.9-9.1-2.9-12.9,0
						c-3.6,2.8-8.3,4.6-13.6,4.6c-11,0-20-7.7-20-17.1c0-9.5,8.9-17.1,20-17.1c5.1,0,9.8,1.6,13.3,4.4c3.8,2.9,9.2,2.9,12.9,0
						c3.6-2.8,8.3-4.6,13.6-4.6C471.5,103.4,480.5,111.1,480.5,120.5z"/>
				</g>
				<g>
					<g>
						<g>
							
								<ellipse transform="matrix(0.9976 -6.956937e-02 6.956937e-02 0.9976 -7.6308 29.5777)" class="st1" cx="420.8" cy="124.3" rx="5.4" ry="5.9"/>
						</g>
					</g>
				</g>
				<g>
					<g>
						<g>
							
								<ellipse transform="matrix(6.956937e-02 -0.9976 0.9976 6.956937e-02 304.3537 575.0013)" class="st1" cx="460.4" cy="124.3" rx="5.9" ry="5.4"/>
						</g>
					</g>
				</g>
				<g>
					<polygon class="st2" points="433.5,149.9 436.7,126.6 437.7,126.7 434.7,148.4 445.4,144.7 445.7,145.6 					"/>
				</g>
				<g>
					<path class="st1" d="M424.8,118.6l-8.8-2.5c-1.1-0.3-1.8-1.5-1.4-2.6l0.1-0.3c0.3-1.1,1.5-1.8,2.6-1.4l8.8,2.5
						c1.1,0.3,1.8,1.5,1.4,2.6l-0.1,0.3C427,118.2,425.9,118.9,424.8,118.6z"/>
				</g>
				<g>
					<path class="st1" d="M455.4,118.6l8.8-2.5c1.1-0.3,1.8-1.5,1.4-2.6l-0.1-0.3c-0.3-1.1-1.5-1.8-2.6-1.4l-8.8,2.5
						c-1.1,0.3-1.8,1.5-1.4,2.6l0.1,0.3C453.2,118.2,454.3,118.9,455.4,118.6z"/>
				</g>
			</g>
			<g>
				<g>
					<path class="st3" d="M358.3,91.3L342.6,97c-2.7,17.5-17.8,30.8-36.1,30.8c-20.2,0-36.5-16.3-36.5-36.5
						c0-20.2,16.3-36.5,36.5-36.5c17.6,0,32.3,12.4,35.7,29L358.3,91.3z"/>
				</g>
				<g>
					<g>
						<polygon class="st1" points="329.1,103.1 318.3,113.9 306.5,102.1 294.7,113.9 284,103.1 295.8,91.3 284,79.5 294.7,68.7 
							306.5,80.5 318.3,68.7 329.1,79.5 317.3,91.3 						"/>
					</g>
				</g>
			</g>
		</g>
		<g>
			<g>
				<g>
					<g>
						<path class="st4" d="M575.5,169.9v11.2H99.3v-11.2c0-8.1,6.6-14.6,14.6-14.6h446.9C568.9,155.2,575.5,161.8,575.5,169.9z"/>
					</g>
				</g>
				<g>
					<g>
						<path class="st1" d="M552.9,170.8H522c-1,0-1.8-0.8-1.8-1.8v-3.1c0-1,0.8-1.8,1.8-1.8h30.9c1,0,1.8,0.8,1.8,1.8v3.1
							C554.7,170,553.9,170.8,552.9,170.8z"/>
					</g>
				</g>
				<g>
					<g>
						<path class="st0" d="M507.2,171.3h-30.9c-1,0-1.8-0.8-1.8-1.8v-3.1c0-1,0.8-1.8,1.8-1.8h30.9c1,0,1.8,0.8,1.8,1.8v3.1
							C509,170.5,508.2,171.3,507.2,171.3z"/>
					</g>
				</g>
				<g>
					<g>
						<path class="st2" d="M461.3,171.3h-30.9c-1,0-1.8-0.8-1.8-1.8v-3.1c0-1,0.8-1.8,1.8-1.8h30.9c1,0,1.8,0.8,1.8,1.8v3.1
							C463.1,170.5,462.3,171.3,461.3,171.3z"/>
					</g>
				</g>
				<g>
					<g>
						<path class="st2" d="M560.4,445.7h-446c-9,0-16.4-7.3-16.4-16.4v-259c0-9,7.3-16.4,16.4-16.4h446c9,0,16.3,7.3,16.3,16.4v259
							C576.7,438.3,569.4,445.7,560.4,445.7z M114.4,155c-8.5,0-15.4,6.9-15.4,15.4v259c0,8.5,6.9,15.4,15.4,15.4h446
							c8.4,0,15.3-6.9,15.3-15.4v-259c0-8.5-6.9-15.4-15.3-15.4H114.4z"/>
					</g>
				</g>
			</g>
			<g>
				<g>
					<path class="st1" d="M241.9,237.1v53.5c0,45.8-25.3,89.2-67.6,116l-30.4,19.2l-30.4-19.2c-42.3-26.8-67.6-70.2-67.6-116v-53.5
						l98-37.8L241.9,237.1z"/>
				</g>
				<g>
					<path class="st2" d="M143.9,416.2c-0.1,0-0.2,0-0.3-0.1l-25.6-16.2c-40-25.3-63.9-66.2-63.9-109.4v-47.7c0-0.2,0.1-0.4,0.3-0.5
						l89.3-34.4c0.1,0,0.2,0,0.4,0l89.3,34.4c0.2,0.1,0.3,0.3,0.3,0.5v47.7c0,43.1-23.9,84-63.9,109.4l-25.6,16.2
						C144.1,416.2,144,416.2,143.9,416.2z M55.2,243.1v47.4c0,42.8,23.7,83.4,63.5,108.5l25.3,16l25.3-16
						c39.7-25.2,63.4-65.7,63.4-108.5v-47.4l-88.8-34.2L55.2,243.1z"/>
				</g>
				<g>
					<path class="st3" d="M117.5,290.4c0,3.6-0.9,6.7-2.7,9.5c-1.8,2.8-4.4,4.9-7.8,6.4c-3.4,1.5-7.4,2.3-12,2.3
						c-3.8,0-7-0.3-9.6-0.8c-2.6-0.5-5.3-1.5-8.1-2.8v-13.8c3,1.5,6,2.7,9.2,3.6c3.2,0.9,6.1,1.3,8.8,1.3c2.3,0,4-0.4,5.1-1.2
						c1.1-0.8,1.6-1.8,1.6-3.1c0-0.8-0.2-1.5-0.6-2.1c-0.4-0.6-1.1-1.2-2.1-1.8c-1-0.6-3.5-1.8-7.6-3.7c-3.7-1.7-6.6-3.4-8.4-5
						c-1.9-1.6-3.3-3.4-4.2-5.5c-0.9-2.1-1.4-4.5-1.4-7.3c0-5.3,1.9-9.4,5.8-12.4c3.9-3,9.1-4.4,15.9-4.4c5.9,0,12,1.4,18.2,4.1
						l-4.8,12c-5.4-2.5-10-3.7-13.9-3.7c-2,0-3.5,0.4-4.4,1.1c-0.9,0.7-1.4,1.6-1.4,2.6c0,1.1,0.6,2.1,1.7,3
						c1.2,0.9,4.3,2.5,9.5,4.9c5,2.2,8.4,4.6,10.3,7.2C116.6,283.3,117.5,286.5,117.5,290.4z"/>
					<path class="st3" d="M164,290.4c0,3.6-0.9,6.7-2.7,9.5c-1.8,2.8-4.4,4.9-7.8,6.4c-3.4,1.5-7.4,2.3-12,2.3c-3.8,0-7-0.3-9.6-0.8
						c-2.6-0.5-5.3-1.5-8.1-2.8v-13.8c3,1.5,6,2.7,9.2,3.6c3.2,0.9,6.1,1.3,8.8,1.3c2.3,0,4-0.4,5.1-1.2c1.1-0.8,1.6-1.8,1.6-3.1
						c0-0.8-0.2-1.5-0.6-2.1c-0.4-0.6-1.1-1.2-2.1-1.8c-1-0.6-3.5-1.8-7.6-3.7c-3.7-1.7-6.6-3.4-8.4-5c-1.9-1.6-3.3-3.4-4.2-5.5
						c-0.9-2.1-1.4-4.5-1.4-7.3c0-5.3,1.9-9.4,5.8-12.4c3.9-3,9.1-4.4,15.9-4.4c5.9,0,12,1.4,18.2,4.1l-4.8,12
						c-5.4-2.5-10-3.7-13.9-3.7c-2,0-3.5,0.4-4.4,1.1c-0.9,0.7-1.4,1.6-1.4,2.6c0,1.1,0.6,2.1,1.7,3c1.2,0.9,4.3,2.5,9.5,4.9
						c5,2.2,8.4,4.6,10.3,7.2C163,283.3,164,286.5,164,290.4z"/>
					<path class="st3" d="M172.9,307.8v-57.5h15.5v44.9h22.1v12.5H172.9z"/>
				</g>
				<g>
					<g>
						<g>
							<g>
								<polygon class="st3" points="135.3,378.1 107.5,350.3 120.8,337 135.3,351.5 171.4,315.5 184.7,328.8 								"/>
							</g>
						</g>
					</g>
				</g>
			</g>
			<g>
				<g>
					<path class="st3" d="M568.3,250.5v171.6c0,5.8-4.7,10.5-10.5,10.5H262.3c-5.8,0-10.5-4.7-10.5-10.5V250.5
						c0-5.8,4.7-10.5,10.5-10.5h295.5C563.6,240,568.3,244.7,568.3,250.5z"/>
				</g>
				<g>
					<g>
						<path class="st4" d="M568.3,249.7v7.4l-316.5,0v-7.4c0-5.4,4.3-9.7,9.7-9.7l297.1,0C563.9,240,568.3,244.3,568.3,249.7z"/>
					</g>
				</g>
				<g>
					<g>
						<path class="st1" d="M552.5,250.8h-19.7c-0.9,0-1.6-0.7-1.6-1.6v-1.3c0-0.9,0.7-1.6,1.6-1.6h19.7c0.9,0,1.6,0.7,1.6,1.6v1.3
							C554.1,250,553.3,250.8,552.5,250.8z"/>
					</g>
				</g>
				<g>
					<g>
						<path class="st0" d="M522.1,251.1h-19.7c-0.9,0-1.6-0.7-1.6-1.6v-1.3c0-0.9,0.7-1.6,1.6-1.6h19.7c0.9,0,1.6,0.7,1.6,1.6v1.3
							C523.7,250.4,523,251.1,522.1,251.1z"/>
					</g>
				</g>
				<g>
					<g>
						<path class="st2" d="M491.8,251.1h-19.7c-0.9,0-1.6-0.7-1.6-1.6v-1.3c0-0.9,0.7-1.6,1.6-1.6h19.7c0.9,0,1.6,0.7,1.6,1.6v1.3
							C493.4,250.4,492.7,251.1,491.8,251.1z"/>
					</g>
				</g>
				<g>
					<g>
						<path class="st0" d="M545.8,389c0,0.9-0.4,1.8-1.2,2.4c-0.7,0.6-1.7,1-2.8,1H415c-2.2,0-4-1.5-4-3.4c0-0.9,0.5-1.8,1.2-2.4
							c0.7-0.6,1.7-1,2.9-1h126.8C544,385.5,545.8,387.1,545.8,389z"/>
					</g>
					<g>
						<path class="st0" d="M410.9,369.4c0-0.9,0.5-1.8,1.2-2.4c0.7-0.6,1.7-1,2.8-1h126.7c2.2,0,4,1.5,4,3.4c0,0.9-0.5,1.8-1.2,2.4
							c-0.7,0.6-1.7,1-2.8,1H414.9C412.7,372.8,410.9,371.3,410.9,369.4z"/>
					</g>
					<g>
						<path class="st0" d="M545.7,329.4c0,0.9-0.3,1.8-0.7,2.4c-0.4,0.6-1,1-1.6,1H413.5c-1.3,0-2.3-1.5-2.3-3.4
							c0-0.9,0.3-1.8,0.7-2.4c0.4-0.6,1-1,1.6-1h129.9C544.7,326,545.7,327.5,545.7,329.4z"/>
					</g>
					<g>
						<path class="st0" d="M411.2,290.7c0-0.9,0.3-1.8,0.7-2.4c0.4-0.6,1-1,1.6-1h129.9c1.3,0,2.3,1.5,2.3,3.4
							c0,0.9-0.3,1.8-0.7,2.4c-0.4,0.6-1,1-1.6,1H413.5C412.2,294.1,411.2,292.6,411.2,290.7z"/>
					</g>
					<g>
						<path class="st0" d="M481.9,408.1c0,0.9-0.2,1.8-0.5,2.4c-0.3,0.6-0.8,1-1.3,1h-67.5c-1,0-1.8-1.5-1.8-3.4
							c0-0.9,0.2-1.8,0.5-2.4c0.3-0.6,0.8-1,1.3-1h67.5C481.1,404.7,481.9,406.2,481.9,408.1z"/>
					</g>
					<g>
						<path class="st0" d="M545.7,310.3c0,0.9-0.3,1.8-0.7,2.4c-0.4,0.6-1,1-1.6,1H413.5c-1.3,0-2.3-1.5-2.3-3.4
							c0-0.9,0.3-1.8,0.7-2.4c0.4-0.6,1-1,1.6-1h129.9C544.7,306.8,545.7,308.4,545.7,310.3z"/>
					</g>
					<g>
						<path class="st0" d="M545.8,350.2c0,0.9-0.4,1.8-1.2,2.4c-0.7,0.6-1.7,1-2.8,1H415c-2.2,0-4-1.5-4-3.4c0-0.9,0.5-1.8,1.2-2.4
							c0.7-0.6,1.7-1,2.9-1h126.7C544,346.8,545.8,348.4,545.8,350.2z"/>
					</g>
					<g>
						<path class="st0" d="M411.2,271.5c0-0.9,0.3-1.8,0.7-2.4c0.4-0.6,1-1,1.6-1h129.9c1.3,0,2.3,1.5,2.3,3.4
							c0,0.9-0.3,1.8-0.7,2.4c-0.4,0.6-1,1-1.6,1H413.5C412.3,275,411.2,273.4,411.2,271.5z"/>
					</g>
				</g>
				<g>
					<g>
						<path class="st4" d="M398.8,282.3v120.9c0,6.8-5.1,12.3-11.4,12.3H275.3c-6.3,0-11.4-5.5-11.4-12.3V282.3
							c0-6.8,5.1-12.3,11.4-12.3h112.1C393.7,270,398.8,275.5,398.8,282.3z"/>
					</g>
				</g>
				<g>
					<g>
						<path class="st0" d="M375.5,325.9v72.4c0,2.8-2.3,5.2-5.1,5.2h-80.5c-2.8,0-5.1-2.3-5.1-5.2v-72.4c0-2.8,2.3-5.2,5.1-5.2h80.5
							C373.2,320.8,375.5,323.1,375.5,325.9z"/>
					</g>
					<g>
						<g>
							<path class="st0" d="M364.3,320.7h-10.8v-9.1c0-13.6-11-24.6-24.6-24.6s-24.6,11-24.6,24.6v9.1h-10.8v-9.1
								c0-19.5,15.9-35.5,35.5-35.5s35.5,15.9,35.5,35.5V320.7z"/>
						</g>
					</g>
					<g>
						<path class="st2" d="M338,385.9h-23.8c-1.5,0-3-0.7-4-1.9s-1.3-2.8-0.9-4.3l4.4-18.4c-3.2-3.5-4.7-8-4.3-12.8
							c0.7-7.7,6.8-14.1,14.5-15c4.8-0.6,9.6,0.9,13.2,4.1c3.6,3.2,5.7,7.8,5.7,12.6c0,4.2-1.5,8.1-4.4,11.2l4.4,18.4
							c0.4,1.5,0,3.1-0.9,4.3C341,385.2,339.5,385.9,338,385.9z M326.1,334.3c-0.7,0-1.3,0-2,0.1c-7.3,0.9-13,6.9-13.7,14.1
							c-0.4,4.6,1.1,8.9,4.2,12.3l0.2,0.2l-4.5,18.9c-0.3,1.2,0,2.5,0.8,3.4c0.8,1,1.9,1.5,3.2,1.5H338c1.2,0,2.4-0.6,3.2-1.5
							s1-2.2,0.8-3.4l-4.5-18.9l0.2-0.2c2.8-2.9,4.3-6.8,4.3-10.8c0-4.5-1.9-8.8-5.3-11.8C333.6,335.7,329.9,334.3,326.1,334.3z"/>
					</g>
					<g>
						<rect x="364.7" y="326.2" class="st2" width="1" height="73.1"/>
					</g>
				</g>
			</g>
			<g>
				<g>
					<path class="st4" d="M605.2,206.2v7.9c0,7.2-5.9,13-13,13H264.8c-7.2,0-13-5.9-13-13v-7.9c0-7.2,5.9-13,13-13h327.3
						C599.3,193.1,605.2,199,605.2,206.2z"/>
				</g>
				<g>
					<g>
						<path class="st1" d="M335.8,219h-3.1v-8.9c0-1.1-0.2-2-0.7-2.5c-0.4-0.5-1.2-0.8-2.1-0.8c-1.3,0-2.2,0.4-2.8,1.2
							c-0.6,0.8-0.9,2.1-0.9,3.9v7.2h-3.1v-20.4h3.1v5.2c0,0.8-0.1,1.7-0.2,2.7h0.2c0.4-0.7,1-1.2,1.7-1.6c0.7-0.4,1.6-0.6,2.6-0.6
							c3.5,0,5.3,1.8,5.3,5.3V219z"/>
					</g>
					<g>
						<path class="st1" d="M345.5,216.8c0.8,0,1.5-0.1,2.3-0.4v2.3c-0.3,0.1-0.8,0.3-1.3,0.4c-0.5,0.1-1.1,0.2-1.7,0.2
							c-2.9,0-4.4-1.5-4.4-4.6v-7.8h-2v-1.4l2.1-1.1l1-3.1h1.9v3.2h4.1v2.3h-4.1v7.7c0,0.7,0.2,1.3,0.6,1.6
							C344.4,216.6,344.9,216.8,345.5,216.8z"/>
					</g>
					<g>
						<path class="st1" d="M356,216.8c0.8,0,1.5-0.1,2.3-0.4v2.3c-0.3,0.1-0.8,0.3-1.3,0.4c-0.5,0.1-1.1,0.2-1.7,0.2
							c-2.9,0-4.4-1.5-4.4-4.6v-7.8h-2v-1.4l2.1-1.1l1-3.1h1.9v3.2h4.1v2.3H354v7.7c0,0.7,0.2,1.3,0.6,1.6
							C354.9,216.6,355.4,216.8,356,216.8z"/>
					</g>
					<g>
						<path class="st1" d="M368.5,219.3c-1.8,0-3.3-0.7-4.3-2H364c0.1,1.2,0.2,2,0.2,2.2v5.9h-3.1v-20.9h2.5
							c0.1,0.3,0.2,0.9,0.4,1.9h0.2c1-1.5,2.4-2.2,4.3-2.2c1.8,0,3.2,0.7,4.2,2c1,1.3,1.5,3.1,1.5,5.5s-0.5,4.2-1.5,5.5
							C371.7,218.6,370.3,219.3,368.5,219.3z M367.8,206.8c-1.2,0-2.1,0.4-2.7,1.1c-0.6,0.7-0.8,1.9-0.8,3.4v0.5
							c0,1.8,0.3,3,0.8,3.8c0.6,0.8,1.5,1.2,2.7,1.2c1.1,0,1.9-0.4,2.5-1.3c0.6-0.9,0.9-2.1,0.9-3.7c0-1.6-0.3-2.9-0.9-3.7
							C369.7,207.2,368.9,206.8,367.8,206.8z"/>
					</g>
					<g>
						<path class="st1" d="M387.6,214.9c0,1.4-0.5,2.5-1.5,3.3c-1,0.8-2.5,1.1-4.4,1.1c-1.9,0-3.5-0.3-4.6-0.9v-2.7
							c1.7,0.8,3.3,1.2,4.8,1.2c1.9,0,2.8-0.6,2.8-1.7c0-0.4-0.1-0.7-0.3-0.9c-0.2-0.2-0.6-0.5-1-0.8s-1.1-0.6-2-0.9
							c-1.7-0.6-2.8-1.3-3.4-1.9c-0.6-0.6-0.9-1.5-0.9-2.5c0-1.2,0.5-2.2,1.5-2.9s2.4-1,4.1-1c1.7,0,3.3,0.3,4.8,1l-1,2.3
							c-1.6-0.6-2.9-1-3.9-1c-1.6,0-2.4,0.5-2.4,1.4c0,0.5,0.2,0.8,0.6,1.2c0.4,0.3,1.3,0.7,2.8,1.3c1.2,0.5,2.1,0.9,2.6,1.3
							c0.5,0.4,0.9,0.8,1.2,1.3C387.5,213.6,387.6,214.2,387.6,214.9z"/>
					</g>
					<g>
						<path class="st1" d="M390.4,206.2c0-1.3,0.6-2,1.9-2c0.7,0,1.1,0.2,1.5,0.5c0.3,0.3,0.5,0.8,0.5,1.5c0,0.6-0.2,1.1-0.5,1.5
							c-0.3,0.4-0.8,0.5-1.4,0.5s-1.1-0.2-1.4-0.5S390.4,206.8,390.4,206.2z M390.4,217.4c0-0.6,0.2-1.1,0.5-1.5
							c0.3-0.3,0.8-0.5,1.4-0.5c0.6,0,1.1,0.2,1.5,0.5s0.5,0.8,0.5,1.4c0,0.6-0.2,1.1-0.5,1.5s-0.8,0.5-1.4,0.5s-1.1-0.2-1.4-0.5
							C390.6,218.5,390.4,218,390.4,217.4z"/>
					</g>
					<g>
						<path class="st1" d="M406.3,199.9l-7.1,19.1h-2.9l7.1-19.1H406.3z"/>
					</g>
					<g>
						<path class="st1" d="M416.8,199.9l-7.1,19.1h-2.9l7.1-19.1H416.8z"/>
					</g>
				</g>
				<g>
					<path class="st3" d="M315.1,206v8.1c0,5.4-4.4,9.8-9.8,9.8h-40c-5.4,0-9.8-4.4-9.8-9.8V206c0-5.4,4.4-9.8,9.8-9.8h40
						C310.7,196.2,315.1,200.6,315.1,206z"/>
				</g>
			</g>
		</g>
		<g>
			<g>
				<g>
					<g>
						<g>
							<g>
								<g>
									<path class="st1" d="M241.6,119.9L241.6,119.9c-0.2,0-0.3-0.1-0.4-0.3l-7.7-13.4c-0.1-0.2-0.1-0.3,0-0.5l7.7-13.4
										c0.1-0.2,0.3-0.3,0.4-0.3l0,0c0.2,0,0.3,0.1,0.4,0.3l7.8,13.4c0.1,0.2,0.1,0.4,0,0.5l-7.8,13.4
										C242,119.8,241.8,119.9,241.6,119.9z M234.4,106l7.2,12.4l7.2-12.4l-7.2-12.4L234.4,106z"/>
								</g>
							</g>
						</g>
					</g>
					<g>
						<g>
							<g>
								<g>
									<path class="st1" d="M224.1,102.3c-2.4,0-4.4-2-4.4-4.4s2-4.4,4.4-4.4s4.4,2,4.4,4.4S226.5,102.3,224.1,102.3z M224.1,94.6
										c-1.8,0-3.4,1.5-3.4,3.4s1.5,3.4,3.4,3.4s3.4-1.5,3.4-3.4S225.9,94.6,224.1,94.6z"/>
								</g>
							</g>
						</g>
					</g>
					<g>
						<g>
							<g>
								<g>
									<path class="st1" d="M237.8,85.1c-2.1,0-3.8-1.7-3.8-3.8s1.7-3.8,3.8-3.8c2.1,0,3.8,1.7,3.8,3.8S239.9,85.1,237.8,85.1z
										 M237.8,78.6c-1.5,0-2.8,1.2-2.8,2.8s1.2,2.8,2.8,2.8c1.5,0,2.8-1.2,2.8-2.8S239.4,78.6,237.8,78.6z"/>
								</g>
							</g>
						</g>
					</g>
					<g>
						<g>
							<g>
								<g>
									<path class="st1" d="M220.2,87c-1.5,0-2.7-1.2-2.7-2.7c0-1.5,1.2-2.7,2.7-2.7s2.7,1.2,2.7,2.7
										C222.9,85.8,221.7,87,220.2,87z M220.2,82.6c-0.9,0-1.7,0.8-1.7,1.7c0,0.9,0.8,1.7,1.7,1.7c0.9,0,1.7-0.8,1.7-1.7
										C221.9,83.3,221.1,82.6,220.2,82.6z"/>
								</g>
							</g>
						</g>
					</g>
				</g>
				<g>
					<g>
						<g>
							<g>
								<g>
									<path class="st1" d="M603.5,305.6L603.5,305.6c-0.2,0-0.3-0.1-0.4-0.3l-5.9-10.3c-0.1-0.2-0.1-0.3,0-0.5l5.9-10.3
										c0.1-0.2,0.3-0.3,0.4-0.3l0,0c0.2,0,0.3,0.1,0.4,0.3l5.9,10.3c0.1,0.2,0.1,0.4,0,0.5l-5.9,10.3
										C603.9,305.5,603.7,305.6,603.5,305.6z M598.2,294.9l5.3,9.2l5.4-9.2l-5.4-9.2L598.2,294.9z"/>
								</g>
							</g>
						</g>
					</g>
					<g>
						<g>
							<g>
								<g>
									<path class="st1" d="M589.5,290.2c-2.4,0-4.4-2-4.4-4.4c0-2.4,2-4.4,4.4-4.4s4.4,2,4.4,4.4
										C593.9,288.3,591.9,290.2,589.5,290.2z M589.5,282.5c-1.8,0-3.4,1.5-3.4,3.4c0,1.8,1.5,3.4,3.4,3.4c1.8,0,3.4-1.5,3.4-3.4
										C592.8,284,591.3,282.5,589.5,282.5z"/>
								</g>
							</g>
						</g>
					</g>
					<g>
						<g>
							<g>
								<g>
									<path class="st1" d="M603.3,278.7c-2.1,0-3.8-1.7-3.8-3.8s1.7-3.8,3.8-3.8c2.1,0,3.8,1.7,3.8,3.8S605.4,278.7,603.3,278.7z
										 M603.3,272.1c-1.5,0-2.8,1.2-2.8,2.8s1.2,2.8,2.8,2.8c1.5,0,2.8-1.2,2.8-2.8S604.8,272.1,603.3,272.1z"/>
								</g>
							</g>
						</g>
					</g>
					<g>
						<g>
							<g>
								<g>
									<path class="st1" d="M589.5,274.3c-1.5,0-2.7-1.2-2.7-2.7c0-1.5,1.2-2.7,2.7-2.7s2.7,1.2,2.7,2.7
										C592.2,273.1,591,274.3,589.5,274.3z M589.5,269.9c-0.9,0-1.7,0.8-1.7,1.7c0,0.9,0.8,1.7,1.7,1.7s1.7-0.8,1.7-1.7
										C591.2,270.7,590.4,269.9,589.5,269.9z"/>
								</g>
							</g>
						</g>
					</g>
				</g>
				<g>
					<g>
						<g>
							<g>
								<g>
									<path class="st5" d="M225.6,426.5L225.6,426.5c-0.2,0-0.3-0.1-0.4-0.3l-5.9-10.3c-0.1-0.2-0.1-0.3,0-0.5l5.9-10.3
										c0.1-0.2,0.3-0.3,0.4-0.3l0,0c0.2,0,0.3,0.1,0.4,0.3l5.9,10.3c0.1,0.2,0.1,0.4,0,0.5l-5.9,10.3
										C226,426.4,225.8,426.5,225.6,426.5z M220.3,415.7l5.3,9.2l5.4-9.2l-5.4-9.2L220.3,415.7z"/>
								</g>
							</g>
						</g>
					</g>
					<g>
						<g>
							<g>
								<g>
									<path class="st5" d="M211.6,411.1c-2.4,0-4.4-2-4.4-4.4s2-4.4,4.4-4.4c2.4,0,4.4,2,4.4,4.4S214,411.1,211.6,411.1z
										 M211.6,403.4c-1.8,0-3.4,1.5-3.4,3.4s1.5,3.4,3.4,3.4s3.4-1.5,3.4-3.4S213.4,403.4,211.6,403.4z"/>
								</g>
							</g>
						</g>
					</g>
					<g>
						<g>
							<g>
								<g>
									<path class="st5" d="M225.4,399.5c-2.1,0-3.8-1.7-3.8-3.8s1.7-3.8,3.8-3.8c2.1,0,3.8,1.7,3.8,3.8S227.5,399.5,225.4,399.5z
										 M225.4,393c-1.5,0-2.8,1.2-2.8,2.8s1.2,2.8,2.8,2.8c1.5,0,2.8-1.2,2.8-2.8S226.9,393,225.4,393z"/>
								</g>
							</g>
						</g>
					</g>
					<g>
						<g>
							<g>
								<g>
									<path class="st5" d="M211.6,395.2c-1.5,0-2.7-1.2-2.7-2.7c0-1.5,1.2-2.7,2.7-2.7s2.7,1.2,2.7,2.7
										C214.3,394,213.1,395.2,211.6,395.2z M211.6,390.8c-0.9,0-1.7,0.8-1.7,1.7c0,0.9,0.8,1.7,1.7,1.7c0.9,0,1.7-0.8,1.7-1.7
										C213.3,391.5,212.5,390.8,211.6,390.8z"/>
								</g>
							</g>
						</g>
					</g>
				</g>
			</g>
			<g>
				<path class="st2" d="M72.6,221.3c-0.3,0-0.5-0.2-0.5-0.5v-6.5c0-0.3,0.2-0.5,0.5-0.5s0.5,0.2,0.5,0.5v6.5
					C73.1,221.1,72.9,221.3,72.6,221.3z M72.6,208.3c-0.3,0-0.5-0.2-0.5-0.5v-6.5c0-0.3,0.2-0.5,0.5-0.5s0.5,0.2,0.5,0.5v6.5
					C73.1,208.1,72.9,208.3,72.6,208.3z M72.6,195.3c-0.3,0-0.5-0.2-0.5-0.5v-6.5c0-0.3,0.2-0.5,0.5-0.5s0.5,0.2,0.5,0.5v6.5
					C73.1,195,72.9,195.3,72.6,195.3z M72.6,182.2c-0.3,0-0.5-0.2-0.5-0.5v-6.5c0-0.3,0.2-0.5,0.5-0.5s0.5,0.2,0.5,0.5v6.5
					C73.1,182,72.9,182.2,72.6,182.2z M72.6,169.2c-0.3,0-0.5-0.2-0.5-0.5v-6.5c0-0.3,0.2-0.5,0.5-0.5s0.5,0.2,0.5,0.5v6.5
					C73.1,169,72.9,169.2,72.6,169.2z M72.9,156.2C72.8,156.2,72.8,156.2,72.9,156.2c-0.3,0-0.5-0.3-0.5-0.6
					c0.3-2.2,0.7-4.4,1.4-6.4c0.1-0.3,0.4-0.4,0.6-0.3c0.3,0.1,0.4,0.4,0.3,0.6c-0.6,2-1.1,4.1-1.3,6.3
					C73.3,156,73.1,156.2,72.9,156.2z M76.7,143.8c-0.1,0-0.2,0-0.2-0.1c-0.2-0.1-0.3-0.4-0.2-0.7c1-1.9,2.2-3.8,3.6-5.5
					c0.2-0.2,0.5-0.3,0.7-0.1c0.2,0.2,0.3,0.5,0.1,0.7c-1.3,1.7-2.5,3.5-3.5,5.4C77.1,143.7,76.9,143.8,76.7,143.8z M84.7,133.7
					c-0.1,0-0.3-0.1-0.4-0.2c-0.2-0.2-0.2-0.5,0-0.7c1.7-1.5,3.4-2.8,5.3-3.9c0.2-0.1,0.5-0.1,0.7,0.2c0.1,0.2,0.1,0.5-0.2,0.7
					c-1.8,1.1-3.6,2.4-5.2,3.8C85,133.6,84.9,133.7,84.7,133.7z M95.9,127.1c-0.2,0-0.4-0.1-0.5-0.3c-0.1-0.3,0-0.5,0.3-0.6
					c2.1-0.8,4.2-1.3,6.4-1.7c0.3,0,0.5,0.1,0.6,0.4c0,0.3-0.1,0.5-0.4,0.6c-2.1,0.4-4.2,0.9-6.2,1.7C96,127,95.9,127.1,95.9,127.1z
					 M278.9,124.8h-1c-0.3,0-0.5-0.2-0.5-0.5s0.2-0.5,0.5-0.5h1c0.3,0,0.5,0.2,0.5,0.5S279.2,124.8,278.9,124.8z M271.4,124.8h-6.5
					c-0.3,0-0.5-0.2-0.5-0.5s0.2-0.5,0.5-0.5h6.5c0.3,0,0.5,0.2,0.5,0.5S271.7,124.8,271.4,124.8z M258.4,124.8h-6.5
					c-0.3,0-0.5-0.2-0.5-0.5s0.2-0.5,0.5-0.5h6.5c0.3,0,0.5,0.2,0.5,0.5S258.6,124.8,258.4,124.8z M245.3,124.8h-6.5
					c-0.3,0-0.5-0.2-0.5-0.5s0.2-0.5,0.5-0.5h6.5c0.3,0,0.5,0.2,0.5,0.5S245.6,124.8,245.3,124.8z M232.3,124.8h-6.5
					c-0.3,0-0.5-0.2-0.5-0.5s0.2-0.5,0.5-0.5h6.5c0.3,0,0.5,0.2,0.5,0.5S232.6,124.8,232.3,124.8z M219.3,124.8h-6.5
					c-0.3,0-0.5-0.2-0.5-0.5s0.2-0.5,0.5-0.5h6.5c0.3,0,0.5,0.2,0.5,0.5S219.6,124.8,219.3,124.8z M206.3,124.8h-6.5
					c-0.3,0-0.5-0.2-0.5-0.5s0.2-0.5,0.5-0.5h6.5c0.3,0,0.5,0.2,0.5,0.5S206.5,124.8,206.3,124.8z M193.3,124.8h-6.5
					c-0.3,0-0.5-0.2-0.5-0.5s0.2-0.5,0.5-0.5h6.5c0.3,0,0.5,0.2,0.5,0.5S193.5,124.8,193.3,124.8z M180.2,124.8h-6.5
					c-0.3,0-0.5-0.2-0.5-0.5s0.2-0.5,0.5-0.5h6.5c0.3,0,0.5,0.2,0.5,0.5S180.5,124.8,180.2,124.8z M167.2,124.8h-6.5
					c-0.3,0-0.5-0.2-0.5-0.5s0.2-0.5,0.5-0.5h6.5c0.3,0,0.5,0.2,0.5,0.5S167.5,124.8,167.2,124.8z M154.2,124.8h-6.5
					c-0.3,0-0.5-0.2-0.5-0.5s0.2-0.5,0.5-0.5h6.5c0.3,0,0.5,0.2,0.5,0.5S154.5,124.8,154.2,124.8z M141.2,124.8h-6.5
					c-0.3,0-0.5-0.2-0.5-0.5s0.2-0.5,0.5-0.5h6.5c0.3,0,0.5,0.2,0.5,0.5S141.4,124.8,141.2,124.8z M128.1,124.8h-6.5
					c-0.3,0-0.5-0.2-0.5-0.5s0.2-0.5,0.5-0.5h6.5c0.3,0,0.5,0.2,0.5,0.5S128.4,124.8,128.1,124.8z M115.1,124.8h-6.5
					c-0.3,0-0.5-0.2-0.5-0.5s0.2-0.5,0.5-0.5h6.5c0.3,0,0.5,0.2,0.5,0.5S115.4,124.8,115.1,124.8z"/>
			</g>
		</g>
		<g>
			<g>
				<g>
					<g>
						<path class="st2" d="M380.4,154.2c-0.8,2.1-2.3,3.8-4.2,4.7c-1.9,0.9-4.2,1.1-6.3,0.4l-18.4-6.5c-4.3-1.5-6.6-6.3-5.1-10.6
							c0.8-2.1,2.3-3.8,4.2-4.7c1.9-0.9,4.2-1.1,6.3-0.4l18.4,6.5C379.7,145.2,381.9,149.9,380.4,154.2z"/>
					</g>
				</g>
				<g>
					<g>
						<path class="st2" d="M306.6,163.5c-1.9,0-3.7-0.8-5-2c-1.3-1.3-2.1-3-2.1-4.9l-0.1-16.5c0-3.9,3.1-7,7-7.1c1.9,0,3.7,0.8,5,2
							c1.3,1.3,2.1,3,2.1,4.9l0.1,16.5C313.6,160.3,310.5,163.5,306.6,163.5z"/>
					</g>
				</g>
				<g>
					<g>
						<path class="st2" d="M321,166c-2.3,0-4.3-0.9-5.8-2.4c-1.5-1.5-2.5-3.6-2.5-5.8l-0.1-19.5c0-4.6,3.7-8.3,8.2-8.3
							c2.3,0,4.3,0.9,5.9,2.4c1.5,1.5,2.4,3.6,2.5,5.8l0.1,19.5C329.2,162.2,325.5,165.9,321,166z"/>
					</g>
				</g>
				<g>
					<g>
						<path class="st2" d="M337.5,165.9c-2.3,0-4.3-0.9-5.9-2.4c-1.5-1.5-2.5-3.6-2.5-5.8l-0.1-19.5c0-4.6,3.7-8.3,8.2-8.3
							c2.3,0,4.3,0.9,5.8,2.4c1.5,1.5,2.5,3.6,2.5,5.8l0.1,19.5C345.8,162.1,342.1,165.8,337.5,165.9z"/>
					</g>
				</g>
				<g>
					<g>
						<path class="st2" d="M354,165.5c-2.3,0-4.3-1-5.9-2.8c-1.5-1.7-2.5-4.1-2.5-6.7l-0.1-16.7c0-5.3,3.7-9.6,8.2-9.6
							c2.3,0,4.3,1,5.9,2.8c1.5,1.7,2.5,4.1,2.5,6.7l0.1,16.7C362.3,161.2,358.6,165.5,354,165.5z"/>
					</g>
				</g>
				<g>
					<rect x="312" y="136.7" class="st5" width="1" height="22.3"/>
				</g>
				<g>
					
						<rect x="328.6" y="137.5" transform="matrix(1 -4.742723e-03 4.742723e-03 1 -0.6961 1.5627)" class="st5" width="1" height="20.2"/>
				</g>
				<g>
					<rect x="345.1" y="138.5" class="st5" width="1" height="18.1"/>
				</g>
				<g>
					
						<rect x="353.9" y="146.8" transform="matrix(2.635803e-02 -0.9997 0.9997 2.635803e-02 205.2007 505.1899)" class="st5" width="16.1" height="1"/>
				</g>
			</g>
			<g>
				<g>
					<g>
						<path class="st2" d="M494.4,154.2c0.8,2.1,2.3,3.8,4.2,4.7c1.9,0.9,4.2,1.1,6.3,0.4l18.4-6.5c4.3-1.5,6.6-6.3,5.1-10.6
							c-0.8-2.1-2.3-3.8-4.2-4.7c-1.9-0.9-4.2-1.1-6.3-0.4l-18.4,6.5C495.2,145.2,492.9,149.9,494.4,154.2z"/>
					</g>
				</g>
				<g>
					<g>
						<path class="st2" d="M568.2,163.5c1.9,0,3.7-0.8,5-2c1.3-1.3,2.1-3,2.1-4.9l0.1-16.5c0-3.9-3.1-7-7-7.1c-1.9,0-3.7,0.8-5,2
							c-1.3,1.3-2.1,3-2.1,4.9l-0.1,16.5C561.2,160.3,564.3,163.5,568.2,163.5z"/>
					</g>
				</g>
				<g>
					<g>
						<path class="st2" d="M553.9,166c2.3,0,4.3-0.9,5.8-2.4c1.5-1.5,2.5-3.6,2.5-5.8l0.1-19.5c0-4.6-3.7-8.3-8.2-8.3
							c-2.3,0-4.3,0.9-5.9,2.4c-1.5,1.5-2.4,3.6-2.5,5.8l-0.1,19.5C545.6,162.2,549.3,165.9,553.9,166z"/>
					</g>
				</g>
				<g>
					<g>
						<path class="st2" d="M537.3,165.9c2.3,0,4.3-0.9,5.9-2.4c1.5-1.5,2.5-3.6,2.5-5.8l0.1-19.5c0-4.6-3.7-8.3-8.2-8.3
							c-2.3,0-4.3,0.9-5.8,2.4c-1.5,1.5-2.5,3.6-2.5,5.8l-0.1,19.5C529.1,162.1,532.8,165.8,537.3,165.9z"/>
					</g>
				</g>
				<g>
					<g>
						<path class="st2" d="M520.8,165.5c2.3,0,4.3-1,5.9-2.8c1.5-1.7,2.5-4.1,2.5-6.7l0.1-16.7c0-5.3-3.7-9.6-8.2-9.6
							c-2.3,0-4.3,1-5.9,2.8c-1.5,1.7-2.5,4.1-2.5,6.7l-0.1,16.7C512.5,161.2,516.2,165.5,520.8,165.5z"/>
					</g>
				</g>
				<g>
					<rect x="561.8" y="136.7" class="st5" width="1" height="22.3"/>
				</g>
				<g>
					
						<rect x="535.6" y="147" transform="matrix(4.882754e-03 -1 1 4.882754e-03 395.4872 692.5148)" class="st5" width="20.2" height="1"/>
				</g>
				<g>
					
						<rect x="528.7" y="138.5" transform="matrix(1 -1.296280e-03 1.296280e-03 1 -0.1909 0.6861)" class="st5" width="1" height="18.1"/>
				</g>
				<g>
					
						<rect x="512.4" y="139.2" transform="matrix(0.9996 -2.649606e-02 2.649606e-02 0.9996 -3.7216 13.6413)" class="st5" width="1" height="16.1"/>
				</g>
			</g>
		</g>
	</g>
</g>
</svg>
