<svg xmlns="http://www.w3.org/2000/svg" viewBox="0 0 117.64 19.9"><defs><style>.cls-1{fill:#4a1615;}</style></defs><g id="Layer_2" data-name="Layer 2"><g id="Layer_1-2" data-name="Layer 1"><polygon class="cls-1" points="29.88 13.44 19.51 0.43 16.51 0.43 16.51 19.47 20 19.47 20 6.46 30.36 19.47 33.35 19.47 33.35 0.43 29.88 0.43 29.88 13.44"/><path class="cls-1" d="M52.38,2.88a9.13,9.13,0,0,0-3.19-1.83,12.37,12.37,0,0,0-4-.62H37.78v19h7.45a12.36,12.36,0,0,0,4.28-.69,8.84,8.84,0,0,0,3.15-2,8.18,8.18,0,0,0,1.94-3,11,11,0,0,0,.66-3.89,10.14,10.14,0,0,0-.77-4.06A8.49,8.49,0,0,0,52.38,2.88Zm-1.06,9.83a5.49,5.49,0,0,1-1.28,2A5.64,5.64,0,0,1,48,16a8.49,8.49,0,0,1-2.83.44H41.28v-13h3.84A8.32,8.32,0,0,1,48,3.91a5.7,5.7,0,0,1,2.08,1.34,5.46,5.46,0,0,1,1.23,2.07,8.32,8.32,0,0,1,.4,2.67A7.88,7.88,0,0,1,51.32,12.71Z"/><path class="cls-1" d="M77.3,4.9a9.79,9.79,0,0,0-1.62-2,10.59,10.59,0,0,0-2.09-1.55,10.22,10.22,0,0,0-2.46-1A10.83,10.83,0,0,0,68.39,0a10.72,10.72,0,0,0-2.74.35,10.22,10.22,0,0,0-2.46,1A10.59,10.59,0,0,0,61.1,2.89a9.42,9.42,0,0,0-1.61,2,10.35,10.35,0,0,0-1,2.38,9.75,9.75,0,0,0,0,5.32,10.16,10.16,0,0,0,1,2.38,9.42,9.42,0,0,0,1.61,2,11,11,0,0,0,2.09,1.56,10.49,10.49,0,0,0,5.2,1.35,10.83,10.83,0,0,0,2.74-.35,10.67,10.67,0,0,0,2.46-1A11,11,0,0,0,75.68,17a9.79,9.79,0,0,0,1.62-2,10.16,10.16,0,0,0,1-2.38,9.34,9.34,0,0,0,.37-2.66,9.39,9.39,0,0,0-.37-2.66A10.35,10.35,0,0,0,77.3,4.9Zm-2.61,7.79a6.8,6.8,0,0,1-3.63,3.67,6.8,6.8,0,0,1-2.67.53,6.71,6.71,0,0,1-2.65-.53,6.8,6.8,0,0,1-3.63-3.67A6.86,6.86,0,0,1,61.57,10a7,7,0,0,1,2-5,6.87,6.87,0,0,1,7.49-1.47A6.56,6.56,0,0,1,73.23,5a6.66,6.66,0,0,1,1.46,2.2A7,7,0,0,1,75.22,10,6.85,6.85,0,0,1,74.69,12.69Z"/><polygon class="cls-1" points="3.49 3.45 13.05 3.45 13.05 0.43 0 0.43 0 19.47 13.06 19.47 13.06 16.46 3.49 16.46 3.49 11.54 13.06 11.54 13.06 8.55 3.49 8.55 3.49 3.45"/><polygon class="cls-1" points="109.71 0.42 106.41 0.42 98.48 19.48 102.17 19.48 108.03 5.09 108.05 5.01 108.06 5.01 113.94 19.48 117.64 19.48 109.71 0.42"/><polygon class="cls-1" points="97.09 0.43 92.99 0.43 88.09 7.14 86.9 8.77 79.09 19.47 83.2 19.47 88.09 12.77 92.98 19.47 97.09 19.47 90.15 9.95 97.09 0.43"/><polygon class="cls-1" points="87.28 6.03 83.19 0.43 79.09 0.43 85.22 8.84 87.28 6.03"/></g></g></svg>