<?xml version="1.0" ?><!DOCTYPE svg  PUBLIC '-//W3C//DTD SVG 1.0//EN'  'http://www.w3.org/TR/2001/REC-SVG-20010904/DTD/svg10.dtd'><svg enable-background="new 0 0 100 100" height="100px" id="Layer_1" version="1.0" viewBox="0 0 100 100" width="100px" xml:space="preserve" xmlns="http://www.w3.org/2000/svg" xmlns:xlink="http://www.w3.org/1999/xlink"><g><g><g><g><path d="M46.559,76.544h-3.25v-4.771h11.408V59.817c0-2.482,2.02-4.5,4.5-4.5h4.609      c-0.287-0.16-0.613-0.258-0.965-0.258H43.309v-3.156h19.553c1.105,0,2-0.895,2-2V37.19c0-1.105-0.895-2-2-2H43.309v-3.156      h19.715c1.105,0,2-0.895,2-2V17.319c0-1.104-0.895-2-2-2H18.084c-1.105,0-2,0.896-2,2v12.715c0,1.105,0.895,2,2,2h19.391v3.156      H17.92c-1.104,0-2,0.895-2,2v12.713c0,1.105,0.896,2,2,2h19.555v3.156H17.92c-1.104,0-2,0.895-2,2v12.713c0,1.105,0.896,2,2,2      h19.555v4.771h-3.25c-1.656,0-3,1.344-3,3v1.916c0,1.656,1.344,3,3,3h12.334c1.656,0,3-1.344,3-3v-1.916      C49.559,77.888,48.215,76.544,46.559,76.544z M46.904,58.917h1v9h-1V58.917z M60.061,37.396c1.225,0,2.219,0.992,2.219,2.219      c0,1.225-0.994,2.219-2.219,2.219c-1.227,0-2.219-0.994-2.219-2.219C57.842,38.388,58.834,37.396,60.061,37.396z M56.18,38.38      c0.682,0,1.234,0.553,1.234,1.234s-0.553,1.234-1.234,1.234s-1.234-0.553-1.234-1.234S55.498,38.38,56.18,38.38z M46.904,39.048      h1v9h-1V39.048z M20.775,28.177h-1v-9h1V28.177z M24.941,28.177h-1v-9h1V28.177z M29.691,28.177h-1v-9h1V28.177z M34.316,28.177      h-1v-9h1V28.177z M60.223,17.526c1.225,0,2.219,0.992,2.219,2.219c0,1.225-0.994,2.219-2.219,2.219      c-1.227,0-2.219-0.994-2.219-2.219C58.004,18.519,58.996,17.526,60.223,17.526z M56.342,18.511c0.682,0,1.234,0.553,1.234,1.234      s-0.553,1.234-1.234,1.234s-1.234-0.553-1.234-1.234S55.66,18.511,56.342,18.511z M47.066,19.177h1v9h-1V19.177z M42.316,19.177      h1v9h-1V19.177z M20.611,48.048h-1v-9h1V48.048z M24.779,48.048h-1v-9h1V48.048z M29.529,48.048h-1v-9h1V48.048z M34.154,48.048      h-1v-9h1V48.048z M20.611,67.917h-1v-9h1V67.917z M24.779,67.917h-1v-9h1V67.917z M29.529,67.917h-1v-9h1V67.917z       M34.154,67.917h-1v-9h1V67.917z M38.404,67.917h-1v-9h1V67.917z M38.404,48.048h-1v-9h1V48.048z M38.566,28.177h-1v-9h1V28.177      z M43.154,67.917h-1v-9h1V67.917z M43.154,48.048h-1v-9h1V48.048z" fill="#5E5E5E"/><path d="M29.896,77.749h-5.299v5.332h5.299c-0.217-0.527-0.34-1.104-0.34-1.707v-1.916      C29.557,78.853,29.68,78.276,29.896,77.749z" fill="#5E5E5E"/><path d="M50.547,77.749c0.219,0.527,0.342,1.104,0.342,1.709v1.916c0,0.604-0.123,1.18-0.342,1.707h4.17v-5.332      H50.547z" fill="#5E5E5E"/></g><g><path d="M81.08,57.817H60.217c-1.656,0-3,1.342-3,3v20.863c0,1.656,1.344,3,3,3H81.08c1.658,0,3-1.344,3-3      V60.817C84.08,59.159,82.738,57.817,81.08,57.817z M70.648,80.165c-4.916,0-8.916-4-8.916-8.916c0-4.918,4-8.918,8.916-8.918      c4.918,0,8.918,4,8.918,8.918C79.566,76.165,75.566,80.165,70.648,80.165z" fill="#5E5E5E"/></g></g></g><path clip-rule="evenodd" d="M76.613,73.073l-1.245-1.061c-0.021-0.02-0.044-0.033-0.069-0.049   c0.037-0.232,0.055-0.473,0.055-0.715c0-0.244-0.018-0.482-0.055-0.715c0.026-0.018,0.051-0.033,0.075-0.055l1.245-1.059   c0.169-0.145,0.187-0.451,0.047-0.693l-0.822-1.42c-0.14-0.242-0.414-0.379-0.624-0.305l-1.543,0.547   c-0.027,0.008-0.054,0.021-0.08,0.035c-0.371-0.299-0.792-0.543-1.243-0.719c-0.001-0.029-0.003-0.057-0.009-0.084l-0.297-1.607   c-0.041-0.219-0.299-0.387-0.579-0.387h-1.642c-0.281,0-0.539,0.168-0.579,0.387l-0.297,1.607   c-0.005,0.025-0.007,0.051-0.008,0.076c-0.458,0.176-0.881,0.422-1.256,0.723c-0.023-0.012-0.047-0.023-0.075-0.031l-1.541-0.549   c-0.21-0.074-0.484,0.063-0.623,0.303l-0.815,1.41c-0.14,0.238-0.122,0.545,0.048,0.689l1.246,1.059   c0.019,0.014,0.039,0.029,0.059,0.041c-0.04,0.242-0.06,0.492-0.06,0.746c0,0.248,0.02,0.49,0.057,0.727   c-0.021,0.014-0.039,0.027-0.057,0.043l-1.247,1.059c-0.17,0.145-0.188,0.449-0.049,0.689l0.815,1.41   c0.14,0.24,0.413,0.379,0.623,0.303l1.54-0.549c0.024-0.008,0.043-0.018,0.065-0.025c0.378,0.307,0.809,0.557,1.272,0.734   c0.001,0.025,0.004,0.051,0.009,0.076l0.295,1.605c0.04,0.221,0.296,0.387,0.574,0.387h1.632c0.277,0,0.534-0.166,0.572-0.387   l0.297-1.605c0.004-0.025,0.006-0.051,0.01-0.076c0.458-0.176,0.885-0.424,1.263-0.727c0.022,0.012,0.047,0.023,0.073,0.031   l1.542,0.547c0.21,0.074,0.485-0.063,0.624-0.305l0.823-1.42C76.8,73.524,76.783,73.218,76.613,73.073z M70.578,73.569   c-1.318,0-2.387-1.066-2.387-2.383s1.069-2.385,2.387-2.385c1.319,0,2.39,1.068,2.39,2.385S71.897,73.569,70.578,73.569z" fill="#5E5E5E" fill-rule="evenodd"/><g><circle clip-rule="evenodd" cx="70.64" cy="71.249" fill="#5E5E5E" fill-rule="evenodd" r="1.316"/></g></g></svg>