<!DOCTYPE svg PUBLIC "-//W3C//DTD SVG 1.1//EN" "http://www.w3.org/Graphics/SVG/1.1/DTD/svg11.dtd">
<!-- Uploaded to: SVG Repo, www.svgrepo.com, Transformed by: SVG Repo Mixer Tools -->
<svg fill="#000000" width="800px" height="800px" viewBox="0 0 24 24" id="armchair" data-name="Flat Color" xmlns="http://www.w3.org/2000/svg" class="icon flat-color">
<g id="SVGRepo_bgCarrier" stroke-width="0"/>
<g id="SVGRepo_tracerCarrier" stroke-linecap="round" stroke-linejoin="round"/>
<g id="SVGRepo_iconCarrier">
<path id="secondary" d="M6,17V6a4,4,0,0,1,4-4h4a4,4,0,0,1,4,4V17Zm12,4V18a1,1,0,0,0-2,0v3a1,1,0,0,0,2,0ZM8,21V18a1,1,0,0,0-2,0v3a1,1,0,0,0,2,0Z" style="fill: #ff63a6;"/>
<path id="primary" d="M4,17a2,2,0,0,0,2,2H18a2,2,0,0,0,2-2V11a2,2,0,0,0-2-2h0a2,2,0,0,0-2,2v4H8V11A2,2,0,0,0,6,9H6a2,2,0,0,0-2,2Z" style="fill: #ff63a6000000;"/>
</g>
</svg>