<svg id="eOzDnHYNPMa1" xmlns="http://www.w3.org/2000/svg" xmlns:xlink="http://www.w3.org/1999/xlink" viewBox="0 0 294.96 397" shape-rendering="geometricPrecision" text-rendering="geometricPrecision" style="background-color:transparent"><g><g><g id="eOzDnHYNPMa4" transform="translate(.000001 0)"><path d="M220.7,59.64c-.024046.053339-.054252.103682-.09.15-.011266.02131-.02869.038734-.05.05-.379084.337542-.950916.337542-1.33,0-2.38-2.14-4.87-4.22-7.4-6.17-.269913-.232867-.395451-.591812-.329507-.942142s.313399-.639066.649507-.757858s0,0,0-.07c.33512-.416588.938643-.495883,1.37-.18c2.58,2,5.12,4.08,7.54,6.25.391484.364558.426735.972647.08,1.38-.1181.134268-.270043.234412-.44.29Z" fill="#e55c76"/><path d="M205.3,47.84l-.12.15c-.332273.305573-.828071.350645-1.21.11-2.68-1.75-5.46-3.42-8.27-5-.456626-.269643-.623366-.848844-.38-1.32.125874-.237445.348309-.408829.61-.47.294735-.369268.807698-.48187,1.23-.27c2.85,1.56,5.68,3.25,8.4,5c.44169.300337.569382.894766.29,1.35-.122055.212279-.317755.372398-.55.45Z" fill="#e55c76"/><path d="M188.21,38.54l-.06.09c-.292258.269258-.716213.339917-1.08.18-2.92-1.32-5.93-2.54-8.94-3.64-.366455-.17877-.587676-.562123-.559095-.968855s.30124-.755381.689095-.881145c.263793-.299551.680455-.413544,1.06-.29c3.06,1.11,6.11,2.34,9.07,3.68.48138.230367.697045.798138.49,1.29-.122994.277659-.372551.478794-.67.54Z" fill="#e55c76"/><path d="M169.91,32v0c-.252904.233268-.607964.320144-.94.23-3.09-.86-6.25-1.61-9.39-2.23-.414817-.142524-.68834-.538731-.674568-.977133s.311623-.81666.734568-.932867c.22187-.223616.541-.321232.85-.26c3.19.62,6.4,1.37,9.53,2.24.397815.15563.652846.546771.634781.973562s-.305238.794982-.714781.916438Z" fill="#e55c76"/><path d="M233.91,73.7c-.292312.000019-.569997-.127862-.76-.35-2-2.47-4.19-4.9-6.41-7.21-.341235-.227379-.509077-.640034-.42343-1.041042s.407422-.709091.811773-.77723.809322.117478,1.021657.468272c2.25,2.34,4.44,4.81,6.51,7.32.216979.295712.254661.686477.098187,1.018202s-.481991.551169-.848187.571798Z" fill="#e55c76"/><path d="M112.14,29.66l-.32.07c-.069615.033718-.143701.057291-.22.07-1.54.3-3.09.62-4.63,1s-2.83.68-4.22,1.06c-.046161.009712-.093839.009712-.14,0l-.41.1c-.364183.19624-.811605.147975-1.125558-.121417s-.429619-.704292-.290973-1.094057.502977-.653921.916531-.664526q2.4-.64,4.83-1.2q2.63-.61,5.25-1.13c.376726-.159945.81289-.074185,1.101014.216486s.370043.727572.206789,1.102875-.538724.613246-.947803.600639Z" fill="#e55c76"/><path d="M259.75,125.54h-.15c-.044507.081972-.101906.156254-.17.22-.123722.121716-.279997.205062-.45.24-.522249.107501-1.036986-.213659-1.17-.73-.72-3.13-1.56-6.26-2.51-9.3-.151681-.51535.130915-1.058463.64-1.23.059899-.004917.120101-.004917.18,0c.122585-.217958.322384-.382079.56-.46.5122-.145491,1.048576.135886,1.22.64c1,3.1,1.85,6.28,2.58,9.45.107501.522249-.213659,1.036986-.73,1.17Z" fill="#e55c76"/><path d="M245.58,89.47c-.152403.08638-.324824.13121-.5.13-.341942-.002742-.658776-.180018-.84-.47-1.63-2.76-3.4-5.48-5.24-8.11-.179985-.433396-.034387-.933648.350065-1.202764s.904323-.234693,1.249935.082764c1.87,2.66,3.66,5.43,5.32,8.23.263377.465701.113548,1.056205-.34,1.34Z" fill="#e55c76"/><path d="M262.46,144.77c-.03761.075632-.084652.146194-.14.21-.166436.157166-.381757.252472-.61.27-.515478.002583-.948458-.387099-1-.9-.24-3.2-.59-6.42-1.07-9.59-.066679-.52954.294248-1.018112.82-1.11h.1c.146145-.257403.398816-.436836.69-.49.52954-.066679,1.018112.294248,1.11.82.49,3.21.86,6.48,1.1,9.73.002583.515478-.387099.948458-.9,1Z" fill="#e55c76"/><path d="M254.06,107c-.114086.047257-.236518.071063-.36.07-.397638-.004311-.754935-.243817-.91-.61-1.2-3-2.52-6-3.94-8.81-.255596-.319014-.291294-.761475-.090147-1.117339s.598636-.553473,1.003771-.499018.736336.35001.836376.746357c1.44,2.91,2.79,5.92,4,9c.157232.484858-.07538,1.010388-.54,1.22Z" fill="#e55c76"/><path d="M93.55,34.72c-3,1.08-6,2.29-9,3.6-.127439.050499-.262941.077599-.4.08h-.16c-.458057.082885-.912726-.161252-1.09667-.588862s-.04851-.925591.32667-1.201138c3-1.32,6-2.53,9.09-3.62.137848-.034711.282152-.034711.42,0h.12c.466754-.061672.913308.210587,1.07227.653751s-.012732.937186-.41227,1.186249Z" fill="#e55c76"/><path d="M26.92,89.26c-.172683-.003567-.341498-.0518-.49-.14-.230482.045102-.469499.002293-.67-.12-.449968-.287032-.595219-.87684-.33-1.34c1.67-2.78,3.48-5.54,5.37-8.19.288151-.357968.783179-.473474,1.2-.28.383812-.056761.765816.11361.980042.437092s.222005.741683.019958,1.072908c-1.85,2.62-3.62,5.34-5.26,8.08-.175011.28793-.483255.468366-.82.48Z" fill="#e55c76"/><path d="M38.89,73.05c-.187724.219503-.461186.347118-.75.35-.225564-.001308-.444061-.078839-.62-.22-.406818-.350488-.464208-.959705-.13-1.38c2.07-2.5,4.27-5,6.53-7.29.20993-.356764.617969-.547308,1.026281-.479247s.732484.380655.815342.786223-.092726.820264-.441623,1.043024c-2.23,2.31-4.39,4.73-6.43,7.19Z" fill="#e55c76"/><path d="M13.32,124.38c-.112816.457183-.529303.773714-1,.76-.076358.009728-.153642.009728-.23,0-.093408-.023391-.181599-.064095-.26-.12-.157627.038969-.322373.038969-.48,0-.521025-.133074-.843521-.654368-.73-1.18.76-3.17,1.64-6.34,2.64-9.44.175457-.500122.710639-.776486,1.22-.63.0717.026661.139088.063724.2.11.169727-.050005.350273-.050005.52,0c.509085.171537.791681.71465.64,1.23-.92,3.02-1.79,6.15-2.52,9.27Z" fill="#e55c76"/><path d="M32.88,225.8c1.84,2.62,3.81,5.2,5.86,7.67.331791.422871.269957,1.032379-.14,1.38-.175939.141161-.394436.218692-.62.22-.29042-.005379-.564149-.136769-.75-.36-2.07-2.51-4.07-5.13-5.94-7.78-.306071-.274074-.413363-.707465-.270509-1.092678s.506782-.643854.917548-.652094.784773.235598.942961.614772Z" fill="#e55c76"/><path d="M18.26,106.63c-.126231-.003882-.251075-.027501-.37-.07l-.11-.08c-.191454.064037-.398546.064037-.59,0-.490071-.211397-.727755-.770394-.54-1.27c1.24-3,2.6-6,4.05-8.93.237861-.479171.810708-.686277,1.3-.47.023109-.004581.046891-.004581.07,0c.205394-.046397.420455-.021718.61.07.473324.248794.66717.825926.44,1.31-1.42,2.85-2.76,5.81-4,8.78-.132208.369778-.468609.627946-.86.66Z" fill="#e55c76"/><path d="M75.93,42.59c-2.81,1.53-5.6,3.18-8.3,4.92-.156049.106485-.341096.162348-.53.16-.098603-.002274-.196328-.019123-.29-.05-.444018.073956-.882724-.157867-1.071801-.566366s-.081917-.892981.261801-1.183634c2.73-1.76,5.57-3.43,8.43-5c.221566-.115716.478437-.144258.72-.08.441228-.132877.916133.052955,1.15.45.264677.475697.100226,1.075721-.37,1.35Z" fill="#e55c76"/><path d="M52.29,59.19c-.181142.154906-.411655.240018-.65.24-.391075-.024387-.731875-.27493-.871814-.640924s-.05323-.779996.221814-1.059076c2.43-2.17,5-4.26,7.56-6.23.428635-.210543.946323-.08863,1.23596.291063s.270387.911193-.04596,1.268937c-2.55,1.94-5.06,4-7.45,6.13Z" fill="#e55c76"/><path d="M150,28.5c-3.18-.38-6.42-.64-9.62-.77-.552285-.024853-.979853-.492715-.955-1.045s.492715-.979853,1.045-.955c3.24.14,6.53.41,9.76.79.529255.077524.903789.557809.85,1.09-.02741.22373-.129602.431637-.29.59-.20607.211818-.495275.321642-.79.3Z" fill="#e55c76"/><path d="M9.55,143.32c-.020727.234345-.123412.45388-.29.62-.299387.256217-.72133.312725-1.077584.144313s-.580392-.530338-.572416-.924313c.26-3.24.65-6.52,1.16-9.73-.022006-.40795.206357-.788263.576786-.960571s.808422-.101957,1.106257.177689.395612.712344.246957,1.092882c-.5,3.16-.89,6.38-1.15,9.58Z" fill="#e55c76"/><path d="M260.6,163.63c.25-3.2.39-6.44.4-9.64-.091371-.40092.071995-.816904.411769-1.048505s.786687-.2316,1.126462,0s.50314.647585.411769,1.048505c0,3.26-.15,6.55-.41,9.79-.021113.239209-.1276.462833-.3.63-.201774.190057-.473384.287836-.75.27-.528669-.057667-.919726-.519026-.89-1.05Z" fill="#e55c76"/><path d="M130.76,27.69c-3.2.1-6.43.34-9.62.69-.388466.132575-.818496.014301-1.084526-.298285s-.314028-.755993-.121049-1.118265.587738-.569827.995575-.52345c3.23-.36,6.52-.6,9.76-.71.552285-.01933,1.01567.412715,1.035.965s-.412715,1.01567-.965,1.035Z" fill="#e55c76"/><path d="M13.58,190.32c.400969-.107743.826804.043488,1.07.38.489481-.104526.98085.168931,1.15.64c1,3.06,2.06,6.11,3.26,9.09.187755.499606-.049929,1.058603-.54,1.27-.114086.047257-.236518.071063-.36.07-.320131-.006984-.617558-.16685-.8-.43-.477198.124499-.97391-.117489-1.17-.57-1.2-3-2.3-6.13-3.26-9.23-.144538-.515065.141886-1.05266.65-1.22Z" fill="#e55c76"/><path d="M58.41,253.48c.340569-.233212.789431-.233212,1.13,0c2.55,1.94,5.2,3.81,7.88,5.56.328225.252047.467289.680229.349799,1.077036s-.467259.680249-.879799.712964c-.187225.000601-.370859-.051371-.53-.15v0c-.333732.21978-.766268.21978-1.1,0-2.71-1.77-5.4-3.68-8-5.66-.416588-.33512-.495883-.938643-.18-1.37.334054-.38951.908713-.462963,1.33-.17Z" fill="#e55c76"/><path d="M92.15,272l.22.08c.253175-.20384.5944-.260711.9-.15c3,1.08,6.11,2.06,9.19,2.91.422811.170215.677028.604796.618177,1.056768s-.415877.806964-.868177.863232c-.086356.010373-.173644.010373-.26,0l-.28-.08c-.241105.186383-.554041.252651-.85.18-3.14-.87-6.28-1.88-9.34-3-.495379-.195709-.750418-.745361-.58-1.25.183871-.507258.737-.777185,1.25-.61Z" fill="#e55c76"/><path d="M74.56,264l.09.05c.294881-.20403.676433-.234554,1-.08c2.82,1.54,5.72,3,8.64,4.29.48138.230367.697045.798138.49,1.29-.16096.347953-.506681.573254-.89.58-.138368.00013-.275022-.030617-.4-.09l-.15-.07c-.287388.217195-.669384.263035-1,.12-3-1.34-5.92-2.81-8.78-4.37-.363741-.306524-.461221-.826849-.233105-1.244255s.718689-.616354,1.173105-.475745Z" fill="#e55c76"/><path d="M129.88,279.37h.53c.171579-.124224.378174-.190754.59-.19c3.2.12,6.47.12,9.65,0c.526064-.00129.963177.405225,1,.93.000954.529677-.411276.96822-.94,1h-.61c-.151998.111008-.33224.176866-.52.19-3.25.11-6.54.1-9.79,0-.403713.073193-.811172-.107644-1.027739-.456126s-.198294-.793894.046091-1.123466.665287-.476424,1.061648-.370408Z" fill="#e55c76"/><path d="M110.73,277.11l.36.06c.21846-.160539.492741-.2255.76-.18c3.15.61,6.35,1.1,9.54,1.47.441058.134366.733076.552873.706975,1.013205s-.363556.843147-.816975.926795h-.12l-.43-.06c-.199916.15225-.449826.223653-.7.2-3.23-.38-6.49-.89-9.67-1.51-.408111.008728-.780558-.231474-.940952-.606847s-.076531-.810552.211871-1.099438.72344-.373479,1.099081-.213715Z" fill="#e55c76"/><path d="M8.17,152c.183306.012018.35976.074296.51.18.09778-.043326.203091-.067106.31-.07.552285,0,1,.447715,1,1v.29c0,3.22.12,6.46.36,9.64.002583.515478-.387099.948458-.9,1h-.09c-.309446-.00857-.597476-.15997-.78-.41v0c-.537995.029055-1.002294-.373337-1.05-.91-.23-3.23-.34-6.53-.32-9.78.030497-.513656.445816-.920322.96-.94Z" fill="#e55c76"/><path d="M43.88,240.4l.11.11c.383216-.207218.856488-.142497,1.17.16c2.22,2.31,4.56,4.56,7,6.69.38849.367323.419327.975251.07,1.38-.184354.204405-.444811.323782-.72.33-.214078-.005024-.42089-.078635-.59-.21-.36612.221178-.832376.185003-1.16-.09-2.41-2.16-4.78-4.45-7-6.81l-.21-.21c-.242571-.400745-.174444-.916173.163915-1.240133s.85626-.369624,1.246085-.109867Z" fill="#e55c76"/><path d="M9.4,171.36c.357654-.047273.713044.101762.93.39.522295-.055322.998383.302836,1.09.82.49,3.17,1.1,6.36,1.83,9.47.107501.522249-.213659,1.036986-.73,1.17h-.22c-.312991-.005483-.605355-.157216-.79-.41-.508024.077792-.992296-.242173-1.12-.74-.72-3.17-1.33-6.4-1.81-9.62-.049763-.518649.307049-.988596.82-1.08Z" fill="#e55c76"/><path d="M20.6,208.42c.435759-.191443.946067-.049226,1.22.34.458105-.15079.958568.046872,1.19.47c1.43,2.87,3,5.72,4.62,8.48.263377.465701.113548,1.056205-.34,1.34-.152403.08638-.324824.13121-.5.13-.320131-.006984-.617558-.16685-.8-.43-.441884.170613-.94285.007799-1.2-.39-1.65-2.81-3.21-5.71-4.64-8.63-.225658-.486682-.027095-1.064721.45-1.31Z" fill="#e55c76"/><path d="M255,192c.236218-.406846.724075-.594026,1.171805-.449597s.734246.581407.688195,1.049597c-1,3.1-2.12,6.2-3.34,9.21-.049126.129707-.127888.246137-.23.34-.271741.244395-.655164.32108-1,.2-.490071-.211397-.727755-.770394-.54-1.27c1.19-3,2.25-6.08,3.25-9.08Z" fill="#e55c76"/><path d="M237.84,226.37c.220637-.295088.585667-.444942.95-.39l.07-.09c.152896-.384674.526993-.635382.94091-.630569s.782085.264149.925996.652274.033817.824795-.276906,1.098295c-1.87,2.66-3.87,5.27-5.95,7.78-.185851.223231-.45958.354621-.75.36-.059634.009367-.120366.009367-.18,0l-.12.15-.07.08c-.39531.250593-.911552.193469-1.242511-.137489s-.388082-.847201-.137489-1.242511c2-2.45,4-5,5.84-7.63Z" fill="#e55c76"/><path d="M225.5,241.18c.236136-.227275.568652-.324414.89-.26.06-.06.13-.12.18-.18.389825-.259757.907726-.214094,1.246085.109867s.406486.839388.163915,1.240133c-2.26,2.35-4.63,4.63-7.06,6.79-.179713.158524-.410377.247241-.65.25-.066584.004701-.133416.004701-.2,0l-.24.22c-.412337.241493-.93791.157518-1.254468-.200436s-.335635-.889852-.045532-1.269564c2.4-2.16,4.76-4.42,6.97-6.7Z" fill="#e55c76"/><path d="M247.75,209.84c.038058-.511535.356701-.959753.827334-1.163767s1.015589-.130155,1.414941.191769.587197.838786.487725,1.341998c-1.45,2.91-3,5.8-4.69,8.59-.178819.293812-.496084.475106-.84.48h-.14v0c-.042926.077223-.100701.145194-.17.2-.363522.26593-.859964.256019-1.212583-.024208s-.474384-.761606-.297417-1.175792c1.63-2.73,3.19-5.57,4.62-8.44Z" fill="#e55c76"/><path d="M149.14,278.69l.75-.1c.115625-.060719.240748-.101299.37-.12c3.18-.36,6.39-.85,9.54-1.45.524229-.087,1.024948.251205,1.14.77.092294.530874-.252632,1.039419-.78,1.15l-.86.15c-.081389.0415-.16936.068568-.26.08-3.19.61-6.45,1.1-9.68,1.46-.387543.133371-.817236.016764-1.084192-.294222s-.317125-.753384-.126585-1.11625.58321-.572732.990777-.529528Z" fill="#e55c76"/><path d="M259.46,173.21c-.025616-.408631.200453-.791597.570598-.966606s.809581-.106703,1.109137.172405.39871.712626.250265,1.094201c-.51,3.22-1.14,6.45-1.89,9.61-.133074.521025-.654368.843521-1.18.73-.516983-.137441-.834247-.657401-.72-1.18.74-3.11,1.4-6.3,1.86-9.46Z" fill="#e55c76"/><path d="M203.18,259.49c2.69-1.73,5.35-3.59,7.9-5.53.225127-.16249.507674-.224071.78-.17l.32-.23c.427463-.199928.936513-.07381,1.221199.302554s.267512.900524-.041199,1.257446c-2.59,2-5.29,3.87-8,5.63-.158089.102149-.341796.157607-.53.16h-.21l-.37.24c-.455234.279382-1.049663.15169-1.35-.29-.294529-.456867-.17017-1.065334.28-1.37Z" fill="#e55c76"/><path d="M168.07,275.1c3.1-.84,6.19-1.81,9.2-2.88.132529-.041274.271436-.058214.41-.05l.71-.23c.345938-.226837.795836-.217253,1.131801.024109s.488634.664674.384068,1.064917-.444779.694784-.855869.740974c-3.07,1.1-6.21,2.09-9.35,3-.083047.009769-.166953.009769-.25,0h-.06l-.81.23c-.516986.122673-1.039639-.180378-1.19-.69-.135715-.520584.164755-1.055245.68-1.21Z" fill="#e55c76"/><path d="M186.22,268.65c2.93-1.3,5.84-2.73,8.66-4.25.188777-.093504.402263-.125002.61-.09l.5-.26c.476142-.248131,1.063255-.07597,1.33.39.239986.476268.063989,1.057058-.4,1.32-2.86,1.56-5.81,3-8.78,4.35-.124978.059383-.261632.09013-.4.09h-.16l-.56.26c-.46454.104646-.938433-.132785-1.132729-.567523s-.055095-.946178.332729-1.222477Z" fill="#e55c76"/></g><path d="M134.73,136.47l25.36-29.89h-7.26c-2.060732,0-4.037062-.818623-5.49422-2.27578s-2.27578-3.433488-2.27578-5.49422v-56.27c0-2.060732.818623-4.037062,2.27578-5.49422s3.433488-2.27578,5.49422-2.27578h101.38c2.064195-.005313,4.045667.810963,5.507153,2.268697s2.282854,3.437101,2.282847,5.501303v56.27c0,2.060732-.818623,4.037062-2.27578,5.49422s-3.433488,2.27578-5.49422,2.27578h-56.38l.54.24Z" fill="#e55c76"/><rect width="81.31" height="1.46" rx="0" ry="0" transform="translate(162.86 47.21)" fill="#fff"/><rect width="81.31" height="1.47" rx="0" ry="0" transform="translate(162.86 54.78)" fill="#fff"/><rect width="47.68" height="1.46" rx="0" ry="0" transform="translate(196.5 62.36)" fill="#fff"/><rect width="81.31" height="1.46" rx="0" ry="0" transform="translate(162.86 69.94)" fill="#fff"/><rect width="81.31" height="1.47" rx="0" ry="0" transform="translate(162.86 77.52)" fill="#fff"/><rect width="81.31" height="1.46" rx="0" ry="0" transform="translate(162.86 85.1)" fill="#fff"/><rect width="21.17" height="1.47" rx="0" ry="0" transform="translate(223.01 92.68)" fill="#fff"/><path d="M60.8,61.05h-52.28c-4.493314-.00551-8.13449-3.646686-8.14-8.14v-44.39c.005495-4.494941,3.645069-8.138986,8.14-8.15h82c4.494931.011014,8.134505,3.655059,8.14,8.15v44.39c-.00551,4.493314-3.646686,8.13449-8.14,8.14h-5.86l-.17,25.52Z" fill="#5f78a0"/><path d="M90.55,0.75c4.291253,0,7.77,3.478747,7.77,7.77v44.39c0,4.291253-3.478747,7.77-7.77,7.77h-6.26l-.17,24.94-23-24.74.45-.2h-53.05c-4.291253,0-7.77-3.478747-7.77-7.77v-44.39c0-4.291253,3.478747-7.77,7.77-7.77h82m0-.75h-82C3.816818,0.00551,0.00551,3.816818,0,8.52v44.39c.00551,4.703182,3.816818,8.51449,8.52,8.52h52.11l22.94,24.7l1.29,1.39v-1.89L85,61.43h5.52c4.703182-.00551,8.51449-3.816818,8.52-8.52v-44.39C99.034552,3.82849,95.241462,0.021997,90.55,0Z" fill="#5f78a0"/><rect width="67.86" height="1.46" rx="0" ry="0" transform="translate(14.94 13.94)" fill="#fff"/><rect width="67.86" height="1.46" rx="0" ry="0" transform="translate(14.94 20.26)" fill="#fff"/><rect width="54.62" height="1.47" rx="0" ry="0" transform="translate(28.18 26.59)" fill="#fff"/><rect width="67.86" height="1.46" rx="0" ry="0" transform="translate(14.94 32.91)" fill="#fff"/><rect width="18.72" height="1.47" rx="0" ry="0" transform="translate(64.08 39.24)" fill="#fff"/><rect width="46.4" height="1.47" rx="0" ry="0" transform="translate(36.4 45.56)" fill="#fff"/><path d="M55.29,384.63h4.89v-6.63c-.000004-3.503107,2.836898-6.344483,6.34-6.35h46.37v-4.88h-46.37c-6.197592.011008-11.218992,5.032408-11.23,11.23Z" fill="#323443"/><path d="M79.19,384.63h4.88v-6.63c.005506-3.504725,2.845275-6.344494,6.35-6.35h22.42v-4.88h-22.42c-6.199873.005513-11.224487,5.030127-11.23,11.23Z" fill="#323443"/><path d="M153.79,384.63h4.88v-9.63c-.005495-4.544646-3.685364-8.228986-8.23-8.24h-49.36v4.88h49.36c1.85177.005511,3.350008,1.508221,3.35,3.36Z" fill="#323443"/><path d="M129.9,384.63h4.88v-9c-.005497-4.876016-3.953993-8.828984-8.83-8.84h-24.83v4.88h24.88c2.209139,0,4,1.790861,4,4Z" fill="#323443"/><rect width="14.26" height="40.21" rx="0" ry="0" transform="matrix(-1 0 0-1 115.67 371.15)" fill="#323443"/><rect width="26" height="40.21" rx="0" ry="0" transform="matrix(-1 0 0-1 121.54 346.65)" fill="#323443"/><path d="M50.27,387.25c0,4.125567,3.344433,7.47,7.47,7.47s7.47-3.344433,7.47-7.47-3.344433-7.47-7.47-7.47c-1.981167,0-3.881191.787016-5.282088,2.187912s-2.187912,3.300921-2.187912,5.282088Z" fill="#1a1d27"/><path d="M57.74,379.78c1.981167,0,3.881191.787016,5.282088,2.187912s2.187912,3.300921,2.187912,5.282088h-14.94c-.002659-1.981981.783503-3.88355,2.184977-5.285023s3.303042-2.187636,5.285023-2.184977Z" fill="#464a5f"/><path d="M74.16,387.25c0,4.125567,3.344433,7.47,7.47,7.47s7.47-3.344433,7.47-7.47-3.344433-7.47-7.47-7.47c-1.981167,0-3.881191.787016-5.282088,2.187912s-2.187912,3.300921-2.187912,5.282088Z" fill="#1a1d27"/><path d="M81.63,379.78c1.981167,0,3.881191.787016,5.282088,2.187912s2.187912,3.300921,2.187912,5.282088h-14.94c-.002659-1.981981.783503-3.88355,2.184977-5.285023s3.303042-2.187636,5.285023-2.184977Z" fill="#464a5f"/><path d="M124.87,387.25c0,4.125567,3.344433,7.47,7.47,7.47s7.47-3.344433,7.47-7.47-3.344433-7.47-7.47-7.47c-4.123283.005509-7.464491,3.346717-7.47,7.47Z" fill="#1a1d27"/><path d="M132.34,379.78c1.981981-.002659,3.88355.783503,5.285023,2.184977s2.187636,3.303042,2.184977,5.285023h-14.94c0-1.981167.787016-3.881191,2.187912-5.282088s3.300921-2.187912,5.282088-2.187912Z" fill="#464a5f"/><path d="M46.66,258.07h46.86c2.275557,0,4.457914-.903962,6.066976-2.513024s2.513024-3.791419,2.513024-6.066976l-2.93-67.57c0-2.275557-.903962-4.457914-2.513024-6.066976s-3.791419-2.513024-6.066976-2.513024h-60.53c-2.275557,0-4.457914.903962-6.066976,2.513024s-2.513024,3.791419-2.513024,6.066976l16.61,67.57c-.000003,4.734701,3.835303,8.574482,8.57,8.58Z" fill="#e07586"/><path d="M62.53,310.27h95c2.986238.000011,5.849732-1.188318,7.958506-3.302719s3.289464-4.981053,3.281494-7.967281v0c.000002-6.2093-5.030702-11.244481-11.24-11.25h-95c-6.209298.005519-11.240002,5.0407-11.24,11.25v0c-.00797,2.986228,1.172721,5.852879,3.281494,7.967281s4.972268,3.30273,7.958506,3.302719Z" fill="#e07586"/><g style="mix-blend-mode:multiply" opacity="0.4"><path d="M62.53,310.27h36.26c2.981037-.007946,5.83682-1.199784,7.939105-3.313321s3.278862-4.975642,3.270895-7.956679v0c.000002-6.2093-5.030702-11.244481-11.24-11.25h-36.23c-6.209298.005519-11.240002,5.0407-11.24,11.25v0c-.00797,2.986228,1.172721,5.852879,3.281494,7.967281s4.972268,3.30273,7.958506,3.302719Z" fill="#e07586"/></g><rect width="13.67" height="43.63" rx="0" ry="0" transform="matrix(.970296-.241922 0.241922 0.970296 73.15241 250.635564)" fill="#e07586"/><g style="mix-blend-mode:multiply" opacity="0.4"><path d="M46.41,257.07v0c3.320434-.822258,5.347545-4.178402,4.53-7.5L33.78,180c-.392512-1.596076-1.403692-2.970514-2.810605-3.820289s-3.094032-1.105111-4.689395-.709711v0c-1.596076.392512-2.970514,1.403692-3.820289,2.810605s-1.105111,3.094032-.709711,4.689395l17.16,69.54c.388293,1.600192,1.39719,2.980194,2.804172,3.835639s3.096466,1.116058,4.695828.724361Z" fill="#e07586"/></g><polygon points="206,378.28 213.43,378.28 206.6,260.2 193.3,260.2 206,378.28" fill="#454b5f"/><path d="M111.08,179.1L95.53,164.19l-5.09-6.07-15.92-2.69c-1.218079-.203397-2.467359-.107299-3.64.28l-2.63.88c0,0,.19,1.32-4.15,4.93-5.8,4.83-16.82,13-19.7,20.66Z" fill="#5f78a0"/><path d="M177,238.25l5.61-1c.524662-.090976,1.056419.117103,1.38.54l4.07,5.3c.266887.351595.357772.806175.246588,1.233358s-.412155.779774-.816588.956642v0c-.57662.238599-1.241224.081511-1.65-.39l-3.3-3.89c-.388434-.461236-1.024458-.629242-1.59-.42l-3,1.13c-.395281.145572-.834637.109461-1.200845-.098699s-.622009-.567191-.699155-.981301l-.13-.7c-.155471-.760276.323795-1.505801,1.08-1.68Z" fill="#d49868"/><g style="mix-blend-mode:multiply" opacity="0.5"><path d="M188.68,243.86c0,0-.37.83-2-1.15-1.306422-1.489889-2.695264-2.905439-4.16-4.24-.318495-.294587-.779426-.376617-1.18-.21l-3.56,1.48l5.08-3.16Z" fill="#c4814e"/></g><path d="M175.35,238.27l1.61-3.39c.154888-.329387.486014-.53975.85-.54h6.83c.297227.007387.575754.146651.76.38l5.06,6.8.07.11l1,1.72c.142548.323124.104085.697477-.101191.984864s-.546919.445182-.898809.415136c-.964922-.103324-1.861667-.54638-2.53-1.25l-1.88-2.21-.13-.18-3.16-3.42c-.24082-.247716-.592446-.353582-.93-.28l-2.06.51c-.073067.017788-.143617.044665-.21.08l-2.94,1.52c-.281975.150186-.620927.146875-.899914-.008791s-.459811-.442376-.480086-.761209v0c-.025974-.160869-.012243-.325649.04-.48Z" fill="#d49868"/><g style="mix-blend-mode:multiply" opacity="0.5"><path d="M183.58,234.58c-.825576-.204568-1.699338-.036397-2.39.46l-4.57,2.4c1.36-.32-1.39,1.44,4.1-.94.642698-.292537,1.344226-.432843,2.05-.41c1.21.19,7.21,7.73,7.44,7.82.53.21.82-.13,1.38-.08-1.634341-2.349856-3.390056-4.612926-5.26-6.78-.724868-1.014657-1.663625-1.857831-2.75-2.47Z" fill="#c4814e"/></g><path d="M174.48,236.69l2-4.16c.19685-.40102.603285-.656493,1.05-.66h8.35c.368045-.004145.715046.171221.93.47l6.2,8.32.08.13l1.18,2.11c.225436.400165.193539.895656-.081346,1.263612s-.740983.539074-1.188654.436388c-1.188124-.1179-2.294839-.657069-3.12-1.52l-2.31-2.7c-.040713-.08173-.09479-.156086-.16-.22L183.57,236c-.286577-.310766-.719519-.441032-1.13-.34l-2.52.62c-.09034.02286-.177625.056431-.26.1l-3.59,1.87c-.355944.181195-.779728.168295-1.123992-.034213s-.561439-.566644-.576008-.965787v0c-.007372-.19268.030292-.384425.11-.56Z" fill="#d49868"/><path d="M192.81,241.35c0,0,.18,2.26-1.38.71s-8.24-7.39-8.24-7.39l-6.48,1.75l6.61-4.54Z" fill="#c4814e"/><path d="M174,236.06l1.77-4.73c.176239-.461207.598532-.782769,1.09-.83l9.14-.78c.400326-.038681.79481.117624,1.06.42l7.55,8.54.11.13l1.48,2.2c.281096.408831.300615.943281.05009,1.371528s-.725962.673146-1.22009.628472c-.984648-.029045-1.948088-.293048-2.81-.77-.272837-.169324-.521724-.374487-.74-.61l-2.77-2.74c-.058282-.083573-.12533-.160677-.2-.23l-4.62-4.22c-.343887-.31201-.828926-.415128-1.27-.27l-2.71.92c-.096019.029526-.187041.073351-.27.13l-3.76,2.37c-.363879.230916-.819534.263219-1.212351.085948s-.670058-.540317-.737649-.965948v0c-.034261-.219052-.010115-.443266.07-.65Z" fill="#eaae7f"/><path d="M178,236.17l1.23,5.09-5.09,4.58c-4.25-6.07,1.67-7.25,3.86-9.67Z" fill="#d49868"/><path d="M176.64,230.54l1.35,5.63c-2.18,2.42-9,2.75-3.86,9.67l-3,2.69-8.84-1l.74-10.48Z" fill="#eaae7f"/><path d="M178.11,236.19c0,0-4.39,3.45-4.72,5.74s7.51.57,9.46,4.94-1.11,2-4.42,1.51c-2.42241-.276751-4.871045-.226298-7.28.15l-2.94-9.76Z" fill="#eaae7f"/><path d="M124.4,250.19v0c4.965416-1.662784,7.649023-7.029997,6-12l-19.07-56.52c-1.658284-4.969323-7.029572-7.654967-12-6v0c-4.965416,1.662784-7.649023,7.029997-6,12L112.4,244.2c1.666959,4.961418,7.032886,7.63991,12,5.99Z" fill="#c0d3eb"/><path d="M156.24,251.33l.27-18.21-35.13-.53c-2.419615-.034705-4.753619.894684-6.487086,2.583125s-2.723944,3.997185-2.752914,6.416875v0c-.037384,2.420394.891127,4.755939,2.580141,6.489993s3.999319,2.723695,6.419859,2.750007Z" fill="#c0d3eb"/><rect width="20.03" height="14" rx="0" ry="0" transform="matrix(-.015009 0.999887-.999887-.015009 169.066477 232.30247)" fill="#5f78a0"/><path d="M111.08,179.1c0,0-6.61-8.94-23.92-13.6s-42.59,3.13-44,22.45c0,0,3.23,43.76,19.74,76.63h47.25c0,0-12.36-56.65.93-85.48Z" fill="#5f78a0"/><polygon points="68.25,156.59 87.1,166.23 80.6,178.33 64.1,161.52 68.25,156.59" fill="#c0d3eb"/><polygon points="90.59,158.12 87.1,166.23 94.42,178.33 95.53,164.19 90.59,158.12" fill="#c0d3eb"/><polygon points="89.68,153 87.1,166.23 70.35,157.66 72.49,146.85 90.59,143.62 89.68,153" fill="#d49868"/><path d="M72.4,149.55l12.31,7.14c1.632088.943059,3.485052,1.436493,5.37,1.43v0c3.322256.038625,6.459916-1.524622,8.43-4.2l4.25-6c1.047897-1.45771,1.617439-3.204771,1.63-5l.29-23.49C104.68,112,98.09,106,90,106h-3.81c-10.21,0-18.48,7.61-18.48,17v18.79c.067526,3.237979,1.854612,6.194865,4.69,7.76Z" fill="#eaae7f"/><path d="M71,147.5v-8.59c-.000496-.080599.020195-.159914.06-.23l1.33-2.56c.085919-.170066.259473-.278055.45-.28h1.66c.276142,0,.5-.223858.5-.5v-16c.005506-3.432928,2.787072-6.214494,6.22-6.22h18.08c1.425032-.00001,2.791409.567447,3.797181,1.576972s1.568136,2.378006,1.562819,3.803028v10.92l.91-9.52c.332236-3.565923-.854176-7.106688-3.267808-9.752546s-5.830828-4.151636-9.412192-4.147454h-12.55c-3.93311-.001049-7.6879,1.640732-10.3577,4.528901s-4.011928,6.760196-3.7023,10.681099l1.42,18v.08c0,.5-.4,5.87,2.39,8.57.13919.178413.379298.243775.589716.160533s.340825-.295182.320284-.520533Z" fill="#381b18"/><path d="M68.88,139.45v0c.957432,0,1.875649-.380338,2.552655-1.057345s1.057345-1.595223,1.057345-2.552655v-6c0-1.993748-1.616252-3.61-3.61-3.61v0c-1.993748,0-3.61,1.616252-3.61,3.61v6c0,.957432.380338,1.875649,1.057345,2.552655s1.595223,1.057345,2.552655,1.057345Z" fill="#d49868"/><polygon points="93.69,126.64 98.27,139.74 93.69,142.78 93.69,126.64" fill="#d49868"/><path d="M99.18,132v0c.503911,0,.987184-.200178,1.343503-.556497s.556497-.839592.556497-1.343503v-2c0-.503911-.200178-.987184-.556497-1.343503s-.839592-.556497-1.343503-.556497v0c-.503911,0-.987184.200178-1.343503.556497s-.556497.839592-.556497,1.343503v2c0,.503911.200178.987184.556497,1.343503s.839592.556497,1.343503.556497Z" fill="#381b18"/><path d="M86.19,132.2v0c.503911,0,.987184-.200178,1.343503-.556497s.556497-.839592.556497-1.343503v-2c0-.503911-.200178-.987184-.556497-1.343503s-.839592-.556497-1.343503-.556497v0c-.503911,0-.987184.200178-1.343503.556497s-.556497.839592-.556497,1.343503v2c0,.503911.200178.987184.556497,1.343503s.839592.556497,1.343503.556497Z" fill="#381b18"/><path d="M96.92,123.07c1.38-.76,4.07-1.56,6.44,1.59c0,0-1.19-4.58-7.1-3.53-.329725.034824-.620751.230813-.776987.523254s-.157364.643306-.003013.936746v0c.110208.270143.332898.478683.609685.570945s.580063.059044.830315-.090945Z" fill="#381b18"/><path d="M87.71,123.07c-2.471682-1.352972-5.562685-.674147-7.24,1.59s1.34-4.58,8-3.53c.345934.006171.664099.190723.84121.487943s.188.664876.02879.972057v0c-.327747.569896-1.0457.781317-1.63.48Z" fill="#381b18"/><path d="M98.88,144.49c0,0-4.93,3.6-13,0c0,0,2.18,7.83,7.49,7.83c3.26,0,5.51-7.83,5.51-7.83Z" fill="#fff"/><ellipse rx="6.94" ry="8.22" transform="translate(68.65 132.87)" fill="#1a1f29"/><path d="M61.71,133c0,3.72,2.57,6.73,5.73,6.73s5.74-3,5.74-6.73-2.57-6.72-5.74-6.72-5.73,2.99-5.73,6.72Z" fill="#0a0c0e"/><path d="M69,132.2h1.83v-21.77c-.001976-1.724975,1.210264-3.213105,2.9-3.56h6v-1.82h-6.21c-2.611608.460567-4.516668,2.728094-4.52,5.38Z" fill="#0a0c0e"/><path d="M107.52,101.31c0,0,3.59,14.3-18.23,14.3-10.31,0-16.08-2.9-16.08-6.18c0-17.89,27.87,3.51,34.31-8.12Z" fill="#381b18"/><polygon points="123.87,251.71 132.79,252.51 140.73,245 137.87,234.27 124.35,241.14 123.87,251.71" fill="#eaae7f"/><path d="M135.38,239.89l1.67-4.81c.161865-.468399.57775-.802662,1.07-.86l9.18-1c.404496-.041169.804729.110771,1.08.41l7.82,8.4c.038771.038865.07238.082557.1.13l1.55,2.18c.273871.401296.29694.92305.059556,1.346951s-.694297.676866-1.179556.653049c-1.322674.020166-2.608154-.437919-3.62-1.29l-2.85-2.69c-.059475-.082703-.130151-.156744-.21-.22L145.29,238c-.350057-.30932-.841665-.401497-1.28-.24l-2.7,1c-.095801.034507-.186595.081586-.27.14l-3.73,2.49c-.363141.248259-.827757.294358-1.232602.122299s-.694107-.538557-.767398-.972299v0c-.034261-.219052-.010115-.443266.07-.65Z" fill="#eaae7f"/><path d="M139.1,235l8.25-.89c.53743-.055826,1.062572.185663,1.37.63l6,8.84Z" fill="#c4814e"/><path d="M136,239.9l1.88-4.23c.17369-.404029.560924-.675093,1-.7l8.4-.22c.37036-.010323.72337.156893.95.45l6.45,8.22.08.13l1.24,2.1c.226364.386733.211955.868785-.037103,1.241308s-.68901.570069-1.132897.508692c-1.199912-.085067-2.328936-.599873-3.18-1.45l-2.39-2.66c-.047799-.079776-.104862-.153622-.17-.22l-4-4.12c-.291424-.309565-.731941-.429354-1.14-.31l-2.53.69c-.09034.02286-.177625.056431-.26.1l-3.57,2c-.346113.190736-.765123.193861-1.114043.008308s-.580591-.534704-.615957-.928308v0c-.010624-.212366.037837-.42352.14-.61Z" fill="#eaae7f"/><path d="M138.89,238.1l7.38-.95c.51018-.070409,1.013354.169385,1.28.61l5.28,8.5Z" fill="#c4814e"/><path d="M136.76,242.09l1.54-3.46c.157278-.331575.48354-.550363.85-.57l6.87-.18c.301479-.008823.588516.129104.77.37l5.27,6.72.07.1l1,1.71c.162591.326747.134262.716122-.073913,1.015894s-.563128.462324-.926087.424106c-.981163-.072687-1.903699-.494925-2.6-1.19l-2-2.18c-.037652-.060794-.081195-.117735-.13-.17l-3.27-3.37c-.246967-.243945-.602778-.342361-.94-.26l-2.06.57c-.072783.018692-.143228.045528-.21.08L138,243.31c-.285493.136607-.618801.130001-.898657-.01781s-.47322-.419378-.521343-.73219v0c.01895-.16945.080912-.331241.18-.47Z" fill="#eaae7f"/><path d="M139.86,241.74l4.54-1.41c.510322-.160683,1.065793.02988,1.37.47l3.95,5.84Z" fill="#c4814e"/><path d="M138.47,242l5.62-1.13c.525002-.101108,1.063047.094894,1.4.51l4.23,5.24c.277838.345709.380868.800162.279285,1.231891s-.396445.792559-.799285.978109v0c-.573295.261205-1.249829.119416-1.67-.35l-3.46-3.87c-.399865-.458458-1.04734-.611278-1.61-.38l-3,1.21c-.395542.175147-.848627.164544-1.235543-.028913s-.66725-.549565-.764457-.971087l-.14-.7c-.088264-.384128-.01522-.787646.202098-1.116458s.559916-.554177.947902-.623542Z" fill="#eaae7f"/><path d="M80,256.26v0c5.31046-1.946781,8.040325-7.827177,6.1-13.14L64,182.72c-1.942444-5.309149-7.819849-8.039702-13.13-6.1v0c-2.551439.930835-4.62858,2.837141-5.774439,5.299519s-1.266564,5.279103-.335561,7.830481l22.07,60.4c.93044,2.561055,2.843245,4.645662,5.315028,5.792403s5.298678,1.261041,7.854972.317597Z" fill="#c0d3eb"/><path d="M114.29,256.63L114.1,237l-37.87.38c-2.604398.021096-5.093275,1.07804-6.917012,2.937426s-2.832307,4.368256-2.802988,6.972574v0c.060438,5.415692,4.494202,9.759975,9.91,9.71Z" fill="#c0d3eb"/><rect width="21.59" height="15.09" rx="0" ry="0" transform="matrix(.009948 0.999951-.999951 0.009948 127.599945 235.783354)" fill="#5f78a0"/><path d="M201.55,382.75l-14.51.07c-4.33-7.2.8-14.1.8-14.1c1.38,1.89,12.72,2.35,16-.76s4.29-2.42,4.29-2.42s8.44,6,13.1,8.53s7.39,1,12,2.7c2.606943.790374,4.458883,3.103312,4.66,5.82l-32,.14c-.75-.65-4.01-.63-4.34.02Z" fill="#323443"/><path d="M205.9,382.73l32-.14v1.83c.000022.697515-.562507,1.264508-1.26,1.27l-27.36.12c-.459546.001575-.893014-.213307-1.17-.58-.645047-.910044-1.385962-1.748183-2.21-2.5Z" fill="#28282b"/><path d="M187,382.82l14.51-.07c-.195341.428967-.281238.899686-.25,1.37.033033.44051-.116385.875242-.413254,1.202365s-.715107.517897-1.156746.527635l-11.42.06Z" fill="#28282b"/><rect width="82.43" height="24.66" rx="0" ry="0" transform="matrix(-1 0 0-1 191.37 295.93)" fill="#1a1d27"/><polygon points="163.6,275.9 184.49,373.76 210.92,366.75 191.58,271.34 163.6,275.9" fill="#1a1d27"/><path d="M62.92,264.58l7.2,21.91c1.844423,5.622095,7.083121,9.430225,13,9.45h43.6l-16.6-31.36Z" fill="#323443"/><rect width="60.57" height="24.69" rx="0" ry="0" transform="matrix(-1 0 0-1 146.46 295.93)" fill="#323443"/><path d="M157.69,389.67l-14.51.06c-4.33-7.19.79-14.09.79-14.09c1.39,1.88,12.73,2.35,16-.76s4.29-2.42,4.29-2.42s8.44,6,13.09,8.53s7.4,1,12,2.69c2.606832.796596,4.45734,3.111716,4.66,5.83l-32,.14c-.73-.65-4.01-.65-4.32.02Z" fill="#575759"/><path d="M162,389.65l32-.14v1.82c.002666.335902-.128906.658963-.365491.897426s-.558596.372585-.894509.372574l-27.36.13c-.462461.0041-.898352-.215708-1.17-.59-.645496-.906649-1.386402-1.741426-2.21-2.49Z" fill="#323443"/><path d="M143.18,389.73l14.51-.06c-.19307.429906-.282143.899251-.26,1.37.035933.43951-.111122.874365-.406434,1.201857s-.712693.518585-1.153566.528143l-11.42.05Z" fill="#323443"/><polygon points="119.44,275.73 140.75,383.18 167,373.09 146.67,271.31 119.44,275.73" fill="#323443"/><polygon points="281.71,397 289.15,397 274.5,260.2 261.2,260.2 281.71,397" fill="#4e546a"/><polygon points="100.54,397 107.98,397 118.72,260.2 105.43,260.2 100.54,397" fill="#454b5f"/><polygon points="18.84,397 26.27,397 49.71,260.2 36.41,260.2 18.84,397" fill="#454b5f"/><rect width="276.94" height="8.65" rx="0" ry="0" transform="matrix(-1 0 0-1 294.96 260.99)" fill="#d18348"/><g style="mix-blend-mode:multiply" opacity="0.5"><rect width="119.29" height="8.65" rx="0" ry="0" transform="matrix(-1 0 0-1 137.32 260.99)" fill="#d18348"/></g><rect width="64.37" height="4.24" rx="0" ry="0" transform="matrix(-1 0 0-1 175.83 252.46)" fill="#1a1d27"/><polygon points="162,144.27 138.47,237.51 143.15,237.51 167.11,144.27 162,144.27" fill="#323443"/><polygon points="143.15,237.51 209.29,237.51 231.54,144.18 166.78,144.18 143.15,237.51" fill="#1a1d27"/><path d="M187.62,248.23l-2.86-41.12c-.06612-1.026318-.653358-1.947235-1.555994-2.440135s-1.994845-.489075-2.894006.010135v0c-1.033945.561833-1.643951,1.676266-1.56,2.85l2.92,40.7Z" fill="#323443"/><rect width="46.96" height="4.24" rx="0" ry="0" transform="matrix(-1 0 0-1 206.97 252.46)" fill="#323443"/><path d="M169.21,197.61h34c.297042,0,.581919-.118.79196-.32804s.32804-.494918.32804-.79196v0c0-.297042-.118-.581919-.32804-.79196s-.494918-.32804-.79196-.32804h-34c-.297042,0-.581919.118-.79196.32804s-.32804.494918-.32804.79196v0c0,.297042.118.581919.32804.79196s.494918.32804.79196.32804Z" fill="#323443"/></g></g><script><![CDATA[!function(t,n){"object"==typeof exports&&"undefined"!=typeof module?module.exports=n():"function"==typeof define&&define.amd?define(n):((t="undefined"!=typeof globalThis?globalThis:t||self).__SVGATOR_PLAYER__=t.__SVGATOR_PLAYER__||{},t.__SVGATOR_PLAYER__["5c7f360c"]=n())}(this,(function(){"use strict";function t(t,n){var e=Object.keys(t);if(Object.getOwnPropertySymbols){var r=Object.getOwnPropertySymbols(t);n&&(r=r.filter((function(n){return Object.getOwnPropertyDescriptor(t,n).enumerable}))),e.push.apply(e,r)}return e}function n(n){for(var e=1;e<arguments.length;e++){var r=null!=arguments[e]?arguments[e]:{};e%2?t(Object(r),!0).forEach((function(t){o(n,t,r[t])})):Object.getOwnPropertyDescriptors?Object.defineProperties(n,Object.getOwnPropertyDescriptors(r)):t(Object(r)).forEach((function(t){Object.defineProperty(n,t,Object.getOwnPropertyDescriptor(r,t))}))}return n}function e(t){return(e="function"==typeof Symbol&&"symbol"==typeof Symbol.iterator?function(t){return typeof t}:function(t){return t&&"function"==typeof Symbol&&t.constructor===Symbol&&t!==Symbol.prototype?"symbol":typeof t})(t)}function r(t,n){if(!(t instanceof n))throw new TypeError("Cannot call a class as a function")}function i(t,n){for(var e=0;e<n.length;e++){var r=n[e];r.enumerable=r.enumerable||!1,r.configurable=!0,"value"in r&&(r.writable=!0),Object.defineProperty(t,r.key,r)}}function u(t,n,e){return n&&i(t.prototype,n),e&&i(t,e),t}function o(t,n,e){return n in t?Object.defineProperty(t,n,{value:e,enumerable:!0,configurable:!0,writable:!0}):t[n]=e,t}function a(t){return(a=Object.setPrototypeOf?Object.getPrototypeOf:function(t){return t.__proto__||Object.getPrototypeOf(t)})(t)}function l(t,n){return(l=Object.setPrototypeOf||function(t,n){return t.__proto__=n,t})(t,n)}function s(){if("undefined"==typeof Reflect||!Reflect.construct)return!1;if(Reflect.construct.sham)return!1;if("function"==typeof Proxy)return!0;try{return Boolean.prototype.valueOf.call(Reflect.construct(Boolean,[],(function(){}))),!0}catch(t){return!1}}function f(t,n,e){return(f=s()?Reflect.construct:function(t,n,e){var r=[null];r.push.apply(r,n);var i=new(Function.bind.apply(t,r));return e&&l(i,e.prototype),i}).apply(null,arguments)}function c(t,n){if(n&&("object"==typeof n||"function"==typeof n))return n;if(void 0!==n)throw new TypeError("Derived constructors may only return object or undefined");return function(t){if(void 0===t)throw new ReferenceError("this hasn't been initialised - super() hasn't been called");return t}(t)}function h(t,n,e){return(h="undefined"!=typeof Reflect&&Reflect.get?Reflect.get:function(t,n,e){var r=function(t,n){for(;!Object.prototype.hasOwnProperty.call(t,n)&&null!==(t=a(t)););return t}(t,n);if(r){var i=Object.getOwnPropertyDescriptor(r,n);return i.get?i.get.call(e):i.value}})(t,n,e||t)}function v(t){return function(t){if(Array.isArray(t))return y(t)}(t)||function(t){if("undefined"!=typeof Symbol&&null!=t[Symbol.iterator]||null!=t["@@iterator"])return Array.from(t)}(t)||function(t,n){if(!t)return;if("string"==typeof t)return y(t,n);var e=Object.prototype.toString.call(t).slice(8,-1);"Object"===e&&t.constructor&&(e=t.constructor.name);if("Map"===e||"Set"===e)return Array.from(t);if("Arguments"===e||/^(?:Ui|I)nt(?:8|16|32)(?:Clamped)?Array$/.test(e))return y(t,n)}(t)||function(){throw new TypeError("Invalid attempt to spread non-iterable instance.\nIn order to be iterable, non-array objects must have a [Symbol.iterator]() method.")}()}function y(t,n){(null==n||n>t.length)&&(n=t.length);for(var e=0,r=new Array(n);e<n;e++)r[e]=t[e];return r}Number.isInteger||(Number.isInteger=function(t){return"number"==typeof t&&isFinite(t)&&Math.floor(t)===t}),Number.EPSILON||(Number.EPSILON=2220446049250313e-31);var g=d(Math.pow(10,-6));function d(t){var n=arguments.length>1&&void 0!==arguments[1]?arguments[1]:6;if(Number.isInteger(t))return t;var e=Math.pow(10,n);return Math.round((+t+Number.EPSILON)*e)/e}function p(t,n){var e=arguments.length>2&&void 0!==arguments[2]?arguments[2]:g;return Math.abs(t-n)<e}var m=Math.PI/180;function b(t){return t}function w(t,n,e){var r=1-e;return 3*e*r*(t*r+n*e)+e*e*e}function x(){var t=arguments.length>0&&void 0!==arguments[0]?arguments[0]:0,n=arguments.length>1&&void 0!==arguments[1]?arguments[1]:0,e=arguments.length>2&&void 0!==arguments[2]?arguments[2]:1,r=arguments.length>3&&void 0!==arguments[3]?arguments[3]:1;return t<0||t>1||e<0||e>1?null:p(t,n)&&p(e,r)?b:function(i){if(i<=0)return t>0?i*n/t:0===n&&e>0?i*r/e:0;if(i>=1)return e<1?1+(i-1)*(r-1)/(e-1):1===e&&t<1?1+(i-1)*(n-1)/(t-1):1;for(var u,o=0,a=1;o<a;){var l=w(t,e,u=(o+a)/2);if(p(i,l))break;l<i?o=u:a=u}return w(n,r,u)}}function A(){return 1}function k(t){return 1===t?1:0}function _(){var t=arguments.length>0&&void 0!==arguments[0]?arguments[0]:1,n=arguments.length>1&&void 0!==arguments[1]?arguments[1]:0;if(1===t){if(0===n)return k;if(1===n)return A}var e=1/t;return function(t){return t>=1?1:(t+=n*e)-t%e}}var S=Math.sin,O=Math.cos,j=Math.acos,M=Math.asin,P=Math.tan,E=Math.atan2,I=Math.PI/180,R=180/Math.PI,F=Math.sqrt,N=function(){function t(){var n=arguments.length>0&&void 0!==arguments[0]?arguments[0]:1,e=arguments.length>1&&void 0!==arguments[1]?arguments[1]:0,i=arguments.length>2&&void 0!==arguments[2]?arguments[2]:0,u=arguments.length>3&&void 0!==arguments[3]?arguments[3]:1,o=arguments.length>4&&void 0!==arguments[4]?arguments[4]:0,a=arguments.length>5&&void 0!==arguments[5]?arguments[5]:0;r(this,t),this.m=[n,e,i,u,o,a],this.i=null,this.w=null,this.s=null}return u(t,[{key:"determinant",get:function(){var t=this.m;return t[0]*t[3]-t[1]*t[2]}},{key:"isIdentity",get:function(){if(null===this.i){var t=this.m;this.i=1===t[0]&&0===t[1]&&0===t[2]&&1===t[3]&&0===t[4]&&0===t[5]}return this.i}},{key:"point",value:function(t,n){var e=this.m;return{x:e[0]*t+e[2]*n+e[4],y:e[1]*t+e[3]*n+e[5]}}},{key:"translateSelf",value:function(){var t=arguments.length>0&&void 0!==arguments[0]?arguments[0]:0,n=arguments.length>1&&void 0!==arguments[1]?arguments[1]:0;if(!t&&!n)return this;var e=this.m;return e[4]+=e[0]*t+e[2]*n,e[5]+=e[1]*t+e[3]*n,this.w=this.s=this.i=null,this}},{key:"rotateSelf",value:function(){var t=arguments.length>0&&void 0!==arguments[0]?arguments[0]:0;if(t%=360){var n=S(t*=I),e=O(t),r=this.m,i=r[0],u=r[1];r[0]=i*e+r[2]*n,r[1]=u*e+r[3]*n,r[2]=r[2]*e-i*n,r[3]=r[3]*e-u*n,this.w=this.s=this.i=null}return this}},{key:"scaleSelf",value:function(){var t=arguments.length>0&&void 0!==arguments[0]?arguments[0]:1,n=arguments.length>1&&void 0!==arguments[1]?arguments[1]:1;if(1!==t||1!==n){var e=this.m;e[0]*=t,e[1]*=t,e[2]*=n,e[3]*=n,this.w=this.s=this.i=null}return this}},{key:"skewSelf",value:function(t,n){if(n%=360,(t%=360)||n){var e=this.m,r=e[0],i=e[1],u=e[2],o=e[3];t&&(t=P(t*I),e[2]+=r*t,e[3]+=i*t),n&&(n=P(n*I),e[0]+=u*n,e[1]+=o*n),this.w=this.s=this.i=null}return this}},{key:"resetSelf",value:function(){var t=arguments.length>0&&void 0!==arguments[0]?arguments[0]:1,n=arguments.length>1&&void 0!==arguments[1]?arguments[1]:0,e=arguments.length>2&&void 0!==arguments[2]?arguments[2]:0,r=arguments.length>3&&void 0!==arguments[3]?arguments[3]:1,i=arguments.length>4&&void 0!==arguments[4]?arguments[4]:0,u=arguments.length>5&&void 0!==arguments[5]?arguments[5]:0,o=this.m;return o[0]=t,o[1]=n,o[2]=e,o[3]=r,o[4]=i,o[5]=u,this.w=this.s=this.i=null,this}},{key:"recomposeSelf",value:function(){var t=arguments.length>0&&void 0!==arguments[0]?arguments[0]:null,n=arguments.length>1&&void 0!==arguments[1]?arguments[1]:null,e=arguments.length>2&&void 0!==arguments[2]?arguments[2]:null,r=arguments.length>3&&void 0!==arguments[3]?arguments[3]:null,i=arguments.length>4&&void 0!==arguments[4]?arguments[4]:null;return this.isIdentity||this.resetSelf(),t&&(t.x||t.y)&&this.translateSelf(t.x,t.y),n&&this.rotateSelf(n),e&&(e.x&&this.skewSelf(e.x,0),e.y&&this.skewSelf(0,e.y)),!r||1===r.x&&1===r.y||this.scaleSelf(r.x,r.y),i&&(i.x||i.y)&&this.translateSelf(i.x,i.y),this}},{key:"decompose",value:function(){var t=arguments.length>0&&void 0!==arguments[0]?arguments[0]:0,n=arguments.length>1&&void 0!==arguments[1]?arguments[1]:0,e=this.m,r=e[0]*e[0]+e[1]*e[1],i=[[e[0],e[1]],[e[2],e[3]]],u=F(r);if(0===u)return{origin:{x:d(e[4]),y:d(e[5])},translate:{x:d(t),y:d(n)},scale:{x:0,y:0},skew:{x:0,y:0},rotate:0};i[0][0]/=u,i[0][1]/=u;var o=e[0]*e[3]-e[1]*e[2]<0;o&&(u=-u);var a=i[0][0]*i[1][0]+i[0][1]*i[1][1];i[1][0]-=i[0][0]*a,i[1][1]-=i[0][1]*a;var l=F(i[1][0]*i[1][0]+i[1][1]*i[1][1]);if(0===l)return{origin:{x:d(e[4]),y:d(e[5])},translate:{x:d(t),y:d(n)},scale:{x:d(u),y:0},skew:{x:0,y:0},rotate:0};i[1][0]/=l,i[1][1]/=l,a/=l;var s=0;return i[1][1]<0?(s=j(i[1][1])*R,i[0][1]<0&&(s=360-s)):s=M(i[0][1])*R,o&&(s=-s),a=E(a,F(i[0][0]*i[0][0]+i[0][1]*i[0][1]))*R,o&&(a=-a),{origin:{x:d(e[4]),y:d(e[5])},translate:{x:d(t),y:d(n)},scale:{x:d(u),y:d(l)},skew:{x:d(a),y:0},rotate:d(s)}}},{key:"clone",value:function(){var t=this.m;return new this.constructor(t[0],t[1],t[2],t[3],t[4],t[5])}},{key:"toString",value:function(){var t=arguments.length>0&&void 0!==arguments[0]?arguments[0]:" ";if(null===this.s){var n=this.m.map((function(t){return d(t)}));1===n[0]&&0===n[1]&&0===n[2]&&1===n[3]?this.s="translate("+n[4]+t+n[5]+")":this.s="matrix("+n.join(t)+")"}return this.s}}],[{key:"create",value:function(t){return t?Array.isArray(t)?f(this,v(t)):t instanceof this?t.clone():(new this).recomposeSelf(t.origin,t.rotate,t.skew,t.scale,t.translate):new this}}]),t}();function T(t,n,e){return t>=.5?e:n}function q(t,n,e){return 0===t||n===e?n:t*(e-n)+n}function B(t,n,e){var r=q(t,n,e);return r<=0?0:r}function L(t,n,e){var r=q(t,n,e);return r<=0?0:r>=1?1:r}function C(t,n,e){return 0===t?n:1===t?e:{x:q(t,n.x,e.x),y:q(t,n.y,e.y)}}function D(t,n,e){var r=function(t,n,e){return Math.round(q(t,n,e))}(t,n,e);return r<=0?0:r>=255?255:r}function z(t,n,e){return 0===t?n:1===t?e:{r:D(t,n.r,e.r),g:D(t,n.g,e.g),b:D(t,n.b,e.b),a:q(t,null==n.a?1:n.a,null==e.a?1:e.a)}}function V(t,n){for(var e=[],r=0;r<t;r++)e.push(n);return e}function G(t,n){if(--n<=0)return t;var e=(t=Object.assign([],t)).length;do{for(var r=0;r<e;r++)t.push(t[r])}while(--n>0);return t}var Y,$=function(){function t(n){r(this,t),this.list=n,this.length=n.length}return u(t,[{key:"setAttribute",value:function(t,n){for(var e=this.list,r=0;r<this.length;r++)e[r].setAttribute(t,n)}},{key:"removeAttribute",value:function(t){for(var n=this.list,e=0;e<this.length;e++)n[e].removeAttribute(t)}},{key:"style",value:function(t,n){for(var e=this.list,r=0;r<this.length;r++)e[r].style[t]=n}}]),t}(),U=/-./g,Q=function(t,n){return n.toUpperCase()};function H(t){return"function"==typeof t?t:T}function J(t){return t?"function"==typeof t?t:Array.isArray(t)?function(t){var n=arguments.length>1&&void 0!==arguments[1]?arguments[1]:b;if(!Array.isArray(t))return n;switch(t.length){case 1:return _(t[0])||n;case 2:return _(t[0],t[1])||n;case 4:return x(t[0],t[1],t[2],t[3])||n}return n}(t,null):function(t,n){var e=arguments.length>2&&void 0!==arguments[2]?arguments[2]:b;switch(t){case"linear":return b;case"steps":return _(n.steps||1,n.jump||0)||e;case"bezier":case"cubic-bezier":return x(n.x1||0,n.y1||0,n.x2||0,n.y2||0)||e}return e}(t.type,t.value,null):null}function Z(t,n,e){var r=arguments.length>3&&void 0!==arguments[3]&&arguments[3],i=n.length-1;if(t<=n[0].t)return r?[0,0,n[0].v]:n[0].v;if(t>=n[i].t)return r?[i,1,n[i].v]:n[i].v;var u,o=n[0],a=null;for(u=1;u<=i;u++){if(!(t>n[u].t)){a=n[u];break}o=n[u]}return null==a?r?[i,1,n[i].v]:n[i].v:o.t===a.t?r?[u,1,a.v]:a.v:(t=(t-o.t)/(a.t-o.t),o.e&&(t=o.e(t)),r?[u,t,e(t,o.v,a.v)]:e(t,o.v,a.v))}function K(t,n){var e=arguments.length>2&&void 0!==arguments[2]?arguments[2]:null;return t&&t.length?"function"!=typeof n?null:("function"!=typeof e&&(e=null),function(r){var i=Z(r,t,n);return null!=i&&e&&(i=e(i)),i}):null}function W(t,n){return t.t-n.t}function X(t,n,r,i,u){var o,a="@"===r[0],l="#"===r[0],s=Y[r],f=T;switch(a?(o=r.substr(1),r=o.replace(U,Q)):l&&(r=r.substr(1)),e(s)){case"function":if(f=s(i,u,Z,J,r,a,n,t),l)return f;break;case"string":f=K(i,H(s));break;case"object":if((f=K(i,H(s.i),s.f))&&"function"==typeof s.u)return s.u(n,f,r,a,t)}return f?function(t,n,e){if(arguments.length>3&&void 0!==arguments[3]&&arguments[3])return t instanceof $?function(r){return t.style(n,e(r))}:function(r){return t.style[n]=e(r)};if(Array.isArray(n)){var r=n.length;return function(i){var u=e(i);if(null==u)for(var o=0;o<r;o++)t[o].removeAttribute(n);else for(var a=0;a<r;a++)t[a].setAttribute(n,u)}}return function(r){var i=e(r);null==i?t.removeAttribute(n):t.setAttribute(n,i)}}(n,r,f,a):null}function tt(t,n,r,i){if(!i||"object"!==e(i))return null;var u=null,o=null;return Array.isArray(i)?o=function(t){if(!t||!t.length)return null;for(var n=0;n<t.length;n++)t[n].e&&(t[n].e=J(t[n].e));return t.sort(W)}(i):(o=i.keys,u=i.data||null),o?X(t,n,r,o,u):null}function nt(t,n,e){if(!e)return null;var r=[];for(var i in e)if(e.hasOwnProperty(i)){var u=tt(t,n,i,e[i]);u&&r.push(u)}return r.length?r:null}function et(t,n){if(!n.settings.duration||n.settings.duration<0)return null;var e,r,i,u,o,a=function(t,n){if(!n)return null;var e=[];if(Array.isArray(n))for(var r=n.length,i=0;i<r;i++){var u=n[i];if(2===u.length){var o=null;if("string"==typeof u[0])o=t.getElementById(u[0]);else if(Array.isArray(u[0])){o=[];for(var a=0;a<u[0].length;a++)if("string"==typeof u[0][a]){var l=t.getElementById(u[0][a]);l&&o.push(l)}o=o.length?1===o.length?o[0]:new $(o):null}if(o){var s=nt(t,o,u[1]);s&&(e=e.concat(s))}}}else for(var f in n)if(n.hasOwnProperty(f)){var c=t.getElementById(f);if(c){var h=nt(t,c,n[f]);h&&(e=e.concat(h))}}return e.length?e:null}(t,n.elements);return a?(e=a,r=n.settings,i=r.duration,u=e.length,o=null,function(t,n){var a=r.iterations||1/0,l=(r.alternate&&a%2==0)^r.direction>0?i:0,s=t%i,f=1+(t-s)/i;n*=r.direction,r.alternate&&f%2==0&&(n=-n);var c=!1;if(f>a)s=l,c=!0,-1===r.fill&&(s=r.direction>0?0:i);else if(n<0&&(s=i-s),s===o)return!1;o=s;for(var h=0;h<u;h++)e[h](s);return c}):null}function rt(t,n){if(Y=n,!t||!t.root||!Array.isArray(t.animations))return null;var e=function(t){for(var n=document.getElementsByTagName("svg"),e=0;e<n.length;e++)if(n[e].id===t.root&&!n[e].svgatorAnimation)return n[e].svgatorAnimation=!0,n[e];return null}(t);if(!e)return null;var r=t.animations.map((function(t){return et(e,t)})).filter((function(t){return!!t}));return r.length?{svg:e,animations:r,animationSettings:t.animationSettings,options:t.options||void 0}:null}function it(t){return+("0x"+(t.replace(/[^0-9a-fA-F]+/g,"")||27))}function ut(t,n,e){return!t||!e||n>t.length?t:t.substring(0,n)+ut(t.substring(n+1),e,e)}function ot(t){var n=arguments.length>1&&void 0!==arguments[1]?arguments[1]:27;return!t||t%n?t%n:ot(t/n,n)}function at(t,n,e){if(t&&t.length){var r=it(e),i=it(n),u=ot(r)+5,o=ut(t,ot(r,5),u);return o=o.replace(/\x7c$/g,"==").replace(/\x2f$/g,"="),o=function(t,n,e){var r=+("0x"+t.substring(0,4));t=t.substring(4);for(var i=n%r+e%27,u=[],o=0;o<t.length;o+=2)if("|"!==t[o]){var a=+("0x"+t[o]+t[o+1])-i;u.push(a)}else{var l=+("0x"+t.substring(o+1,o+1+4))-i;o+=3,u.push(l)}return String.fromCharCode.apply(String,u)}(o=(o=atob(o)).replace(/[\x41-\x5A]/g,""),i,r),o=JSON.parse(o)}}var lt=[{key:"alternate",def:!1},{key:"fill",def:1},{key:"iterations",def:0},{key:"direction",def:1},{key:"speed",def:1},{key:"fps",def:100}],st=function(){function t(n,e){var i=this,u=arguments.length>2&&void 0!==arguments[2]?arguments[2]:null;r(this,t),this._id=0,this._running=!1,this._rollingBack=!1,this._animations=n,this._settings=e,(!u||u<"2022-05-02")&&delete this._settings.speed,lt.forEach((function(t){i._settings[t.key]=i._settings[t.key]||t.def})),this.duration=e.duration,this.offset=e.offset||0,this.rollbackStartOffset=0}return u(t,[{key:"alternate",get:function(){return this._settings.alternate}},{key:"fill",get:function(){return this._settings.fill}},{key:"iterations",get:function(){return this._settings.iterations}},{key:"direction",get:function(){return this._settings.direction}},{key:"speed",get:function(){return this._settings.speed}},{key:"fps",get:function(){return this._settings.fps}},{key:"maxFiniteDuration",get:function(){return this.iterations>0?this.iterations*this.duration:this.duration}},{key:"_apply",value:function(t){for(var n=arguments.length>1&&void 0!==arguments[1]?arguments[1]:{},e=this._animations,r=e.length,i=0,u=0;u<r;u++)n[u]?i++:(n[u]=e[u](t,1),n[u]&&i++);return i}},{key:"_rollback",value:function(t){var n=this,e=1/0,r=null;this.rollbackStartOffset=t,this._rollingBack=!0,this._running=!0;this._id=window.requestAnimationFrame((function i(u){if(n._rollingBack){null==r&&(r=u);var o=Math.round(t-(u-r)*n.speed);if(o>n.duration&&e!==1/0){var a=!!n.alternate&&o/n.duration%2>1,l=o%n.duration;o=(l+=a?n.duration:0)||n.duration}var s=(n.fps?1e3/n.fps:0)*n.speed,f=Math.max(0,o);f<e-s&&(n.offset=f,e=f,n._apply(f));var c=n.iterations>0&&-1===n.fill&&o>=n.maxFiniteDuration;(o<=0||n.offset<o||c)&&n.stop(),n._id=window.requestAnimationFrame(i)}}))}},{key:"_start",value:function(){var t=this,n=arguments.length>0&&void 0!==arguments[0]?arguments[0]:0,e=-1/0,r=null,i={};this._running=!0;var u=function u(o){null==r&&(r=o);var a=Math.round((o-r)*t.speed+n),l=(t.fps?1e3/t.fps:0)*t.speed;if(a>e+l&&!t._rollingBack&&(t.offset=a,e=a,t._apply(a,i)===t._animations.length))return void t.pause(!0);t._id=window.requestAnimationFrame(u)};this._id=window.requestAnimationFrame(u)}},{key:"_pause",value:function(){this._id&&window.cancelAnimationFrame(this._id),this._running=!1}},{key:"play",value:function(){if(!this._running)return this._rollingBack?this._rollback(this.offset):this._start(this.offset)}},{key:"stop",value:function(){this._pause(),this.offset=0,this.rollbackStartOffset=0,this._rollingBack=!1,this._apply(0)}},{key:"reachedToEnd",value:function(){return this.iterations>0&&this.offset>=this.iterations*this.duration}},{key:"restart",value:function(){var t=arguments.length>0&&void 0!==arguments[0]&&arguments[0];this.stop(t),this.play(t)}},{key:"pause",value:function(){this._pause()}},{key:"reverse",value:function(){this.direction=-this.direction}}],[{key:"build",value:function(t,n){delete t.animationSettings,t.options=at(t.options,t.root,"5c7f360c"),t.animations.map((function(n){n.settings=at(n.s,t.root,"5c7f360c"),delete n.s,t.animationSettings||(t.animationSettings=n.settings)}));var e=t.version;if(!(t=rt(t,n)))return null;var r=t.options||{},i=new this(t.animations,t.animationSettings,e);return{el:t.svg,options:r,player:i}}},{key:"push",value:function(t){return this.build(t)}},{key:"init",value:function(){var t=this,n=window.__SVGATOR_PLAYER__&&window.__SVGATOR_PLAYER__["5c7f360c"];Array.isArray(n)&&n.splice(0).forEach((function(n){return t.build(n)}))}}]),t}();function ft(t){return d(t)+""}function ct(t){var n=arguments.length>1&&void 0!==arguments[1]?arguments[1]:" ";return t&&t.length?t.map(ft).join(n):""}function ht(t){if(!t)return"transparent";if(null==t.a||t.a>=1){var n=function(t){return 1===(t=parseInt(t).toString(16)).length?"0"+t:t},e=function(t){return t.charAt(0)===t.charAt(1)},r=n(t.r),i=n(t.g),u=n(t.b);return e(r)&&e(i)&&e(u)&&(r=r.charAt(0),i=i.charAt(0),u=u.charAt(0)),"#"+r+i+u}return"rgba("+t.r+","+t.g+","+t.b+","+t.a+")"}function vt(t){return t?"url(#"+t+")":"none"}!function(){for(var t=0,n=["ms","moz","webkit","o"],e=0;e<n.length&&!window.requestAnimationFrame;++e)window.requestAnimationFrame=window[n[e]+"RequestAnimationFrame"],window.cancelAnimationFrame=window[n[e]+"CancelAnimationFrame"]||window[n[e]+"CancelRequestAnimationFrame"];window.requestAnimationFrame||(window.requestAnimationFrame=function(n){var e=Date.now(),r=Math.max(0,16-(e-t)),i=window.setTimeout((function(){n(e+r)}),r);return t=e+r,i},window.cancelAnimationFrame=window.clearTimeout)}();var yt={f:null,i:function(t,n,e){return 0===t?n:1===t?e:{x:B(t,n.x,e.x),y:B(t,n.y,e.y)}},u:function(t,n){return function(e){var r=n(e);t.setAttribute("rx",ft(r.x)),t.setAttribute("ry",ft(r.y))}}},gt={f:null,i:function(t,n,e){return 0===t?n:1===t?e:{width:B(t,n.width,e.width),height:B(t,n.height,e.height)}},u:function(t,n){return function(e){var r=n(e);t.setAttribute("width",ft(r.width)),t.setAttribute("height",ft(r.height))}}};Object.freeze({M:2,L:2,Z:0,H:1,V:1,C:6,Q:4,T:2,S:4,A:7});var dt={},pt=null;function mt(t){var n=function(){if(pt)return pt;if("object"!==("undefined"==typeof document?"undefined":e(document))||!document.createElementNS)return{};var t=document.createElementNS("http://www.w3.org/2000/svg","svg");return t&&t.style?(t.style.position="absolute",t.style.opacity="0.01",t.style.zIndex="-9999",t.style.left="-9999px",t.style.width="1px",t.style.height="1px",pt={svg:t}):{}}().svg;if(!n)return function(t){return null};var r=document.createElementNS(n.namespaceURI,"path");r.setAttributeNS(null,"d",t),r.setAttributeNS(null,"fill","none"),r.setAttributeNS(null,"stroke","none"),n.appendChild(r);var i=r.getTotalLength();return function(t){var n=r.getPointAtLength(i*t);return{x:n.x,y:n.y}}}function bt(t){return dt[t]?dt[t]:dt[t]=mt(t)}function wt(t,n,e,r){if(!t||!r)return!1;var i=["M",t.x,t.y];if(n&&e&&(i.push("C"),i.push(n.x),i.push(n.y),i.push(e.x),i.push(e.y)),n?!e:e){var u=n||e;i.push("Q"),i.push(u.x),i.push(u.y)}return n||e||i.push("L"),i.push(r.x),i.push(r.y),i.join(" ")}function xt(t,n,e,r){var i=arguments.length>4&&void 0!==arguments[4]?arguments[4]:1,u=wt(t,n,e,r),o=bt(u);try{return o(i)}catch(t){return null}}function At(t,n,e){return t+(n-t)*e}function kt(t,n,e){var r=arguments.length>3&&void 0!==arguments[3]&&arguments[3],i={x:At(t.x,n.x,e),y:At(t.y,n.y,e)};return r&&(i.a=_t(t,n)),i}function _t(t,n){return Math.atan2(n.y-t.y,n.x-t.x)}function St(t,n,e,r){var i=1-r;return i*i*t+2*i*r*n+r*r*e}function Ot(t,n,e,r){return 2*(1-r)*(n-t)+2*r*(e-n)}function jt(t,n,e,r){var i=arguments.length>4&&void 0!==arguments[4]&&arguments[4],u=xt(t,n,null,e,r);return u||(u={x:St(t.x,n.x,e.x,r),y:St(t.y,n.y,e.y,r)}),i&&(u.a=Mt(t,n,e,r)),u}function Mt(t,n,e,r){return Math.atan2(Ot(t.y,n.y,e.y,r),Ot(t.x,n.x,e.x,r))}function Pt(t,n,e,r,i){var u=i*i;return i*u*(r-t+3*(n-e))+3*u*(t+e-2*n)+3*i*(n-t)+t}function Et(t,n,e,r,i){var u=1-i;return 3*(u*u*(n-t)+2*u*i*(e-n)+i*i*(r-e))}function It(t,n,e,r,i){var u=arguments.length>5&&void 0!==arguments[5]&&arguments[5],o=xt(t,n,e,r,i);return o||(o={x:Pt(t.x,n.x,e.x,r.x,i),y:Pt(t.y,n.y,e.y,r.y,i)}),u&&(o.a=Rt(t,n,e,r,i)),o}function Rt(t,n,e,r,i){return Math.atan2(Et(t.y,n.y,e.y,r.y,i),Et(t.x,n.x,e.x,r.x,i))}function Ft(t,n,e){var r=arguments.length>3&&void 0!==arguments[3]&&arguments[3];if(Tt(n)){if(qt(e))return jt(n,e.start,e,t,r)}else if(Tt(e)){if(Bt(n))return jt(n,n.end,e,t,r)}else{if(Bt(n))return qt(e)?It(n,n.end,e.start,e,t,r):jt(n,n.end,e,t,r);if(qt(e))return jt(n,e.start,e,t,r)}return kt(n,e,t,r)}function Nt(t,n,e){var r=Ft(t,n,e,!0);return r.a=function(t){return arguments.length>1&&void 0!==arguments[1]&&arguments[1]?t+Math.PI:t}(r.a)/m,r}function Tt(t){return!t.type||"corner"===t.type}function qt(t){return null!=t.start&&!Tt(t)}function Bt(t){return null!=t.end&&!Tt(t)}var Lt=new N;var Ct={f:ft,i:q},Dt={f:ft,i:L};function zt(t,n,e){return t.map((function(t){return function(t,n,e){var r=t.v;if(!r||"g"!==r.t||r.s||!r.v||!r.r)return t;var i=e.getElementById(r.r),u=i&&i.querySelectorAll("stop")||[];return r.s=r.v.map((function(t,n){var e=u[n]&&u[n].getAttribute("offset");return{c:t,o:e=d(parseInt(e)/100)}})),delete r.v,t}(t,0,e)}))}var Vt={gt:"gradientTransform",c:{x:"cx",y:"cy"},rd:"r",f:{x:"x1",y:"y1"},to:{x:"x2",y:"y2"}};function Gt(t,n,r,i,u,o,a,l){return zt(t,0,l),n=function(t,n,e){for(var r,i,u,o=t.length-1,a={},l=0;l<=o;l++)(r=t[l]).e&&(r.e=n(r.e)),r.v&&"g"===(i=r.v).t&&i.r&&(u=e.getElementById(i.r))&&(a[i.r]={e:u,s:u.querySelectorAll("stop")});return a}(t,i,l),function(i){var u=r(i,t,Yt);if(!u)return"none";if("c"===u.t)return ht(u.v);if("g"===u.t){if(!n[u.r])return vt(u.r);var o=n[u.r];return function(t,n){for(var e=t.s,r=e.length;r<n.length;r++){var i=e[e.length-1].cloneNode();i.id=Qt(i.id),t.e.appendChild(i),e=t.s=t.e.querySelectorAll("stop")}for(var u=0,o=e.length,a=n.length-1;u<o;u++)e[u].setAttribute("stop-color",ht(n[Math.min(u,a)].c)),e[u].setAttribute("offset",n[Math.min(u,a)].o)}(o,u.s),Object.keys(Vt).forEach((function(t){if(void 0!==u[t])if("object"!==e(Vt[t])){var n,r="gt"===t?(n=u[t],Array.isArray(n)?"matrix("+n.join(" ")+")":""):u[t],i=Vt[t];o.e.setAttribute(i,r)}else Object.keys(Vt[t]).forEach((function(n){if(void 0!==u[t][n]){var e=u[t][n],r=Vt[t][n];o.e.setAttribute(r,e)}}))})),vt(u.r)}return"none"}}function Yt(t,e,r){if(0===t)return e;if(1===t)return r;if(e&&r){var i=e.t;if(i===r.t)switch(e.t){case"c":return{t:i,v:z(t,e.v,r.v)};case"g":if(e.r===r.r){var u={t:i,s:$t(t,e.s,r.s),r:e.r};return e.gt&&r.gt&&(u.gt=function(t,n,e){var r=n.length;if(r!==e.length)return T(t,n,e);for(var i=new Array(r),u=0;u<r;u++)i[u]=q(t,n[u],e[u]);return i}(t,e.gt,r.gt)),e.c?(u.c=C(t,e.c,r.c),u.rd=B(t,e.rd,r.rd)):e.f&&(u.f=C(t,e.f,r.f),u.to=C(t,e.to,r.to)),u}}if("c"===e.t&&"g"===r.t||"c"===r.t&&"g"===e.t){var o="c"===e.t?e:r,a="g"===e.t?n({},e):n({},r),l=a.s.map((function(t){return{c:o.v,o:t.o}}));return a.s="c"===e.t?$t(t,l,a.s):$t(t,a.s,l),a}}return T(t,e,r)}function $t(t,n,e){if(n.length===e.length)return n.map((function(n,r){return Ut(t,n,e[r])}));for(var r=Math.max(n.length,e.length),i=[],u=0;u<r;u++){var o=Ut(t,n[Math.min(u,n.length-1)],e[Math.min(u,e.length-1)]);i.push(o)}return i}function Ut(t,n,e){return{o:L(t,n.o,e.o||0),c:z(t,n.c,e.c||{})}}function Qt(t){return t.replace(/-fill-([0-9]+)$/,(function(t,n){return"-fill-"+(+n+1)}))}var Ht={fill:Gt,"fill-opacity":Dt,stroke:Gt,"stroke-opacity":Dt,"stroke-width":Ct,"stroke-dashoffset":{f:ft,i:q},"stroke-dasharray":{f:function(t){var n=arguments.length>1&&void 0!==arguments[1]?arguments[1]:" ";return t&&t.length>0&&(t=t.map((function(t){return d(t,4)}))),ct(t,n)},i:function(t,n,e){var r,i,u,o=n.length,a=e.length;if(o!==a)if(0===o)n=V(o=a,0);else if(0===a)a=o,e=V(o,0);else{var l=(u=(r=o)*(i=a)/function(t,n){for(var e;n;)e=n,n=t%n,t=e;return t||1}(r,i))<0?-u:u;n=G(n,Math.floor(l/o)),e=G(e,Math.floor(l/a)),o=a=l}for(var s=[],f=0;f<o;f++)s.push(d(B(t,n[f],e[f])));return s}},opacity:Dt,transform:function(t,n,r,i){if(!(t=function(t,n){if(!t||"object"!==e(t))return null;var r=!1;for(var i in t)t.hasOwnProperty(i)&&(t[i]&&t[i].length?(t[i].forEach((function(t){t.e&&(t.e=n(t.e))})),r=!0):delete t[i]);return r?t:null}(t,i)))return null;var u=function(e,i,u){var o=arguments.length>3&&void 0!==arguments[3]?arguments[3]:null;return t[e]?r(i,t[e],u):n&&n[e]?n[e]:o};return n&&n.a&&t.o?function(n){var e=r(n,t.o,Nt);return Lt.recomposeSelf(e,u("r",n,q,0)+e.a,u("k",n,C),u("s",n,C),u("t",n,C)).toString()}:function(t){return Lt.recomposeSelf(u("o",t,Ft,null),u("r",t,q,0),u("k",t,C),u("s",t,C),u("t",t,C)).toString()}},r:Ct,"#size":gt,"#radius":yt,_:function(t,n){if(Array.isArray(t))for(var e=0;e<t.length;e++)this[t[e]]=n;else this[t]=n}},Jt=function(t){!function(t,n){if("function"!=typeof n&&null!==n)throw new TypeError("Super expression must either be null or a function");t.prototype=Object.create(n&&n.prototype,{constructor:{value:t,writable:!0,configurable:!0}}),n&&l(t,n)}(o,t);var n,e,i=(n=o,e=s(),function(){var t,r=a(n);if(e){var i=a(this).constructor;t=Reflect.construct(r,arguments,i)}else t=r.apply(this,arguments);return c(this,t)});function o(){return r(this,o),i.apply(this,arguments)}return u(o,null,[{key:"build",value:function(t){var n=h(a(o),"build",this).call(this,t,Ht);if(!n)return null;n.el,n.options,function(t,n,e){t.play()}(n.player)}}]),o}(st);return Jt.init(),Jt}));
(function(s,i,o,w,a,b){w[o]=w[o]||{};w[o][s]=w[o][s]||[];w[o][s].push(i);})('5c7f360c',{"root":"eOzDnHYNPMa1","version":"2022-05-04","animations":[{"elements":{"eOzDnHYNPMa4":{"transform":{"data":{"o":{"x":135.333833,"y":153.553875,"type":"corner"},"t":{"x":-135.333832,"y":-153.553875}},"keys":{"r":[{"t":0,"v":0},{"t":400,"v":0},{"t":3000,"v":-94.604378,"e":[1,1]}]}}}},"s":"MKDA1NDk4M2Y4MTkyOGWY3ZTkxODY4YzhiM2YW1NzUwNGQ0ZDRkNDkzFZjgxODY4ZjgyODA5MXUY4NjhjOGIzZjU3NGRU0OTNmODY5MTgyOGYK3ZUg5MTg2OGM4YjkwHVTNmNTc0ZDQ5SDNmWXTgzODY4OTg5M2Y1NzMRhNGU0OTNmN2U4OTkJxODI4ZjhiN2VPOTE4LMjNmNTdSODM3ZTg5OMTA4MjQ5M2Y5MFg4ZEDE4MjgyODEzZjU3NGUB5YQ|"}],"options":"MUDAxMDg4MmY4MDgxNmPU3ZjgxMmY0N0QyZjcN5N2M2ZTcxMmZPOGE/A"},'__SVGATOR_PLAYER__',window)]]></script></svg>