<svg xmlns="http://www.w3.org/2000/svg" viewBox="0 0 390.98 117.74"><g id="Layer_2" data-name="Layer 2"><g id="Layer_1-2" data-name="Layer 1"><path d="M154.25,40.75a24,24,0,0,1,6.11.75,15.78,15.78,0,0,1,5,2.21,10.94,10.94,0,0,1,3.38,3.66A10.28,10.28,0,0,1,170,52.48H160.5a3.52,3.52,0,0,0-.47-1.79,4.56,4.56,0,0,0-1.27-1.36,6.3,6.3,0,0,0-1.85-.86,7.82,7.82,0,0,0-2.24-.31,7,7,0,0,0-5.31,1.89,7.29,7.29,0,0,0-1.79,5.26v2.87a7.31,7.31,0,0,0,1.79,5.26,7,7,0,0,0,5.31,1.88,8.59,8.59,0,0,0,2.24-.29,6.53,6.53,0,0,0,1.85-.84A4.33,4.33,0,0,0,160,62.9a3.13,3.13,0,0,0,.47-1.68h-7V55H170V72.18h-5.13l-1-3.05a14.57,14.57,0,0,1-4.79,2.69,19.29,19.29,0,0,1-6.23.91q-7.71,0-11.56-4t-3.85-12a19.69,19.69,0,0,1,1.13-6.94,12.92,12.92,0,0,1,3.29-5,14,14,0,0,1,5.28-3A22.94,22.94,0,0,1,154.25,40.75Z"/><path d="M205.43,50.77a9.31,9.31,0,0,1-.38,2.64,8.74,8.74,0,0,1-1.11,2.4,8.86,8.86,0,0,1-1.87,2,9.09,9.09,0,0,1-2.61,1.43l6.86,12.93H195.19l-5.48-11.26H186V72.18h-9.91V41.3H195a12.09,12.09,0,0,1,4.52.78,9.56,9.56,0,0,1,3.26,2.08,8.52,8.52,0,0,1,2,3A9.86,9.86,0,0,1,205.43,50.77Zm-10.11.42a2.86,2.86,0,0,0-.22-1.14,2.54,2.54,0,0,0-.6-.9,2.79,2.79,0,0,0-.89-.58,2.72,2.72,0,0,0-1.07-.21H186v5.7h6.51a2.73,2.73,0,0,0,1.07-.22,2.88,2.88,0,0,0,.89-.61,2.54,2.54,0,0,0,.6-.9A2.86,2.86,0,0,0,195.32,51.19Z"/><path d="M225.61,40.75a22.66,22.66,0,0,1,7.06,1,13.89,13.89,0,0,1,5.25,3,13.09,13.09,0,0,1,3.26,5,19.69,19.69,0,0,1,1.13,6.94,19.72,19.72,0,0,1-1.13,7,13,13,0,0,1-3.26,5,13.89,13.89,0,0,1-5.25,3,24.91,24.91,0,0,1-14.11,0,13.81,13.81,0,0,1-5.23-3,12.9,12.9,0,0,1-3.26-5,20,20,0,0,1-1.11-7,19.93,19.93,0,0,1,1.11-6.94,13,13,0,0,1,3.26-5,13.81,13.81,0,0,1,5.23-3A22.55,22.55,0,0,1,225.61,40.75Zm0,7.41a7.16,7.16,0,0,0-2.86.53,5.51,5.51,0,0,0-2,1.47,6.17,6.17,0,0,0-1.21,2.25,9.82,9.82,0,0,0-.41,2.9v2.87a9.8,9.8,0,0,0,.41,2.89,6.22,6.22,0,0,0,1.21,2.26,5.51,5.51,0,0,0,2,1.47,7.16,7.16,0,0,0,2.86.52,7.24,7.24,0,0,0,2.87-.52,5.58,5.58,0,0,0,2.05-1.47,6.1,6.1,0,0,0,1.23-2.26,9.8,9.8,0,0,0,.4-2.89V55.31a9.82,9.82,0,0,0-.4-2.9,6.06,6.06,0,0,0-1.23-2.25,5.58,5.58,0,0,0-2.05-1.47A7.24,7.24,0,0,0,225.61,48.16Z"/><path d="M278.38,59.75a14.25,14.25,0,0,1-1,5.63,10.53,10.53,0,0,1-3,4.05,13.4,13.4,0,0,1-4.82,2.47,25.83,25.83,0,0,1-13,0,13.45,13.45,0,0,1-4.83-2.47,10.66,10.66,0,0,1-3-4.05,14.07,14.07,0,0,1-1-5.63V41.3h9.9V59.62a7.49,7.49,0,0,0,.34,2.29,5,5,0,0,0,1,1.8,4.52,4.52,0,0,0,1.7,1.18,6,6,0,0,0,2.38.43,6.14,6.14,0,0,0,2.39-.43,4.67,4.67,0,0,0,1.72-1.18,4.85,4.85,0,0,0,1-1.8,7.49,7.49,0,0,0,.34-2.29V41.3h9.9Z"/><path d="M315.77,72.18h-8.66l-13-15v15H285V41.3h8.66l13,15.21V41.3h9.1Z"/><path d="M335.8,41.3a23.76,23.76,0,0,1,7,.93,13,13,0,0,1,5.07,2.84,12,12,0,0,1,3.1,4.81A20.16,20.16,0,0,1,352,56.73a20.16,20.16,0,0,1-1.06,6.87,12,12,0,0,1-3.1,4.81,12.88,12.88,0,0,1-5.07,2.84,23.76,23.76,0,0,1-7,.93H322.43V41.3Zm-3.46,7.41V64.77h3.29a7.91,7.91,0,0,0,2.8-.45A4.67,4.67,0,0,0,340.37,63a5.58,5.58,0,0,0,1.12-2.1,10.16,10.16,0,0,0,.36-2.82v-2.7a10,10,0,0,0-.36-2.81,5.54,5.54,0,0,0-1.12-2.11,4.87,4.87,0,0,0-1.94-1.31,7.91,7.91,0,0,0-2.8-.45Z"/><path d="M169.92,31.43H159.43l-1.32-4.36h-10.8L146,31.43H135.85L147.13.55h11.53ZM152.63,9.16l-3.26,11h6.68l-3.22-11Z"/><path d="M194.21.55a9.49,9.49,0,0,1,3.3.56,8.38,8.38,0,0,1,2.7,1.56,7.55,7.55,0,0,1,1.84,2.4,6.93,6.93,0,0,1,.68,3.06,8.88,8.88,0,0,1-.42,2.9,6.46,6.46,0,0,1-1.12,2.08,6,6,0,0,1-1.65,1.38,9.63,9.63,0,0,1-2,.83v.17a9.32,9.32,0,0,1,2.27.82,6.11,6.11,0,0,1,1.86,1.46A7,7,0,0,1,203,20a9.43,9.43,0,0,1,.47,3.18,7.8,7.8,0,0,1-2.62,6A8.59,8.59,0,0,1,198,30.83a10,10,0,0,1-3.49.6H173.65V.55ZM183.56,7.32v5.26h6.81a2.15,2.15,0,0,0,.91-.19,2.23,2.23,0,0,0,.74-.51,2.56,2.56,0,0,0,.48-.78,2.75,2.75,0,0,0,.17-.95V9.71a2.39,2.39,0,0,0-.18-.92A2.69,2.69,0,0,0,192,8a2.05,2.05,0,0,0-.72-.51,2.11,2.11,0,0,0-.9-.19Zm0,11.64v5.28h7.54a2.11,2.11,0,0,0,.9-.19,2.25,2.25,0,0,0,.74-.5,2.46,2.46,0,0,0,.48-.76,2.49,2.49,0,0,0,.18-1v-.46a2.42,2.42,0,0,0-.18-.94,2.51,2.51,0,0,0-.48-.77,2.3,2.3,0,0,0-.74-.52,2.26,2.26,0,0,0-.9-.18Z"/><path d="M223.9,0A22.66,22.66,0,0,1,231,1a14,14,0,0,1,5.25,3,13.13,13.13,0,0,1,3.26,5A19.65,19.65,0,0,1,240.6,16a19.67,19.67,0,0,1-1.13,7,13.05,13.05,0,0,1-3.26,5A13.89,13.89,0,0,1,231,31a22.67,22.67,0,0,1-7.06,1,22.56,22.56,0,0,1-7.05-1,13.81,13.81,0,0,1-5.23-3,12.94,12.94,0,0,1-3.26-5A19.9,19.9,0,0,1,207.24,16,19.88,19.88,0,0,1,208.36,9a13,13,0,0,1,3.26-5,13.92,13.92,0,0,1,5.23-3A22.55,22.55,0,0,1,223.9,0Zm0,7.41a7.16,7.16,0,0,0-2.86.52,5.51,5.51,0,0,0-2,1.47,6.22,6.22,0,0,0-1.21,2.26,9.8,9.8,0,0,0-.41,2.89v2.87a9.87,9.87,0,0,0,.41,2.9A6.25,6.25,0,0,0,219,22.57,5.51,5.51,0,0,0,221,24a7.16,7.16,0,0,0,2.86.53,7.24,7.24,0,0,0,2.87-.53,5.58,5.58,0,0,0,2-1.47,6.14,6.14,0,0,0,1.23-2.25,9.87,9.87,0,0,0,.4-2.9V14.55a9.8,9.8,0,0,0-.4-2.89,6.1,6.1,0,0,0-1.23-2.26,5.58,5.58,0,0,0-2-1.47A7.24,7.24,0,0,0,223.9,7.41Z"/><path d="M263.9,31.43H252.41L241.45.55H252l6.2,20.64h.18L264.66.55h10.13Z"/><path d="M278.93,31.43V.55h26.69V8H288.83v4.25h14.38v7.1H288.83V24h17.1v7.41Z"/><path d="M167.49,112.94H157l-1.32-4.37h-10.8l-1.32,4.37H133.42L144.7,82.06h11.53ZM150.2,90.67l-3.26,11h6.68l-3.22-11Z"/><path d="M184.59,82.06a23.76,23.76,0,0,1,7,.93,12.82,12.82,0,0,1,5.07,2.84,12,12,0,0,1,3.1,4.81,22.9,22.9,0,0,1,0,13.71,12.06,12.06,0,0,1-3.1,4.82,12.93,12.93,0,0,1-5.07,2.83,23.75,23.75,0,0,1-7,.94H171.22V82.06Zm-3.46,7.4v16.07h3.28a7.92,7.92,0,0,0,2.81-.45,4.79,4.79,0,0,0,1.94-1.32,5.56,5.56,0,0,0,1.12-2.1,10.11,10.11,0,0,0,.36-2.82V96.15a10.16,10.16,0,0,0-.36-2.82,5.72,5.72,0,0,0-1.12-2.1,4.79,4.79,0,0,0-1.94-1.32,7.92,7.92,0,0,0-2.81-.45Z"/><path d="M224.47,112.94H213L202,82.06h10.59l6.2,20.64H219l6.24-20.64h10.13Z"/><path d="M249.87,112.94H240V82.06h9.92Z"/><path d="M269.92,81.51a23.22,23.22,0,0,1,5.25.56,13.53,13.53,0,0,1,4.32,1.73,9.1,9.1,0,0,1,2.95,3A8.35,8.35,0,0,1,283.58,91v.53h-9.29v-.18a3.29,3.29,0,0,0-.22-1.17,2.8,2.8,0,0,0-.7-1,3.79,3.79,0,0,0-1.24-.7,5.81,5.81,0,0,0-1.83-.26,6.2,6.2,0,0,0-3.08.6,1.69,1.69,0,0,0-1,1.42,1.62,1.62,0,0,0,.78,1.4,7.16,7.16,0,0,0,2,.88,28.6,28.6,0,0,0,2.89.66c1.08.2,2.19.44,3.32.71a32,32,0,0,1,3.33,1,11,11,0,0,1,2.93,1.63,7.84,7.84,0,0,1,2.09,2.48,8,8,0,0,1,.84,3.63,10.8,10.8,0,0,1-1,4.92,8.93,8.93,0,0,1-2.86,3.35,12.37,12.37,0,0,1-4.31,1.91,23,23,0,0,1-5.41.6,35.6,35.6,0,0,1-6-.48,13.72,13.72,0,0,1-4.85-1.72,8.82,8.82,0,0,1-3.21-3.37,11.37,11.37,0,0,1-1.16-5.43H265a4.93,4.93,0,0,0,.35,2,2.83,2.83,0,0,0,1,1.18,3.86,3.86,0,0,0,1.57.57,14.15,14.15,0,0,0,2.05.14c.46,0,.94,0,1.45,0a6.89,6.89,0,0,0,1.42-.25,2.7,2.7,0,0,0,1.07-.62,1.6,1.6,0,0,0-.35-2.47,7.54,7.54,0,0,0-2.06-.87c-.86-.24-1.83-.46-2.93-.67s-2.21-.45-3.34-.74a26.68,26.68,0,0,1-3.34-1.11,11.25,11.25,0,0,1-2.93-1.74,8.26,8.26,0,0,1-2.06-2.64,9.74,9.74,0,0,1,.37-8.41,9,9,0,0,1,3-3,13.5,13.5,0,0,1,4.42-1.71A24.83,24.83,0,0,1,269.92,81.51Z"/><path d="M304.73,81.51a22.59,22.59,0,0,1,7,1,13.85,13.85,0,0,1,5.25,3,13.07,13.07,0,0,1,3.27,5,21.91,21.91,0,0,1,0,13.89,13.07,13.07,0,0,1-3.27,5,13.73,13.73,0,0,1-5.25,3,24.87,24.87,0,0,1-14.1,0,13.83,13.83,0,0,1-5.24-3,12.92,12.92,0,0,1-3.25-5,22.09,22.09,0,0,1,0-13.89,12.92,12.92,0,0,1,3.25-5,14,14,0,0,1,5.24-3A22.5,22.5,0,0,1,304.73,81.51Zm0,7.41a7.24,7.24,0,0,0-2.87.52,5.47,5.47,0,0,0-2,1.47,6.23,6.23,0,0,0-1.22,2.26,9.75,9.75,0,0,0-.4,2.89v2.87a9.75,9.75,0,0,0,.4,2.89,6.23,6.23,0,0,0,1.22,2.26,5.47,5.47,0,0,0,2,1.47,8,8,0,0,0,5.74,0,5.67,5.67,0,0,0,2-1.47,6.23,6.23,0,0,0,1.22-2.26,9.75,9.75,0,0,0,.41-2.89V96.06a9.75,9.75,0,0,0-.41-2.89,6.23,6.23,0,0,0-1.22-2.26,5.67,5.67,0,0,0-2-1.47A7.28,7.28,0,0,0,304.73,88.92Z"/><path d="M356.07,91.52a9.3,9.3,0,0,1-.37,2.64,8.72,8.72,0,0,1-3,4.41,9.09,9.09,0,0,1-2.61,1.43L357,112.94H345.84l-5.48-11.27h-3.68v11.27h-9.91V82.06h18.89a12.33,12.33,0,0,1,4.52.77,9.58,9.58,0,0,1,3.26,2.09,8.48,8.48,0,0,1,2,3A9.89,9.89,0,0,1,356.07,91.52Zm-10.1.42a2.86,2.86,0,0,0-.22-1.14,2.68,2.68,0,0,0-.6-.9,2.79,2.79,0,0,0-.89-.58,2.76,2.76,0,0,0-1.07-.21h-6.51v5.7h6.51a2.6,2.6,0,0,0,1.07-.22,2.69,2.69,0,0,0,.89-.6,2.83,2.83,0,0,0,.6-.91A2.86,2.86,0,0,0,346,91.94Z"/><path d="M378.91,101v12H369V101L356.73,82.06h11.42l5.92,10.27h.17l5.92-10.27H391Z"/><path d="M49.92,30.63A19.44,19.44,0,0,0,30.5,50.05V89.11H68.4A18.74,18.74,0,0,0,87.12,70.39V62.66H58.81V55.22H94.56V70.39A26.19,26.19,0,0,1,68.4,96.55H23.05V50.05A26.9,26.9,0,0,1,49.92,23.18h67.69V.13H47.24A47.24,47.24,0,0,0,0,47.37v70.37H71.13a46.48,46.48,0,0,0,46.48-46.48V30.63Z"/></g></g></svg>