<?xml version="1.0" encoding="UTF-8" standalone="no"?>
<!DOCTYPE svg PUBLIC "-//W3C//DTD SVG 1.1//EN" "http://www.w3.org/Graphics/SVG/1.1/DTD/svg11.dtd">
<!-- Created with Vectornator (http://vectornator.io/) -->
<svg height="100%" stroke-miterlimit="10" style="fill-rule:nonzero;clip-rule:evenodd;stroke-linecap:round;stroke-linejoin:round;" version="1.1" viewBox="0 0 170.008 67.8268" width="100%" xml:space="preserve" xmlns="http://www.w3.org/2000/svg" xmlns:vectornator="http://vectornator.io" xmlns:xlink="http://www.w3.org/1999/xlink">
<defs/>
<g id="Layer-1" vectornator:layerName="Layer 1">
<g opacity="1">
<path d="M39.846 35.111L34.336 35.111L34.336 32.261C34.2277 30.0617 32.413 28.3341 30.211 28.3341C28.0091 28.3341 26.1943 30.0617 26.086 32.261L26.086 35.111L20.576 35.111L20.576 32.261C20.7436 27.0605 25.0079 22.9314 30.211 22.9314C35.4142 22.9314 39.6785 27.0605 39.846 32.261L39.846 35.111Z" fill="#ffa400" fill-rule="evenodd" opacity="1" stroke="none"/>
<path d="M42.116 35.111L18.316 35.111C17.822 35.1028 17.3457 35.2948 16.9954 35.6432C16.6451 35.9917 16.4506 36.4669 16.456 36.961L16.456 54.551C16.4478 55.0467 16.6412 55.5246 16.9918 55.8752C17.3424 56.2258 17.8203 56.4192 18.316 56.411L42.116 56.411C42.6101 56.4164 43.0853 56.2219 43.4338 55.8716C43.7822 55.5213 43.9742 55.045 43.966 54.551L43.966 36.961C43.9348 35.9525 43.1245 35.1422 42.116 35.111ZM31.376 46.661L31.376 49.041C31.376 49.7148 30.8298 50.261 30.156 50.261C29.4822 50.261 28.936 49.7148 28.936 49.041L28.936 46.661C28.1615 46.2266 27.6917 45.3986 27.716 44.511C27.716 43.1634 28.8084 42.071 30.156 42.071C31.5036 42.071 32.596 43.1634 32.596 44.511C32.6368 45.4027 32.1624 46.2387 31.376 46.661Z" fill="#003a70" fill-rule="evenodd" opacity="1" stroke="none"/>
<path d="M15.876 32.491L10.126 32.491C9.19841 32.4906 8.4466 31.7386 8.4466 30.811C8.4466 29.8834 9.19841 29.1313 10.126 29.131L15.876 29.131C16.8036 29.1313 17.5554 29.8834 17.5554 30.811C17.5554 31.7386 16.8036 32.4906 15.876 32.491ZM19.936 23.441C19.5629 23.4353 19.2057 23.2888 18.936 23.031L14.406 19.321C13.6831 18.7271 13.5782 17.6597 14.1717 16.9365C14.7652 16.2132 15.8325 16.1078 16.556 16.701L21.076 20.421C21.7858 21.0464 21.8572 22.1276 21.236 22.841C20.8963 23.2011 20.4305 23.4161 19.936 23.441ZM30.236 19.491C29.3103 19.5022 28.5479 18.7665 28.526 17.841L28.526 12.001C28.5939 11.1206 29.328 10.4409 30.211 10.4409C31.094 10.4409 31.8281 11.1206 31.896 12.001L31.896 17.841C31.8799 18.7493 31.1445 19.4803 30.236 19.491ZM40.426 23.441C39.9239 23.4349 39.4522 23.199 39.146 22.801C38.571 22.0728 38.6771 21.0197 39.386 20.421L43.906 16.701C44.6295 16.1078 45.6969 16.2132 46.2904 16.9365C46.8839 17.6597 46.779 18.7271 46.056 19.321L41.526 23.031C41.224 23.3012 40.8312 23.4476 40.426 23.441ZM50.236 32.491L44.436 32.491C43.508 32.4913 42.7554 31.739 42.7554 30.811C42.7554 29.8829 43.508 29.1306 44.436 29.131L50.236 29.131C51.1641 29.1306 51.9166 29.8829 51.9166 30.811C51.9166 31.739 51.1641 32.4913 50.236 32.491Z" fill="#ffa400" fill-rule="evenodd" opacity="1" stroke="none"/>
</g>
<path d="M57.529 32.3759L57.529 11.4769L62.5782 11.4769L62.5782 27.9732L70.6703 27.9732L70.6703 32.4316L57.529 32.3759ZM87.356 25.1866L87.356 26.3012L76.6892 26.3012C76.7415 26.694 76.8702 27.0726 77.0681 27.4158C77.2551 27.7577 77.523 28.0486 77.8484 28.263C78.1818 28.522 78.5594 28.7184 78.963 28.8426C79.3584 28.9741 79.7723 29.0419 80.1891 29.0432C80.8557 29.0959 81.5237 28.9607 82.1173 28.6531C82.6348 28.3955 83.0793 28.0123 83.4103 27.5385L86.7541 29.6785C86.0623 30.6641 85.1351 31.461 84.0568 31.9969C82.818 32.5593 81.4714 32.8445 80.111 32.8329C79.0573 32.8303 78.0109 32.6571 77.0124 32.3202C76.061 31.989 75.1801 31.4824 74.4154 30.8266C72.8332 29.3396 71.9647 27.2455 72.0301 25.0752C71.9982 23.9591 72.2192 22.8502 72.6766 21.8316C73.0464 20.8983 73.6217 20.0602 74.3596 19.3795C75.0829 18.6941 75.9407 18.1665 76.8787 17.8302C77.8675 17.4346 78.9235 17.234 79.9884 17.2394C81.0033 17.2406 82.0102 17.4178 82.9645 17.7633C83.8324 18.1269 84.623 18.6528 85.294 19.3126C85.9588 20.0394 86.4638 20.8976 86.7764 21.8316C87.1721 22.9054 87.3685 24.0423 87.356 25.1866ZM82.8976 23.3809C82.9014 22.6494 82.649 21.9396 82.1842 21.3746C81.6161 20.7569 80.79 20.443 79.955 20.5275C79.5159 20.5226 79.079 20.5904 78.662 20.7282C78.2832 20.8545 77.9315 21.0511 77.6255 21.3078C77.0335 21.8174 76.662 22.5364 76.5889 23.3141L82.8641 23.3141L82.8976 23.3809ZM95.1583 21.3078L95.1583 26.9366C95.1143 27.4819 95.2515 28.0264 95.5484 28.4859C95.9166 28.873 96.444 29.0667 96.9752 29.0097C97.2333 29.0207 97.4918 28.9982 97.7442 28.9429C97.9634 28.893 98.1793 28.8297 98.3907 28.7534L98.4242 32.309C98.1009 32.4316 97.6439 32.4985 97.1312 32.6322C96.6179 32.7058 96.1004 32.7468 95.5819 32.7549C94.7445 32.7801 93.9096 32.6517 93.1186 32.3759C92.5087 32.1565 91.9562 31.8022 91.5024 31.3393C91.072 30.8613 90.7691 30.2824 90.6219 29.6562C90.4808 28.9589 90.4062 28.2498 90.3989 27.5385L90.3989 21.3078L88.0025 21.3078L88.0025 17.6853L90.3321 17.6853L90.3321 13.8064L95.0803 13.8064L95.0803 17.6853L98.5133 17.6853L98.5133 21.3078L95.1583 21.3078ZM103.05 11.0868C102.388 11.0566 101.741 11.2933 101.255 11.7437C100.769 12.1942 100.484 12.8208 100.464 13.4832C100.433 14.126 100.681 14.751 101.144 15.1974C101.608 15.6438 102.241 15.8682 102.883 15.8127C102.995 15.8294 103.109 15.8057 103.206 15.7458C102.909 16.7748 102.037 17.534 100.977 17.6853L100.787 17.6853L100.787 19.9145L101.043 19.9145C102.206 19.7843 103.296 19.2842 104.153 18.4878C105.273 17.3335 105.869 15.7699 105.803 14.1631C105.871 13.3784 105.609 12.6008 105.081 12.017C104.552 11.4333 103.804 11.0962 103.016 11.0868L103.05 11.0868ZM114.196 22.0211C113.802 21.6217 113.342 21.2936 112.836 21.0514C112.316 20.794 111.744 20.6605 111.164 20.6613C110.737 20.648 110.313 20.7359 109.927 20.9177C109.559 21.0616 109.325 21.4259 109.347 21.8205C109.341 22.2335 109.602 22.6033 109.994 22.7345C110.664 22.9957 111.359 23.1898 112.067 23.3141C112.643 23.43 113.207 23.6017 113.75 23.8268C114.271 24.0586 114.768 24.3424 115.233 24.6739C115.704 25.0076 116.086 25.4515 116.347 25.9669C116.619 26.5332 116.752 27.1558 116.737 27.7837C116.759 28.5962 116.554 29.3988 116.147 30.1021C115.798 30.7433 115.287 31.2815 114.664 31.6625C114.045 32.0487 113.368 32.3311 112.658 32.4985C111.929 32.6798 111.18 32.7659 110.429 32.7549C109.237 32.7629 108.054 32.5668 106.929 32.1753C105.865 31.8395 104.892 31.2636 104.086 30.4922L106.806 27.6499C107.279 28.1093 107.825 28.4861 108.422 28.7645C109.045 29.0756 109.733 29.2324 110.429 29.2215C110.815 29.2219 111.196 29.1342 111.543 28.9652C111.92 28.7928 112.153 28.4089 112.134 27.9954C112.115 27.5415 111.838 27.1385 111.421 26.9589C110.702 26.6664 109.955 26.4497 109.191 26.3124C108.667 26.1894 108.149 26.0369 107.642 25.8554C107.148 25.6778 106.689 25.4177 106.282 25.0863C105.89 24.7327 105.562 24.3142 105.312 23.8491C105.047 23.3045 104.913 22.705 104.922 22.0991C104.907 21.3154 105.112 20.5431 105.513 19.8699C105.863 19.2725 106.348 18.765 106.929 18.3875C107.519 17.9618 108.19 17.662 108.902 17.5069C109.601 17.3285 110.32 17.2423 111.042 17.2506C112.139 17.2614 113.229 17.4381 114.274 17.7744C115.271 18.0673 116.182 18.5992 116.927 19.3238L114.196 22.0211ZM57.5178 56.5741L57.5178 35.6751L71.562 35.6751L71.562 39.9441L62.3887 39.9441L62.3887 43.8898L71.0604 43.8898L71.0604 47.9025L62.3887 47.9025L62.3887 52.2383L72.097 52.2383L72.097 56.5741L57.5178 56.5741ZM84.8259 56.5741L84.8259 48.5489C84.8143 48.1557 84.7696 47.7642 84.6921 47.3786C84.6407 47.0392 84.5313 46.7112 84.3689 46.4089C84.2256 46.1315 83.9997 45.9056 83.7224 45.7624C83.3867 45.5628 82.997 45.4732 82.6078 45.506C82.2203 45.4931 81.8361 45.5815 81.4932 45.7624C81.1475 45.9422 80.8407 46.1884 80.5903 46.4869C80.3762 46.811 80.2004 47.1588 80.0665 47.5235C79.9492 47.8838 79.8854 48.2593 79.877 48.6381L79.877 56.6299L75.073 56.6299L75.073 41.9504L79.7209 41.9504L79.7209 43.9567L79.7878 43.9567C79.9722 43.6139 80.2134 43.3049 80.5012 43.0427C80.7763 42.731 81.1046 42.4706 81.4709 42.2737C81.8623 42.0611 82.2728 41.8857 82.6969 41.7498C83.1619 41.6231 83.6417 41.5593 84.1237 41.5603C84.994 41.5486 85.8567 41.7235 86.6538 42.073C87.3021 42.4013 87.8723 42.865 88.3257 43.4329C88.7558 44.0124 89.0665 44.6717 89.2397 45.3723C89.4278 46.1001 89.5178 46.8498 89.5072 47.6015L89.5072 56.6299L84.837 56.6299L84.8259 56.5741ZM102.169 46.6095C101.868 46.2449 101.487 45.955 101.055 45.7624C100.604 45.5654 100.12 45.4557 99.6279 45.4392C99.156 45.4419 98.6909 45.5525 98.2681 45.7624C97.8604 45.9539 97.5077 46.2453 97.2427 46.6095C96.9652 46.9541 96.726 47.3278 96.5293 47.7241C96.1723 48.6417 96.1723 49.6599 96.5293 50.5775C96.67 51.0029 96.9153 51.3862 97.2427 51.6921C97.5548 52.0422 97.9338 52.3264 98.3573 52.5281C98.8032 52.7409 99.2899 52.855 99.784 52.8625C100.291 52.8713 100.795 52.7804 101.266 52.595C101.7 52.4107 102.083 52.1238 102.381 51.759L105.034 55.1029C104.385 55.7304 103.61 56.2129 102.76 56.5184C101.78 56.8508 100.752 57.0239 99.7171 57.0311C98.6192 57.0338 97.5279 56.8607 96.4847 56.5184C95.4936 56.2061 94.5865 55.6725 93.8319 54.958C93.0929 54.2637 92.4982 53.4304 92.082 52.5058C91.6229 51.4524 91.4021 50.3106 91.4355 49.162C91.4091 48.0499 91.6299 46.9459 92.082 45.9296C92.4992 45.0023 93.0937 44.1655 93.8319 43.4663C94.5942 42.7647 95.4992 42.2362 96.4847 41.917C97.5206 41.5443 98.6165 41.3667 99.7171 41.3931C100.236 41.404 100.753 41.4487 101.266 41.5269C101.79 41.6495 102.303 41.7832 102.76 41.917C103.226 42.105 103.68 42.3209 104.12 42.5635C104.504 42.7904 104.853 43.072 105.156 43.3994L102.169 46.6095ZM116.258 45.8961C116.05 45.8197 115.832 45.7746 115.612 45.7624L115.032 45.7624C114.477 45.7581 113.927 45.8681 113.416 46.0856C113.017 46.2952 112.664 46.5834 112.379 46.9327C112.121 47.2669 111.925 47.6444 111.8 48.0474C111.675 48.3791 111.607 48.7296 111.599 49.0839L111.599 56.5964L106.773 56.5964L106.773 41.8835L111.432 41.8835L111.432 44.0125L111.499 44.0125C111.856 43.2702 112.417 42.6442 113.115 42.2068C113.822 41.7385 114.652 41.4903 115.5 41.4934L116.091 41.4934C116.28 41.4934 116.414 41.5603 116.537 41.5603L116.258 45.8961ZM127.672 58.7476C127.348 59.5279 127.025 60.1744 126.702 60.8208C126.339 61.3905 125.904 61.9112 125.409 62.3701C124.887 62.7937 124.295 63.122 123.659 63.3399C122.879 63.5577 122.072 63.6665 121.263 63.6631C120.786 63.6727 120.309 63.6503 119.836 63.5962C119.419 63.5555 119.008 63.4695 118.61 63.3399L119.134 59.2604L119.903 59.461C120.159 59.5164 120.421 59.5389 120.683 59.5279C121.27 59.5734 121.851 59.3851 122.299 59.004C122.694 58.5854 122.981 58.0764 123.135 57.5216L123.592 56.2843L117.451 41.8612L122.812 41.8612L126.156 51.302L126.223 51.302L129.132 41.8612L134.248 41.8612L127.672 58.7476ZM151.926 49.1954C151.937 50.2057 151.783 51.2111 151.469 52.1714C151.16 53.0814 150.7 53.9329 150.109 54.6905C149.486 55.4127 148.729 56.0071 147.88 56.4404C146.956 56.8965 145.934 57.1186 144.904 57.0869C144.017 57.0805 143.14 56.9065 142.318 56.5741C141.575 56.2415 140.927 55.728 140.434 55.0806L140.367 55.0806L140.367 63.8191L135.519 63.8191L135.519 42.0284L140.111 42.0284L140.111 43.8453L140.178 43.8453C140.7 43.2168 141.335 42.6913 142.05 42.2959C142.926 41.8263 143.911 41.5993 144.904 41.6383C145.912 41.6227 146.909 41.8482 147.813 42.2959C148.672 42.6778 149.435 43.2494 150.042 43.9679C150.62 44.725 151.062 45.5775 151.346 46.4869C151.723 47.3404 151.92 48.2624 151.926 49.1954ZM147.2 49.1954C147.197 48.7357 147.133 48.2785 147.01 47.8356C146.872 47.405 146.649 47.0069 146.353 46.6652C146.055 46.2998 145.672 46.0127 145.238 45.8293C144.768 45.6182 144.259 45.508 143.744 45.506C143.233 45.5079 142.728 45.6181 142.262 45.8293C141.837 46.0291 141.458 46.3136 141.147 46.6652C140.836 47.031 140.595 47.4502 140.434 47.9025C140.257 48.3335 140.17 48.7963 140.178 49.2623C140.172 49.7281 140.259 50.1904 140.434 50.6221C140.613 51.0625 140.853 51.4753 141.147 51.8482C141.803 52.5822 142.749 52.99 143.733 52.9628C144.249 52.9718 144.761 52.8612 145.227 52.6396C145.65 52.4379 146.029 52.1537 146.341 51.8036C146.636 51.4402 146.859 51.0241 146.999 50.5775C147.099 50.1237 147.148 49.6601 147.144 49.1954L147.2 49.1954ZM159.616 45.506L159.616 51.1348C159.572 51.6801 159.71 52.2247 160.007 52.6841C160.375 53.0713 160.902 53.2649 161.433 53.208C161.695 53.2186 161.957 53.1961 162.214 53.1411C162.432 53.0896 162.648 53.0264 162.86 52.9517L162.916 56.5073C162.592 56.6299 162.147 56.6968 161.623 56.8305C161.109 56.9046 160.592 56.9455 160.073 56.9531C159.236 56.9774 158.401 56.849 157.61 56.5741C157 56.3548 156.448 56.0004 155.994 55.5376C155.579 55.0551 155.292 54.4765 155.158 53.8545C154.999 53.1519 154.913 52.4347 154.902 51.7144L154.902 45.506L152.572 45.506L152.572 41.8835L154.902 41.8835L154.902 38.0047L159.616 38.0047L159.616 41.8835L163.049 41.8835L163.049 45.506L159.616 45.506Z" fill="#003a70" fill-rule="evenodd" opacity="1" stroke="none"/>
</g>
</svg>
