<svg xmlns="http://www.w3.org/2000/svg" viewBox="0 0 294.96 397"><defs><style>.cls-1{isolation:isolate;}.cls-2{fill:#e55c76;}.cls-3{fill:#fff;}.cls-4{fill:#5f78a0;}.cls-5{fill:#323443;}.cls-6{fill:#1a1d27;}.cls-7{fill:#464a5f;}.cls-8{fill:#e07586;}.cls-12,.cls-9{mix-blend-mode:multiply;}.cls-9{opacity:0.4;}.cls-10{fill:#454b5f;}.cls-11{fill:#d49868;}.cls-12{opacity:0.5;}.cls-13{fill:#c4814e;}.cls-14{fill:#eaae7f;}.cls-15{fill:#c0d3eb;}.cls-16{fill:#381b18;}.cls-17{fill:#1a1f29;}.cls-18{fill:#0a0c0e;}.cls-19{fill:#28282b;}.cls-20{fill:#575759;}.cls-21{fill:#4e546a;}.cls-22{fill:#d18348;}</style></defs><g class="cls-1"><g id="Layer_2" data-name="Layer 2"><g id="OBJECTS"><path class="cls-2" d="M220.7,59.64a.75.75,0,0,1-.09.15.12.12,0,0,1-.05.05,1,1,0,0,1-1.33,0c-2.38-2.14-4.87-4.22-7.4-6.17a1,1,0,0,1,.32-1.7s0,0,0-.07a1,1,0,0,1,1.37-.18c2.58,2,5.12,4.08,7.54,6.25a1,1,0,0,1,.08,1.38A1,1,0,0,1,220.7,59.64Z"/><path class="cls-2" d="M205.3,47.84l-.12.15a1,1,0,0,1-1.21.11c-2.68-1.75-5.46-3.42-8.27-5a1,1,0,0,1-.38-1.32.93.93,0,0,1,.61-.47,1,1,0,0,1,1.23-.27c2.85,1.56,5.68,3.25,8.4,5a1,1,0,0,1,.29,1.35A1,1,0,0,1,205.3,47.84Z"/><path class="cls-2" d="M188.21,38.54l-.06.09a1,1,0,0,1-1.08.18c-2.92-1.32-5.93-2.54-8.94-3.64a1,1,0,0,1,.13-1.85,1,1,0,0,1,1.06-.29c3.06,1.11,6.11,2.34,9.07,3.68a1,1,0,0,1,.49,1.29A.94.94,0,0,1,188.21,38.54Z"/><path class="cls-2" d="M169.91,32l0,0a1,1,0,0,1-.94.23c-3.09-.86-6.25-1.61-9.39-2.23a1,1,0,0,1,.06-1.91.94.94,0,0,1,.85-.26c3.19.62,6.4,1.37,9.53,2.24a1,1,0,0,1-.08,1.89Z"/><path class="cls-2" d="M233.91,73.7a1,1,0,0,1-.76-.35c-2-2.47-4.19-4.9-6.41-7.21a1,1,0,1,1,1.41-1.35c2.25,2.34,4.44,4.81,6.51,7.32a1,1,0,0,1-.75,1.59Z"/><path class="cls-2" d="M112.14,29.66l-.32.07a.81.81,0,0,1-.22.07c-1.54.3-3.09.62-4.63,1s-2.83.68-4.22,1.06a.34.34,0,0,1-.14,0l-.41.1a1,1,0,1,1-.5-1.88q2.4-.64,4.83-1.2,2.63-.61,5.25-1.13a1,1,0,1,1,.36,1.92Z"/><path class="cls-2" d="M259.75,125.54l-.15,0a.87.87,0,0,1-.17.22.9.9,0,0,1-.45.24,1,1,0,0,1-1.17-.73c-.72-3.13-1.56-6.26-2.51-9.3a1,1,0,0,1,.64-1.23,1.1,1.1,0,0,1,.18,0,1,1,0,0,1,.56-.46,1,1,0,0,1,1.22.64c1,3.1,1.85,6.28,2.58,9.45A1,1,0,0,1,259.75,125.54Z"/><path class="cls-2" d="M245.58,89.47a1,1,0,0,1-.5.13,1,1,0,0,1-.84-.47c-1.63-2.76-3.4-5.48-5.24-8.11a1,1,0,0,1,1.6-1.12c1.87,2.66,3.66,5.43,5.32,8.23A1,1,0,0,1,245.58,89.47Z"/><path class="cls-2" d="M262.46,144.77a1,1,0,0,1-.14.21,1,1,0,0,1-.61.27,1,1,0,0,1-1-.9c-.24-3.2-.59-6.42-1.07-9.59a1,1,0,0,1,.82-1.11h.1a1,1,0,0,1,.69-.49,1,1,0,0,1,1.11.82c.49,3.21.86,6.48,1.1,9.73a1,1,0,0,1-.9,1Z"/><path class="cls-2" d="M254.06,107a.92.92,0,0,1-.36.07,1,1,0,0,1-.91-.61c-1.2-3-2.52-6-3.94-8.81a1,1,0,1,1,1.75-.87c1.44,2.91,2.79,5.92,4,9A1,1,0,0,1,254.06,107Z"/><path class="cls-2" d="M93.55,34.72c-3,1.08-6,2.29-9,3.6a1.14,1.14,0,0,1-.4.08l-.16,0a1,1,0,0,1-.77-1.79c3-1.32,6-2.53,9.09-3.62a.86.86,0,0,1,.42,0l.12,0a1,1,0,0,1,.66,1.84Z"/><path class="cls-2" d="M26.92,89.26a1,1,0,0,1-.49-.14.94.94,0,0,1-.67-.12,1,1,0,0,1-.33-1.34c1.67-2.78,3.48-5.54,5.37-8.19A1,1,0,0,1,32,79.19a1,1,0,0,1,1,1.51c-1.85,2.62-3.62,5.34-5.26,8.08A1,1,0,0,1,26.92,89.26Z"/><path class="cls-2" d="M38.89,73.05a1,1,0,0,1-.75.35,1,1,0,0,1-.62-.22,1,1,0,0,1-.13-1.38c2.07-2.5,4.27-5,6.53-7.29a1,1,0,1,1,1.4,1.35C43.09,68.17,40.93,70.59,38.89,73.05Z"/><path class="cls-2" d="M13.32,124.38a1,1,0,0,1-1,.76.91.91,0,0,1-.23,0,.77.77,0,0,1-.26-.12,1,1,0,0,1-.48,0,1,1,0,0,1-.73-1.18c.76-3.17,1.64-6.34,2.64-9.44a1,1,0,0,1,1.22-.63.78.78,0,0,1,.2.11.92.92,0,0,1,.52,0,1,1,0,0,1,.64,1.23C14.92,118.13,14.05,121.26,13.32,124.38Z"/><path class="cls-2" d="M32.88,225.8c1.84,2.62,3.81,5.2,5.86,7.67a1,1,0,0,1-.14,1.38,1,1,0,0,1-.62.22,1,1,0,0,1-.75-.36c-2.07-2.51-4.07-5.13-5.94-7.78a1,1,0,1,1,1.59-1.13Z"/><path class="cls-2" d="M18.26,106.63a1.21,1.21,0,0,1-.37-.07l-.11-.08a.93.93,0,0,1-.59,0,1,1,0,0,1-.54-1.27c1.24-3,2.6-6,4.05-8.93A1,1,0,0,1,22,95.81a.18.18,0,0,1,.07,0,.93.93,0,0,1,.61.07,1,1,0,0,1,.44,1.31c-1.42,2.85-2.76,5.81-4,8.78A1,1,0,0,1,18.26,106.63Z"/><path class="cls-2" d="M75.93,42.59c-2.81,1.53-5.6,3.18-8.3,4.92a.92.92,0,0,1-.53.16,1,1,0,0,1-.29-.05A1,1,0,0,1,66,45.87c2.73-1.76,5.57-3.43,8.43-5a1,1,0,0,1,.72-.08,1,1,0,0,1,1.15.45A1,1,0,0,1,75.93,42.59Z"/><path class="cls-2" d="M52.29,59.19a1,1,0,0,1-.65.24,1,1,0,0,1-.65-1.7c2.43-2.17,5-4.26,7.56-6.23a1,1,0,0,1,1.19,1.56C57.19,55,54.68,57.06,52.29,59.19Z"/><path class="cls-2" d="M150,28.5c-3.18-.38-6.42-.64-9.62-.77a1,1,0,0,1,.09-2c3.24.14,6.53.41,9.76.79a1,1,0,0,1,.85,1.09,1,1,0,0,1-.29.59A1,1,0,0,1,150,28.5Z"/><path class="cls-2" d="M9.55,143.32a1,1,0,0,1-.29.62,1,1,0,0,1-1.65-.78c.26-3.24.65-6.52,1.16-9.73a1,1,0,1,1,1.93.31C10.2,136.9,9.81,140.12,9.55,143.32Z"/><path class="cls-2" d="M260.6,163.63c.25-3.2.39-6.44.4-9.64a1,1,0,1,1,1.95,0c0,3.26-.15,6.55-.41,9.79a1,1,0,0,1-.3.63,1,1,0,0,1-.75.27A1,1,0,0,1,260.6,163.63Z"/><path class="cls-2" d="M130.76,27.69c-3.2.1-6.43.34-9.62.69a1,1,0,1,1-.21-1.94c3.23-.36,6.52-.6,9.76-.71a1,1,0,0,1,.07,2Z"/><path class="cls-2" d="M13.58,190.32a1,1,0,0,1,1.07.38,1,1,0,0,1,1.15.64c1,3.06,2.06,6.11,3.26,9.09a1,1,0,0,1-.54,1.27.92.92,0,0,1-.36.07,1,1,0,0,1-.8-.43,1,1,0,0,1-1.17-.57c-1.2-3-2.3-6.13-3.26-9.23A1,1,0,0,1,13.58,190.32Z"/><path class="cls-2" d="M58.41,253.48a1,1,0,0,1,1.13,0c2.55,1.94,5.2,3.81,7.88,5.56a1,1,0,0,1-.53,1.79,1,1,0,0,1-.53-.15l0,0a1,1,0,0,1-1.1,0c-2.71-1.77-5.4-3.68-8-5.66a1,1,0,0,1-.18-1.37A1,1,0,0,1,58.41,253.48Z"/><path class="cls-2" d="M92.15,272l.22.08a.93.93,0,0,1,.9-.15c3,1.08,6.11,2.06,9.19,2.91a1,1,0,0,1-.25,1.92,1.09,1.09,0,0,1-.26,0l-.28-.08a1,1,0,0,1-.85.18c-3.14-.87-6.28-1.88-9.34-3a1,1,0,0,1-.58-1.25A1,1,0,0,1,92.15,272Z"/><path class="cls-2" d="M74.56,264l.09.05a1,1,0,0,1,1-.08c2.82,1.54,5.72,3,8.64,4.29a1,1,0,0,1,.49,1.29,1,1,0,0,1-.89.58.93.93,0,0,1-.4-.09l-.15-.07a1,1,0,0,1-1,.12c-3-1.34-5.92-2.81-8.78-4.37a1,1,0,0,1,.94-1.72Z"/><path class="cls-2" d="M129.88,279.37h.53a1,1,0,0,1,.59-.19c3.2.12,6.47.12,9.65,0a1,1,0,0,1,1,.93,1,1,0,0,1-.94,1h-.61a1,1,0,0,1-.52.19c-3.25.11-6.54.1-9.79,0a1,1,0,1,1,.08-1.95Z"/><path class="cls-2" d="M110.73,277.11l.36.06a1,1,0,0,1,.76-.18c3.15.61,6.35,1.1,9.54,1.47a1,1,0,0,1-.11,1.94h-.12l-.43-.06a1,1,0,0,1-.7.2c-3.23-.38-6.49-.89-9.67-1.51a1,1,0,1,1,.37-1.92Z"/><path class="cls-2" d="M8.17,152a1,1,0,0,1,.51.18.82.82,0,0,1,.31-.07,1,1,0,0,1,1,1v.29c0,3.22.12,6.46.36,9.64a1,1,0,0,1-.9,1H9.36a1,1,0,0,1-.78-.41h0a1,1,0,0,1-1.05-.91c-.23-3.23-.34-6.53-.32-9.78A1,1,0,0,1,8.17,152Z"/><path class="cls-2" d="M43.88,240.4l.11.11a1,1,0,0,1,1.17.16c2.22,2.31,4.56,4.56,7,6.69a1,1,0,0,1,.07,1.38,1,1,0,0,1-.72.33,1,1,0,0,1-.59-.21,1,1,0,0,1-1.16-.09c-2.41-2.16-4.78-4.45-7-6.81l-.21-.21a1,1,0,0,1,1.41-1.35Z"/><path class="cls-2" d="M9.4,171.36a1,1,0,0,1,.93.39,1,1,0,0,1,1.09.82c.49,3.17,1.1,6.36,1.83,9.47a1,1,0,0,1-.73,1.17l-.22,0a1,1,0,0,1-.79-.41,1,1,0,0,1-1.12-.74c-.72-3.17-1.33-6.4-1.81-9.62A1,1,0,0,1,9.4,171.36Z"/><path class="cls-2" d="M20.6,208.42a1,1,0,0,1,1.22.34,1,1,0,0,1,1.19.47c1.43,2.87,3,5.72,4.62,8.48a1,1,0,0,1-.34,1.34,1,1,0,0,1-.5.13,1,1,0,0,1-.8-.43,1,1,0,0,1-1.2-.39c-1.65-2.81-3.21-5.71-4.64-8.63A1,1,0,0,1,20.6,208.42Z"/><path class="cls-2" d="M255,192a1,1,0,0,1,1.86.6c-1,3.1-2.12,6.2-3.34,9.21a.89.89,0,0,1-.23.34,1,1,0,0,1-1,.2,1,1,0,0,1-.54-1.27C252.94,198.08,254,195,255,192Z"/><path class="cls-2" d="M237.84,226.37a1,1,0,0,1,.95-.39l.07-.09a1,1,0,1,1,1.59,1.12c-1.87,2.66-3.87,5.27-5.95,7.78a1,1,0,0,1-.75.36.58.58,0,0,1-.18,0l-.12.15-.07.08A1,1,0,0,1,232,234C234,231.55,236,229,237.84,226.37Z"/><path class="cls-2" d="M225.5,241.18a1,1,0,0,1,.89-.26c.06-.06.13-.12.18-.18a1,1,0,0,1,1.41,1.35c-2.26,2.35-4.63,4.63-7.06,6.79a1,1,0,0,1-.65.25,1.42,1.42,0,0,1-.2,0l-.24.22a1,1,0,0,1-1.3-1.47C220.93,245.72,223.29,243.46,225.5,241.18Z"/><path class="cls-2" d="M247.75,209.84a1.38,1.38,0,1,1,2.73.37c-1.45,2.91-3,5.8-4.69,8.59a1,1,0,0,1-.84.48l-.14,0,0,0a.67.67,0,0,1-.17.2,1,1,0,0,1-1.51-1.2C244.76,215.55,246.32,212.71,247.75,209.84Z"/><path class="cls-2" d="M149.14,278.69l.75-.1a1.15,1.15,0,0,1,.37-.12c3.18-.36,6.39-.85,9.54-1.45a1,1,0,0,1,1.14.77,1,1,0,0,1-.78,1.15l-.86.15a.79.79,0,0,1-.26.08c-3.19.61-6.45,1.1-9.68,1.46a1,1,0,1,1-.22-1.94Z"/><path class="cls-2" d="M259.46,173.21a1,1,0,1,1,1.93.3c-.51,3.22-1.14,6.45-1.89,9.61a1,1,0,0,1-1.18.73,1,1,0,0,1-.72-1.18C258.34,179.56,259,176.37,259.46,173.21Z"/><path class="cls-2" d="M203.18,259.49c2.69-1.73,5.35-3.59,7.9-5.53a1,1,0,0,1,.78-.17l.32-.23a1,1,0,0,1,1.18,1.56c-2.59,2-5.29,3.87-8,5.63a1,1,0,0,1-.53.16l-.21,0-.37.24a1,1,0,0,1-1.35-.29A1,1,0,0,1,203.18,259.49Z"/><path class="cls-2" d="M168.07,275.1c3.1-.84,6.19-1.81,9.2-2.88a1.15,1.15,0,0,1,.41-.05l.71-.23a1,1,0,1,1,.66,1.83c-3.07,1.1-6.21,2.09-9.35,3a1.07,1.07,0,0,1-.25,0h-.06l-.81.23a1,1,0,0,1-1.19-.69A1,1,0,0,1,168.07,275.1Z"/><path class="cls-2" d="M186.22,268.65c2.93-1.3,5.84-2.73,8.66-4.25a1,1,0,0,1,.61-.09l.5-.26a1,1,0,0,1,1.33.39,1,1,0,0,1-.4,1.32c-2.86,1.56-5.81,3-8.78,4.35a.93.93,0,0,1-.4.09l-.16,0-.56.26a1,1,0,0,1-.8-1.79Z"/><path class="cls-2" d="M134.73,136.47l25.36-29.89h-7.26a7.77,7.77,0,0,1-7.77-7.77V42.54a7.77,7.77,0,0,1,7.77-7.77H254.21A7.77,7.77,0,0,1,262,42.54V98.81a7.77,7.77,0,0,1-7.77,7.77H197.85l.54.24Z"/><rect class="cls-3" x="162.86" y="47.21" width="81.31" height="1.46"/><rect class="cls-3" x="162.86" y="54.78" width="81.31" height="1.47"/><rect class="cls-3" x="196.5" y="62.36" width="47.68" height="1.46"/><rect class="cls-3" x="162.86" y="69.94" width="81.31" height="1.46"/><rect class="cls-3" x="162.86" y="77.52" width="81.31" height="1.47"/><rect class="cls-3" x="162.86" y="85.1" width="81.31" height="1.46"/><rect class="cls-3" x="223.01" y="92.68" width="21.17" height="1.47"/><path class="cls-4" d="M60.8,61.05H8.52A8.15,8.15,0,0,1,.38,52.91V8.52A8.16,8.16,0,0,1,8.52.37h82a8.16,8.16,0,0,1,8.14,8.15V52.91a8.15,8.15,0,0,1-8.14,8.14H84.66l-.17,25.52Z"/><path class="cls-4" d="M90.55.75a7.77,7.77,0,0,1,7.77,7.77V52.91a7.77,7.77,0,0,1-7.77,7.77H84.29l-.17,24.94-23-24.74.45-.2H8.52A7.77,7.77,0,0,1,.75,52.91V8.52A7.77,7.77,0,0,1,8.52.75h82m0-.75h-82A8.53,8.53,0,0,0,0,8.52V52.91a8.53,8.53,0,0,0,8.52,8.52H60.63l22.94,24.7,1.29,1.39V85.63L85,61.43h5.52a8.53,8.53,0,0,0,8.52-8.52V8.52A8.53,8.53,0,0,0,90.55,0Z"/><rect class="cls-3" x="14.94" y="13.94" width="67.86" height="1.46"/><rect class="cls-3" x="14.94" y="20.26" width="67.86" height="1.46"/><rect class="cls-3" x="28.18" y="26.59" width="54.62" height="1.47"/><rect class="cls-3" x="14.94" y="32.91" width="67.86" height="1.46"/><rect class="cls-3" x="64.08" y="39.24" width="18.72" height="1.47"/><rect class="cls-3" x="36.4" y="45.56" width="46.4" height="1.47"/><path class="cls-5" d="M55.29,384.63h4.89V378a6.35,6.35,0,0,1,6.34-6.35h46.37v-4.88H66.52A11.25,11.25,0,0,0,55.29,378Z"/><path class="cls-5" d="M79.19,384.63h4.88V378a6.36,6.36,0,0,1,6.35-6.35h22.42v-4.88H90.42A11.24,11.24,0,0,0,79.19,378Z"/><path class="cls-5" d="M153.79,384.63h4.88V375a8.25,8.25,0,0,0-8.23-8.24H101.08v4.88h49.36a3.36,3.36,0,0,1,3.35,3.36Z"/><path class="cls-5" d="M129.9,384.63h4.88v-9a8.85,8.85,0,0,0-8.83-8.84H101.12v4.88H126a4,4,0,0,1,4,4Z"/><rect class="cls-5" x="101.42" y="330.93" width="14.26" height="40.21" transform="translate(217.09 702.08) rotate(180)"/><rect class="cls-5" x="95.55" y="306.44" width="26" height="40.21" transform="translate(217.09 653.09) rotate(180)"/><path class="cls-6" d="M50.27,387.25a7.47,7.47,0,1,0,7.47-7.47A7.47,7.47,0,0,0,50.27,387.25Z"/><path class="cls-7" d="M57.74,379.78a7.47,7.47,0,0,1,7.47,7.47H50.27A7.46,7.46,0,0,1,57.74,379.78Z"/><path class="cls-6" d="M74.16,387.25a7.47,7.47,0,1,0,7.47-7.47A7.47,7.47,0,0,0,74.16,387.25Z"/><path class="cls-7" d="M81.63,379.78a7.47,7.47,0,0,1,7.47,7.47H74.16A7.46,7.46,0,0,1,81.63,379.78Z"/><path class="cls-6" d="M124.87,387.25a7.47,7.47,0,1,0,7.47-7.47A7.48,7.48,0,0,0,124.87,387.25Z"/><path class="cls-7" d="M132.34,379.78a7.46,7.46,0,0,1,7.47,7.47H124.87A7.47,7.47,0,0,1,132.34,379.78Z"/><path class="cls-8" d="M46.66,258.07H93.52a8.58,8.58,0,0,0,8.58-8.58l-2.93-67.57a8.58,8.58,0,0,0-8.58-8.58H30.06a8.58,8.58,0,0,0-8.58,8.58l16.61,67.57A8.58,8.58,0,0,0,46.66,258.07Z"/><path class="cls-8" d="M62.53,310.27h95A11.24,11.24,0,0,0,168.77,299h0a11.25,11.25,0,0,0-11.24-11.25h-95A11.25,11.25,0,0,0,51.29,299h0A11.24,11.24,0,0,0,62.53,310.27Z"/><g class="cls-9"><path class="cls-8" d="M62.53,310.27H98.79A11.24,11.24,0,0,0,110,299h0a11.25,11.25,0,0,0-11.24-11.25H62.53A11.25,11.25,0,0,0,51.29,299h0A11.24,11.24,0,0,0,62.53,310.27Z"/></g><rect class="cls-8" x="78.24" y="248.33" width="13.67" height="43.63" transform="translate(-62.84 28.61) rotate(-14)"/><g class="cls-9"><path class="cls-8" d="M46.41,257.07h0a6.2,6.2,0,0,0,4.53-7.5L33.78,180a6.19,6.19,0,0,0-7.5-4.53h0a6.19,6.19,0,0,0-4.53,7.5l17.16,69.54A6.2,6.2,0,0,0,46.41,257.07Z"/></g><polygon class="cls-10" points="206 378.28 213.43 378.28 206.6 260.2 193.3 260.2 206 378.28"/><path class="cls-4" d="M111.08,179.1,95.53,164.19l-5.09-6.07-15.92-2.69a7.61,7.61,0,0,0-3.64.28l-2.63.88s.19,1.32-4.15,4.93c-5.8,4.83-16.82,13-19.7,20.66Z"/><path class="cls-11" d="M177,238.25l5.61-1a1.43,1.43,0,0,1,1.38.54l4.07,5.3a1.44,1.44,0,0,1-.57,2.19h0a1.45,1.45,0,0,1-1.65-.39L182.54,241a1.43,1.43,0,0,0-1.59-.42l-3,1.13a1.43,1.43,0,0,1-1.9-1.08l-.13-.7A1.43,1.43,0,0,1,177,238.25Z"/><g class="cls-12"><path class="cls-13" d="M188.68,243.86s-.37.83-2-1.15a53.07,53.07,0,0,0-4.16-4.24,1.11,1.11,0,0,0-1.18-.21l-3.56,1.48,5.08-3.16Z"/></g><path class="cls-11" d="M175.35,238.27l1.61-3.39a.94.94,0,0,1,.85-.54h6.83a1,1,0,0,1,.76.38l5.06,6.8.07.11,1,1.72a1,1,0,0,1-1,1.4A4.09,4.09,0,0,1,188,243.5l-1.88-2.21-.13-.18-3.16-3.42a1,1,0,0,0-.93-.28l-2.06.51a.9.9,0,0,0-.21.08l-2.94,1.52a.94.94,0,0,1-1.38-.77h0A1,1,0,0,1,175.35,238.27Z"/><g class="cls-12"><path class="cls-13" d="M183.58,234.58a2.9,2.9,0,0,0-2.39.46l-4.57,2.4c1.36-.32-1.39,1.44,4.1-.94a4.59,4.59,0,0,1,2.05-.41c1.21.19,7.21,7.73,7.44,7.82.53.21.82-.13,1.38-.08a82.37,82.37,0,0,0-5.26-6.78A8.52,8.52,0,0,0,183.58,234.58Z"/></g><path class="cls-11" d="M174.48,236.69l2-4.16a1.18,1.18,0,0,1,1.05-.66h8.35a1.13,1.13,0,0,1,.93.47l6.2,8.32.08.13,1.18,2.11A1.16,1.16,0,0,1,193,244.6a5,5,0,0,1-3.12-1.52l-2.31-2.7a.82.82,0,0,0-.16-.22L183.57,236a1.16,1.16,0,0,0-1.13-.34l-2.52.62a1.17,1.17,0,0,0-.26.1l-3.59,1.87a1.17,1.17,0,0,1-1.7-1h0A1.24,1.24,0,0,1,174.48,236.69Z"/><path class="cls-13" d="M192.81,241.35s.18,2.26-1.38.71-8.24-7.39-8.24-7.39l-6.48,1.75,6.61-4.54Z"/><path class="cls-14" d="M174,236.06l1.77-4.73a1.3,1.3,0,0,1,1.09-.83l9.14-.78a1.25,1.25,0,0,1,1.06.42l7.55,8.54.11.13,1.48,2.2a1.28,1.28,0,0,1-1.17,2,6.18,6.18,0,0,1-2.81-.77,3.59,3.59,0,0,1-.74-.61l-2.77-2.74a1.43,1.43,0,0,0-.2-.23l-4.62-4.22a1.29,1.29,0,0,0-1.27-.27l-2.71.92a1,1,0,0,0-.27.13l-3.76,2.37a1.28,1.28,0,0,1-1.95-.88h0A1.26,1.26,0,0,1,174,236.06Z"/><path class="cls-11" d="M178,236.17l1.23,5.09-5.09,4.58C169.89,239.77,175.81,238.59,178,236.17Z"/><path class="cls-14" d="M176.64,230.54l1.35,5.63c-2.18,2.42-9,2.75-3.86,9.67l-3,2.69-8.84-1,.74-10.48Z"/><path class="cls-14" d="M178.11,236.19s-4.39,3.45-4.72,5.74,7.51.57,9.46,4.94-1.11,2-4.42,1.51a27.18,27.18,0,0,0-7.28.15l-2.94-9.76Z"/><path class="cls-15" d="M124.4,250.19h0a9.5,9.5,0,0,0,6-12l-19.07-56.52a9.49,9.49,0,0,0-12-6h0a9.5,9.5,0,0,0-6,12l19.07,56.53A9.5,9.5,0,0,0,124.4,250.19Z"/><path class="cls-15" d="M156.24,251.33l.27-18.21-35.13-.53a9.11,9.11,0,0,0-9.24,9h0a9.1,9.1,0,0,0,9,9.24Z"/><rect class="cls-4" x="151.91" y="235.22" width="20.03" height="14" transform="translate(406.54 83.94) rotate(90.86)"/><path class="cls-4" d="M111.08,179.1s-6.61-8.94-23.92-13.6-42.59,3.13-44,22.45c0,0,3.23,43.76,19.74,76.63h47.25S97.79,207.93,111.08,179.1Z"/><polygon class="cls-15" points="68.25 156.59 87.1 166.23 80.6 178.33 64.1 161.52 68.25 156.59"/><polygon class="cls-15" points="90.59 158.12 87.1 166.23 94.42 178.33 95.53 164.19 90.59 158.12"/><polygon class="cls-11" points="89.68 153 87.1 166.23 70.35 157.66 72.49 146.85 90.59 143.62 89.68 153"/><path class="cls-14" d="M72.4,149.55l12.31,7.14a10.66,10.66,0,0,0,5.37,1.43h0a10.32,10.32,0,0,0,8.43-4.2l4.25-6a8.67,8.67,0,0,0,1.63-5l.29-23.49C104.68,112,98.09,106,90,106H86.19c-10.21,0-18.48,7.61-18.48,17v18.79A9.08,9.08,0,0,0,72.4,149.55Z"/><path class="cls-16" d="M71,147.5v-8.59a.46.46,0,0,1,.06-.23l1.33-2.56a.51.51,0,0,1,.45-.28h1.66a.5.5,0,0,0,.5-.5v-16a6.23,6.23,0,0,1,6.22-6.22H99.3a5.36,5.36,0,0,1,5.36,5.38l0,10.92.91-9.52A12.72,12.72,0,0,0,92.89,106H80.34a14.1,14.1,0,0,0-14.06,15.21l1.42,18v.08c0,.5-.4,5.87,2.39,8.57A.51.51,0,0,0,71,147.5Z"/><path class="cls-11" d="M68.88,139.45h0a3.61,3.61,0,0,0,3.61-3.61v-6a3.61,3.61,0,0,0-3.61-3.61h0a3.61,3.61,0,0,0-3.61,3.61v6A3.61,3.61,0,0,0,68.88,139.45Z"/><polygon class="cls-11" points="93.69 126.64 98.27 139.74 93.69 142.78 93.69 126.64"/><path class="cls-16" d="M99.18,132h0a1.9,1.9,0,0,0,1.9-1.9v-2a1.9,1.9,0,0,0-1.9-1.9h0a1.9,1.9,0,0,0-1.9,1.9v2A1.9,1.9,0,0,0,99.18,132Z"/><path class="cls-16" d="M86.19,132.2h0a1.9,1.9,0,0,0,1.9-1.9v-2a1.9,1.9,0,0,0-1.9-1.9h0a1.9,1.9,0,0,0-1.9,1.9v2A1.9,1.9,0,0,0,86.19,132.2Z"/><path class="cls-16" d="M96.92,123.07c1.38-.76,4.07-1.56,6.44,1.59,0,0-1.19-4.58-7.1-3.53a1,1,0,0,0-.78,1.46h0A1,1,0,0,0,96.92,123.07Z"/><path class="cls-16" d="M87.71,123.07a5.64,5.64,0,0,0-7.24,1.59s1.34-4.58,8-3.53a1,1,0,0,1,.87,1.46h0A1.23,1.23,0,0,1,87.71,123.07Z"/><path class="cls-3" d="M98.88,144.49s-4.93,3.6-13,0c0,0,2.18,7.83,7.49,7.83C96.63,152.32,98.88,144.49,98.88,144.49Z"/><ellipse class="cls-17" cx="68.65" cy="132.87" rx="6.94" ry="8.22"/><path class="cls-18" d="M61.71,133c0,3.72,2.57,6.73,5.73,6.73s5.74-3,5.74-6.73-2.57-6.72-5.74-6.72S61.71,129.27,61.71,133Z"/><path class="cls-18" d="M69,132.2h1.83V110.43a3.63,3.63,0,0,1,2.9-3.56h6v-1.82H73.52A5.47,5.47,0,0,0,69,110.43Z"/><path class="cls-16" d="M107.52,101.31s3.59,14.3-18.23,14.3c-10.31,0-16.08-2.9-16.08-6.18C73.21,91.54,101.08,112.94,107.52,101.31Z"/><polygon class="cls-14" points="123.87 251.71 132.79 252.51 140.73 245 137.87 234.27 124.35 241.14 123.87 251.71"/><path class="cls-14" d="M135.38,239.89l1.67-4.81a1.29,1.29,0,0,1,1.07-.86l9.18-1a1.29,1.29,0,0,1,1.08.41l7.82,8.4a.64.64,0,0,1,.1.13l1.55,2.18a1.28,1.28,0,0,1-1.12,2,5.49,5.49,0,0,1-3.62-1.29l-2.85-2.69a1.1,1.1,0,0,0-.21-.22L145.29,238a1.27,1.27,0,0,0-1.28-.24l-2.7,1a1.15,1.15,0,0,0-.27.14l-3.73,2.49a1.29,1.29,0,0,1-2-.85h0A1.26,1.26,0,0,1,135.38,239.89Z"/><path class="cls-13" d="M139.1,235l8.25-.89a1.48,1.48,0,0,1,1.37.63l6,8.84Z"/><path class="cls-14" d="M136,239.9l1.88-4.23a1.16,1.16,0,0,1,1-.7l8.4-.22a1.16,1.16,0,0,1,.95.45l6.45,8.22.08.13,1.24,2.1a1.17,1.17,0,0,1-1.17,1.75,5,5,0,0,1-3.18-1.45l-2.39-2.66a1.18,1.18,0,0,0-.17-.22l-4-4.12a1.13,1.13,0,0,0-1.14-.31l-2.53.69a1.17,1.17,0,0,0-.26.1l-3.57,2a1.17,1.17,0,0,1-1.73-.92h0A1.15,1.15,0,0,1,136,239.9Z"/><path class="cls-13" d="M138.89,238.1l7.38-.95a1.29,1.29,0,0,1,1.28.61l5.28,8.5Z"/><path class="cls-14" d="M136.76,242.09l1.54-3.46a1,1,0,0,1,.85-.57l6.87-.18a.93.93,0,0,1,.77.37l5.27,6.72.07.1,1,1.71a1,1,0,0,1-1,1.44,4.11,4.11,0,0,1-2.6-1.19l-2-2.18a1.09,1.09,0,0,0-.13-.17l-3.27-3.37a1,1,0,0,0-.94-.26l-2.06.57a1,1,0,0,0-.21.08l-2.92,1.61a1,1,0,0,1-1.42-.75h0A1,1,0,0,1,136.76,242.09Z"/><path class="cls-13" d="M139.86,241.74l4.54-1.41a1.22,1.22,0,0,1,1.37.47l3.95,5.84Z"/><path class="cls-14" d="M138.47,242l5.62-1.13a1.45,1.45,0,0,1,1.4.51l4.23,5.24a1.44,1.44,0,0,1-.52,2.21h0a1.44,1.44,0,0,1-1.67-.35l-3.46-3.87a1.42,1.42,0,0,0-1.61-.38l-3,1.21a1.45,1.45,0,0,1-2-1l-.14-.7A1.44,1.44,0,0,1,138.47,242Z"/><path class="cls-15" d="M80,256.26h0a10.25,10.25,0,0,0,6.1-13.14L64,182.72a10.24,10.24,0,0,0-13.13-6.1h0a10.24,10.24,0,0,0-6.11,13.13l22.07,60.4A10.24,10.24,0,0,0,80,256.26Z"/><path class="cls-15" d="M114.29,256.63,114.1,237l-37.87.38a9.8,9.8,0,0,0-9.72,9.91h0A9.82,9.82,0,0,0,76.42,257Z"/><rect class="cls-4" x="109.38" y="239.12" width="21.59" height="15.09" transform="translate(365.62 124.03) rotate(89.43)"/><path class="cls-5" d="M201.55,382.75l-14.51.07c-4.33-7.2.8-14.1.8-14.1,1.38,1.89,12.72,2.35,16-.76s4.29-2.42,4.29-2.42,8.44,6,13.1,8.53,7.39,1,12,2.7a6.59,6.59,0,0,1,4.66,5.82l-32,.14C205.14,382.08,201.88,382.1,201.55,382.75Z"/><path class="cls-19" d="M205.9,382.73l32-.14v1.83a1.27,1.27,0,0,1-1.26,1.27l-27.36.12a1.46,1.46,0,0,1-1.17-.58A15.58,15.58,0,0,0,205.9,382.73Z"/><path class="cls-19" d="M187,382.82l14.51-.07a2.85,2.85,0,0,0-.25,1.37,1.61,1.61,0,0,1-1.57,1.73l-11.42.06Z"/><rect class="cls-6" x="108.94" y="271.28" width="82.43" height="24.66" transform="translate(300.31 567.21) rotate(180)"/><polygon class="cls-6" points="163.6 275.9 184.49 373.76 210.92 366.75 191.58 271.34 163.6 275.9"/><path class="cls-5" d="M62.92,264.58l7.2,21.91a13.73,13.73,0,0,0,13,9.45h43.6l-16.6-31.36Z"/><rect class="cls-5" x="85.89" y="271.25" width="60.57" height="24.69" transform="translate(232.35 567.18) rotate(180)"/><path class="cls-20" d="M157.69,389.67l-14.51.06c-4.33-7.19.79-14.09.79-14.09,1.39,1.88,12.73,2.35,16-.76s4.29-2.42,4.29-2.42,8.44,6,13.09,8.53,7.4,1,12,2.69a6.61,6.61,0,0,1,4.66,5.83l-32,.14C161.28,389,158,389,157.69,389.67Z"/><path class="cls-5" d="M162,389.65l32-.14v1.82a1.26,1.26,0,0,1-1.26,1.27l-27.36.13a1.43,1.43,0,0,1-1.17-.59A15.56,15.56,0,0,0,162,389.65Z"/><path class="cls-5" d="M143.18,389.73l14.51-.06a3,3,0,0,0-.26,1.37,1.6,1.6,0,0,1-1.56,1.73l-11.42.05Z"/><polygon class="cls-5" points="119.44 275.73 140.75 383.18 167 373.09 146.67 271.31 119.44 275.73"/><polygon class="cls-21" points="281.71 397 289.15 397 274.5 260.2 261.2 260.2 281.71 397"/><polygon class="cls-10" points="100.54 397 107.98 397 118.72 260.2 105.43 260.2 100.54 397"/><polygon class="cls-10" points="18.84 397 26.27 397 49.71 260.2 36.41 260.2 18.84 397"/><rect class="cls-22" x="18.02" y="252.34" width="276.94" height="8.65" transform="translate(312.98 513.33) rotate(180)"/><g class="cls-12"><rect class="cls-22" x="18.02" y="252.34" width="119.29" height="8.65" transform="translate(155.34 513.33) rotate(180)"/></g><rect class="cls-6" x="111.46" y="248.23" width="64.37" height="4.24" transform="translate(287.29 500.69) rotate(180)"/><polygon class="cls-5" points="162 144.27 138.47 237.51 143.15 237.51 167.11 144.27 162 144.27"/><polygon class="cls-6" points="143.15 237.51 209.29 237.51 231.54 144.18 166.78 144.18 143.15 237.51"/><path class="cls-5" d="M187.62,248.23l-2.86-41.12a3,3,0,0,0-4.45-2.43h0a3,3,0,0,0-1.56,2.85l2.92,40.7Z"/><rect class="cls-5" x="160.01" y="248.23" width="46.96" height="4.24" transform="translate(366.98 500.69) rotate(180)"/><path class="cls-5" d="M169.21,197.61h34a1.12,1.12,0,0,0,1.12-1.12h0a1.12,1.12,0,0,0-1.12-1.12h-34a1.12,1.12,0,0,0-1.12,1.12h0A1.12,1.12,0,0,0,169.21,197.61Z"/></g></g></g></svg>